<?xml version="1.0" encoding="UTF-8" standalone="no"?>
<!DOCTYPE svg PUBLIC "-//W3C//DTD SVG 1.1//EN"
 "http://www.w3.org/Graphics/SVG/1.1/DTD/svg11.dtd">
<!-- Generated by graphviz version 2.50.0 (20211204.2007)
 -->
<!-- Title: mh::TabuSearch::findOptimal Pages: 1 -->
<svg width="729pt" height="176pt"
 viewBox="0.00 0.00 729.00 176.00" xmlns="http://www.w3.org/2000/svg" xmlns:xlink="http://www.w3.org/1999/xlink">
<g id="graph0" class="graph" transform="scale(1 1) rotate(0) translate(4 172)">
<title>mh::TabuSearch::findOptimal</title>
<polygon fill="white" stroke="transparent" points="-4,4 -4,-172 725,-172 725,4 -4,4"/>
<!-- Node1 -->
<g id="node1" class="node">
<title>Node1</title>
<g id="a_node1"><a xlink:title="Finds a near optimal solution to the problem using Tabu Search.">
<polygon fill="#bfbfbf" stroke="black" points="0,-88 0,-107 143,-107 143,-88 0,-88"/>
<text text-anchor="middle" x="71.5" y="-95" font-family="Helvetica,sans-Serif" font-size="10.00">mh::TabuSearch::findOptimal</text>
</a>
</g>
</g>
<!-- Node2 -->
<g id="node2" class="node">
<title>Node2</title>
<g id="a_node2"><a xlink:href="classmh_1_1_tabu_search.html#a191afd82e629142b3b0ae41c8e635244" target="_top" xlink:title="Generates a move from the neighbourhood of a solution, that is not tabu.">
<polygon fill="white" stroke="black" points="179,-137 179,-156 333,-156 333,-137 179,-137"/>
<text text-anchor="middle" x="256" y="-144" font-family="Helvetica,sans-Serif" font-size="10.00">mh::TabuSearch::generateMove</text>
</a>
</g>
</g>
<!-- Node1&#45;&gt;Node2 -->
<g id="edge1" class="edge">
<title>Node1&#45;&gt;Node2</title>
<path fill="none" stroke="midnightblue" d="M108.12,-107.06C137.14,-114.85 178.29,-125.9 209.66,-134.33"/>
<polygon fill="midnightblue" stroke="midnightblue" points="208.9,-137.75 219.47,-136.96 210.72,-130.99 208.9,-137.75"/>
</g>
<!-- Node5 -->
<g id="node5" class="node">
<title>Node5</title>
<g id="a_node5"><a xlink:href="classmh_1_1_metaheuristic.html#a17ee0cbdd097192f6a205c57133a5717" target="_top" xlink:title="Applies a move to a solution.">
<polygon fill="white" stroke="black" points="205.5,-82.5 205.5,-112.5 306.5,-112.5 306.5,-82.5 205.5,-82.5"/>
<text text-anchor="start" x="213.5" y="-100.5" font-family="Helvetica,sans-Serif" font-size="10.00">mh::Metaheuristic::</text>
<text text-anchor="middle" x="256" y="-89.5" font-family="Helvetica,sans-Serif" font-size="10.00">neighbour</text>
</a>
</g>
</g>
<!-- Node1&#45;&gt;Node5 -->
<g id="edge4" class="edge">
<title>Node1&#45;&gt;Node5</title>
<path fill="none" stroke="midnightblue" d="M143.06,-97.5C160.25,-97.5 178.48,-97.5 195.13,-97.5"/>
<polygon fill="midnightblue" stroke="midnightblue" points="195.26,-101 205.26,-97.5 195.26,-94 195.26,-101"/>
</g>
<!-- Node7 -->
<g id="node7" class="node">
<title>Node7</title>
<g id="a_node7"><a xlink:href="classmh_1_1_metaheuristic.html#a587e655f724797038c8de993832f7caa" target="_top" xlink:title="Generates a random solution to the problem.">
<polygon fill="white" stroke="black" points="205.5,-22.5 205.5,-52.5 306.5,-52.5 306.5,-22.5 205.5,-22.5"/>
<text text-anchor="start" x="213.5" y="-40.5" font-family="Helvetica,sans-Serif" font-size="10.00">mh::Metaheuristic::</text>
<text text-anchor="middle" x="256" y="-29.5" font-family="Helvetica,sans-Serif" font-size="10.00">randomSolution</text>
</a>
</g>
</g>
<!-- Node1&#45;&gt;Node7 -->
<g id="edge7" class="edge">
<title>Node1&#45;&gt;Node7</title>
<path fill="none" stroke="midnightblue" d="M101.42,-87.99C127.65,-79.37 167.05,-66.42 199.37,-55.79"/>
<polygon fill="midnightblue" stroke="midnightblue" points="200.75,-59.02 209.15,-52.57 198.56,-52.37 200.75,-59.02"/>
</g>
<!-- Node3 -->
<g id="node3" class="node">
<title>Node3</title>
<g id="a_node3"><a xlink:href="classmh_1_1_metaheuristic.html#a5a36d1002279148d57f18449dfad3d08" target="_top" xlink:title="Generates a move from the neighbourhood of a solution.">
<polygon fill="white" stroke="black" points="397.5,-137.5 397.5,-167.5 498.5,-167.5 498.5,-137.5 397.5,-137.5"/>
<text text-anchor="start" x="405.5" y="-155.5" font-family="Helvetica,sans-Serif" font-size="10.00">mh::Metaheuristic::</text>
<text text-anchor="middle" x="448" y="-144.5" font-family="Helvetica,sans-Serif" font-size="10.00">generateMove</text>
</a>
</g>
</g>
<!-- Node2&#45;&gt;Node3 -->
<g id="edge2" class="edge">
<title>Node2&#45;&gt;Node3</title>
<path fill="none" stroke="midnightblue" d="M333.19,-148.91C351.05,-149.47 369.85,-150.06 386.9,-150.6"/>
<polygon fill="midnightblue" stroke="midnightblue" points="387.16,-154.11 397.27,-150.93 387.38,-147.12 387.16,-154.11"/>
</g>
<!-- Node4 -->
<g id="node4" class="node">
<title>Node4</title>
<g id="a_node4"><a xlink:href="classopp_1_1_travelling_salesman_problem.html#ad05c81f501fe5f191e0de39d3f8ad332" target="_top" xlink:title="Generates a move from the neighbourhood of a solution.">
<polygon fill="white" stroke="black" points="563,-115.5 563,-145.5 721,-145.5 721,-115.5 563,-115.5"/>
<text text-anchor="start" x="571" y="-133.5" font-family="Helvetica,sans-Serif" font-size="10.00">opp::TravellingSalesmanProblem</text>
<text text-anchor="middle" x="642" y="-122.5" font-family="Helvetica,sans-Serif" font-size="10.00">::generateMove</text>
</a>
</g>
</g>
<!-- Node3&#45;&gt;Node4 -->
<g id="edge3" class="edge">
<title>Node3&#45;&gt;Node4</title>
<path fill="none" stroke="midnightblue" d="M498.94,-146.78C515.35,-144.9 534.11,-142.75 552.5,-140.64"/>
<polygon fill="midnightblue" stroke="midnightblue" points="553.12,-144.09 562.66,-139.48 552.33,-137.14 553.12,-144.09"/>
</g>
<!-- Node5&#45;&gt;Node4 -->
<g id="edge5" class="edge">
<title>Node5&#45;&gt;Node4</title>
<path fill="none" stroke="midnightblue" d="M306.81,-101.78C368.96,-107.12 476.32,-116.35 552.58,-122.9"/>
<polygon fill="midnightblue" stroke="midnightblue" points="552.39,-126.4 562.66,-123.77 552.99,-119.42 552.39,-126.4"/>
</g>
<!-- Node6 -->
<g id="node6" class="node">
<title>Node6</title>
<g id="a_node6"><a xlink:href="classopp_1_1_travelling_salesman_problem.html#aa42a141024661ed6c2947358a785e982" target="_top" xlink:title="Applies a move to a solution.">
<polygon fill="white" stroke="black" points="369,-49.5 369,-79.5 527,-79.5 527,-49.5 369,-49.5"/>
<text text-anchor="start" x="377" y="-67.5" font-family="Helvetica,sans-Serif" font-size="10.00">opp::TravellingSalesmanProblem</text>
<text text-anchor="middle" x="448" y="-56.5" font-family="Helvetica,sans-Serif" font-size="10.00">::neighbour</text>
</a>
</g>
</g>
<!-- Node5&#45;&gt;Node6 -->
<g id="edge6" class="edge">
<title>Node5&#45;&gt;Node6</title>
<path fill="none" stroke="midnightblue" d="M306.92,-88.83C322.88,-86.06 341.04,-82.9 358.88,-79.8"/>
<polygon fill="midnightblue" stroke="midnightblue" points="359.49,-83.25 368.74,-78.09 358.29,-76.35 359.49,-83.25"/>
</g>
<!-- Node8 -->
<g id="node8" class="node">
<title>Node8</title>
<g id="a_node8"><a xlink:href="classopp_1_1_travelling_salesman_problem.html#a56af096a854db5ae5118445013332be5" target="_top" xlink:title="Generates a random solution to the problem.">
<polygon fill="white" stroke="black" points="369,-0.5 369,-30.5 527,-30.5 527,-0.5 369,-0.5"/>
<text text-anchor="start" x="377" y="-18.5" font-family="Helvetica,sans-Serif" font-size="10.00">opp::TravellingSalesmanProblem</text>
<text text-anchor="middle" x="448" y="-7.5" font-family="Helvetica,sans-Serif" font-size="10.00">::randomSolution</text>
</a>
</g>
</g>
<!-- Node7&#45;&gt;Node8 -->
<g id="edge8" class="edge">
<title>Node7&#45;&gt;Node8</title>
<path fill="none" stroke="midnightblue" d="M306.92,-31.72C322.73,-29.89 340.71,-27.81 358.39,-25.76"/>
<polygon fill="midnightblue" stroke="midnightblue" points="359.21,-29.19 368.74,-24.56 358.41,-22.23 359.21,-29.19"/>
</g>
<!-- Node9 -->
<g id="node9" class="node">
<title>Node9</title>
<g id="a_node9"><a xlink:href="classopp_1_1_travelling_salesman_problem.html#a4c5f4ebeff9e699b194ab4ced7c7c63e" target="_top" xlink:title="Calculates the cost of a solution.">
<polygon fill="white" stroke="black" points="563,-0.5 563,-30.5 721,-30.5 721,-0.5 563,-0.5"/>
<text text-anchor="start" x="571" y="-18.5" font-family="Helvetica,sans-Serif" font-size="10.00">opp::TravellingSalesmanProblem</text>
<text text-anchor="middle" x="642" y="-7.5" font-family="Helvetica,sans-Serif" font-size="10.00">::cost</text>
</a>
</g>
</g>
<!-- Node8&#45;&gt;Node9 -->
<g id="edge9" class="edge">
<title>Node8&#45;&gt;Node9</title>
<path fill="none" stroke="midnightblue" d="M527.09,-15.5C535.6,-15.5 544.3,-15.5 552.92,-15.5"/>
<polygon fill="midnightblue" stroke="midnightblue" points="552.98,-19 562.98,-15.5 552.98,-12 552.98,-19"/>
</g>
</g>
</svg>
