<?xml version="1.0" encoding="UTF-8" standalone="no"?>
<!DOCTYPE svg PUBLIC "-//W3C//DTD SVG 1.1//EN"
 "http://www.w3.org/Graphics/SVG/1.1/DTD/svg11.dtd">
<!-- Generated by graphviz version 2.50.0 (20211204.2007)
 -->
<!-- Title: gui::Screen Pages: 1 -->
<svg width="109pt" height="270pt"
 viewBox="0.00 0.00 109.00 270.00" xmlns="http://www.w3.org/2000/svg" xmlns:xlink="http://www.w3.org/1999/xlink">
<g id="graph0" class="graph" transform="scale(1 1) rotate(0) translate(4 266)">
<title>gui::Screen</title>
<polygon fill="white" stroke="transparent" points="-4,4 -4,-266 105,-266 105,4 -4,4"/>
<!-- Node1 -->
<g id="node1" class="node">
<title>Node1</title>
<g id="a_node1"><a xlink:title="Represents a screen and its components that the user can interact with.">
<polygon fill="#bfbfbf" stroke="black" points="0,-127.5 0,-261.5 101,-261.5 101,-127.5 0,-127.5"/>
<text text-anchor="middle" x="50.5" y="-249.5" font-family="Helvetica,sans-Serif" font-size="10.00">gui::Screen</text>
<polyline fill="none" stroke="black" points="0,-242.5 101,-242.5 "/>
<text text-anchor="start" x="8" y="-230.5" font-family="Helvetica,sans-Serif" font-size="10.00">&#45; components</text>
<polyline fill="none" stroke="black" points="0,-223.5 101,-223.5 "/>
<text text-anchor="start" x="8" y="-211.5" font-family="Helvetica,sans-Serif" font-size="10.00">+ Screen()</text>
<text text-anchor="start" x="8" y="-200.5" font-family="Helvetica,sans-Serif" font-size="10.00">+ operator=()</text>
<text text-anchor="start" x="8" y="-189.5" font-family="Helvetica,sans-Serif" font-size="10.00">+ ~Screen()</text>
<text text-anchor="start" x="8" y="-178.5" font-family="Helvetica,sans-Serif" font-size="10.00">+ render()</text>
<text text-anchor="start" x="8" y="-167.5" font-family="Helvetica,sans-Serif" font-size="10.00">+ handleEvent()</text>
<text text-anchor="start" x="8" y="-156.5" font-family="Helvetica,sans-Serif" font-size="10.00">+ update()</text>
<text text-anchor="start" x="8" y="-145.5" font-family="Helvetica,sans-Serif" font-size="10.00"># Screen()</text>
<text text-anchor="start" x="8" y="-134.5" font-family="Helvetica,sans-Serif" font-size="10.00"># addComponents()</text>
</a>
</g>
</g>
<!-- Node2 -->
<g id="node2" class="node">
<title>Node2</title>
<g id="a_node2"><a xlink:href="classgui_1_1_menu.html" target="_top" xlink:title="Represents the main menu screen and all of its components.">
<polygon fill="white" stroke="black" points="9.5,-0.5 9.5,-90.5 91.5,-90.5 91.5,-0.5 9.5,-0.5"/>
<text text-anchor="middle" x="50.5" y="-78.5" font-family="Helvetica,sans-Serif" font-size="10.00">gui::Menu</text>
<polyline fill="none" stroke="black" points="9.5,-71.5 91.5,-71.5 "/>
<text text-anchor="middle" x="50.5" y="-59.5" font-family="Helvetica,sans-Serif" font-size="10.00"> </text>
<polyline fill="none" stroke="black" points="9.5,-52.5 91.5,-52.5 "/>
<text text-anchor="start" x="17.5" y="-40.5" font-family="Helvetica,sans-Serif" font-size="10.00">+ Menu()</text>
<text text-anchor="start" x="17.5" y="-29.5" font-family="Helvetica,sans-Serif" font-size="10.00">+ operator=()</text>
<text text-anchor="start" x="17.5" y="-18.5" font-family="Helvetica,sans-Serif" font-size="10.00">+ getInstance()</text>
<text text-anchor="start" x="17.5" y="-7.5" font-family="Helvetica,sans-Serif" font-size="10.00">&#45; Menu()</text>
</a>
</g>
</g>
<!-- Node1&#45;&gt;Node2 -->
<g id="edge1" class="edge">
<title>Node1&#45;&gt;Node2</title>
<path fill="none" stroke="midnightblue" d="M50.5,-117.15C50.5,-108.15 50.5,-99.2 50.5,-90.85"/>
<polygon fill="none" stroke="midnightblue" points="47,-117.31 50.5,-127.31 54,-117.31 47,-117.31"/>
</g>
</g>
</svg>
