<?xml version="1.0" encoding="UTF-8" standalone="no"?>
<!DOCTYPE svg PUBLIC "-//W3C//DTD SVG 1.1//EN"
 "http://www.w3.org/Graphics/SVG/1.1/DTD/svg11.dtd">
<!-- Generated by graphviz version 2.50.0 (20211204.2007)
 -->
<!-- Title: mh::Metaheuristic::randomSolution Pages: 1 -->
<svg width="288pt" height="176pt"
 viewBox="0.00 0.00 288.00 175.50" xmlns="http://www.w3.org/2000/svg" xmlns:xlink="http://www.w3.org/1999/xlink">
<g id="graph0" class="graph" transform="scale(1 1) rotate(0) translate(4 171.5)">
<title>mh::Metaheuristic::randomSolution</title>
<polygon fill="white" stroke="transparent" points="-4,4 -4,-171.5 284,-171.5 284,4 -4,4"/>
<!-- Node1 -->
<g id="node1" class="node">
<title>Node1</title>
<g id="a_node1"><a xlink:title="Generates a random solution to the problem.">
<polygon fill="#bfbfbf" stroke="black" points="179,-63 179,-93 280,-93 280,-63 179,-63"/>
<text text-anchor="start" x="187" y="-81" font-family="Helvetica,sans-Serif" font-size="10.00">mh::Metaheuristic::</text>
<text text-anchor="middle" x="229.5" y="-70" font-family="Helvetica,sans-Serif" font-size="10.00">randomSolution</text>
</a>
</g>
</g>
<!-- Node2 -->
<g id="node2" class="node">
<title>Node2</title>
<g id="a_node2"><a xlink:href="classmh_1_1_genetic_algorithm.html#afc5c822f97236d13700f372837f993e0" target="_top" xlink:title="Finds a near optimal solution to the problem using the Genetic Algorithm.">
<polygon fill="white" stroke="black" points="16,-137 16,-167 127,-167 127,-137 16,-137"/>
<text text-anchor="start" x="24" y="-155" font-family="Helvetica,sans-Serif" font-size="10.00">mh::GeneticAlgorithm</text>
<text text-anchor="middle" x="71.5" y="-144" font-family="Helvetica,sans-Serif" font-size="10.00">::findOptimal</text>
</a>
</g>
</g>
<!-- Node1&#45;&gt;Node2 -->
<g id="edge1" class="edge">
<title>Node1&#45;&gt;Node2</title>
<path fill="none" stroke="midnightblue" d="M196.79,-98.6C181.02,-108.31 161.43,-119.58 143,-128 136.06,-131.17 128.58,-134.15 121.17,-136.87"/>
<polygon fill="midnightblue" stroke="midnightblue" points="198.96,-101.37 205.59,-93.1 195.26,-95.43 198.96,-101.37"/>
</g>
<!-- Node3 -->
<g id="node3" class="node">
<title>Node3</title>
<g id="a_node3"><a xlink:href="classmh_1_1_iterated_local_search.html#abe4fc7258b131bd9cc6ee2a46a853305" target="_top" xlink:title="Finds a near optimal solution to the problem using Iterated Local Search.">
<polygon fill="white" stroke="black" points="10.5,-88 10.5,-118 132.5,-118 132.5,-88 10.5,-88"/>
<text text-anchor="start" x="18.5" y="-106" font-family="Helvetica,sans-Serif" font-size="10.00">mh::IteratedLocalSearch</text>
<text text-anchor="middle" x="71.5" y="-95" font-family="Helvetica,sans-Serif" font-size="10.00">::findOptimal</text>
</a>
</g>
</g>
<!-- Node1&#45;&gt;Node3 -->
<g id="edge2" class="edge">
<title>Node1&#45;&gt;Node3</title>
<path fill="none" stroke="midnightblue" d="M168.57,-87.6C156.82,-89.49 144.49,-91.46 132.73,-93.35"/>
<polygon fill="midnightblue" stroke="midnightblue" points="169.39,-91.02 178.71,-85.98 168.28,-84.11 169.39,-91.02"/>
</g>
<!-- Node4 -->
<g id="node4" class="node">
<title>Node4</title>
<g id="a_node4"><a xlink:href="classmh_1_1_memetic_algorithm.html#ab15cea2b9f7127cd01db9af011142687" target="_top" xlink:title="Finds a near optimal solution to the problem using the Memetic Algorithm.">
<polygon fill="white" stroke="black" points="14,-39 14,-69 129,-69 129,-39 14,-39"/>
<text text-anchor="start" x="22" y="-57" font-family="Helvetica,sans-Serif" font-size="10.00">mh::MemeticAlgorithm</text>
<text text-anchor="middle" x="71.5" y="-46" font-family="Helvetica,sans-Serif" font-size="10.00">::findOptimal</text>
</a>
</g>
</g>
<!-- Node1&#45;&gt;Node4 -->
<g id="edge3" class="edge">
<title>Node1&#45;&gt;Node4</title>
<path fill="none" stroke="midnightblue" d="M168.52,-68.77C155.58,-66.78 141.94,-64.68 129.14,-62.71"/>
<polygon fill="midnightblue" stroke="midnightblue" points="168.3,-72.28 178.71,-70.34 169.36,-65.36 168.3,-72.28"/>
</g>
<!-- Node5 -->
<g id="node5" class="node">
<title>Node5</title>
<g id="a_node5"><a xlink:href="classmh_1_1_tabu_search.html#a710549972412c1af94dccf32f51881b6" target="_top" xlink:title="Finds a near optimal solution to the problem using Tabu Search.">
<polygon fill="white" stroke="black" points="0,-0.5 0,-19.5 143,-19.5 143,-0.5 0,-0.5"/>
<text text-anchor="middle" x="71.5" y="-7.5" font-family="Helvetica,sans-Serif" font-size="10.00">mh::TabuSearch::findOptimal</text>
</a>
</g>
</g>
<!-- Node1&#45;&gt;Node5 -->
<g id="edge4" class="edge">
<title>Node1&#45;&gt;Node5</title>
<path fill="none" stroke="midnightblue" d="M196.19,-57.48C180.56,-48.18 161.26,-37.59 143,-30 133.25,-25.95 122.41,-22.42 112.21,-19.5"/>
<polygon fill="midnightblue" stroke="midnightblue" points="194.57,-60.59 204.94,-62.78 198.2,-54.6 194.57,-60.59"/>
</g>
</g>
</svg>
