<?xml version="1.0" encoding="UTF-8" standalone="no"?>
<!DOCTYPE svg PUBLIC "-//W3C//DTD SVG 1.1//EN"
 "http://www.w3.org/Graphics/SVG/1.1/DTD/svg11.dtd">
<!-- Generated by graphviz version 2.50.0 (20211204.2007)
 -->
<!-- Title: mh::IteratedLocalSearch::findOptimal Pages: 1 -->
<svg width="676pt" height="159pt"
 viewBox="0.00 0.00 676.00 159.00" xmlns="http://www.w3.org/2000/svg" xmlns:xlink="http://www.w3.org/1999/xlink">
<g id="graph0" class="graph" transform="scale(1 1) rotate(0) translate(4 155)">
<title>mh::IteratedLocalSearch::findOptimal</title>
<polygon fill="white" stroke="transparent" points="-4,4 -4,-155 672,-155 672,4 -4,4"/>
<!-- Node1 -->
<g id="node1" class="node">
<title>Node1</title>
<g id="a_node1"><a xlink:title="Finds a near optimal solution to the problem using Iterated Local Search.">
<polygon fill="#bfbfbf" stroke="black" points="0,-49.5 0,-79.5 122,-79.5 122,-49.5 0,-49.5"/>
<text text-anchor="start" x="8" y="-67.5" font-family="Helvetica,sans-Serif" font-size="10.00">mh::IteratedLocalSearch</text>
<text text-anchor="middle" x="61" y="-56.5" font-family="Helvetica,sans-Serif" font-size="10.00">::findOptimal</text>
</a>
</g>
</g>
<!-- Node2 -->
<g id="node2" class="node">
<title>Node2</title>
<g id="a_node2"><a xlink:href="classmh_1_1_metaheuristic.html#a17ee0cbdd097192f6a205c57133a5717" target="_top" xlink:title="Applies a move to a solution.">
<polygon fill="white" stroke="black" points="344.5,-82.5 344.5,-112.5 445.5,-112.5 445.5,-82.5 344.5,-82.5"/>
<text text-anchor="start" x="352.5" y="-100.5" font-family="Helvetica,sans-Serif" font-size="10.00">mh::Metaheuristic::</text>
<text text-anchor="middle" x="395" y="-89.5" font-family="Helvetica,sans-Serif" font-size="10.00">neighbour</text>
</a>
</g>
</g>
<!-- Node1&#45;&gt;Node2 -->
<g id="edge1" class="edge">
<title>Node1&#45;&gt;Node2</title>
<path fill="none" stroke="midnightblue" d="M111.4,-79.59C126.24,-83.52 142.66,-87.27 158,-89.5 217.53,-98.15 286.35,-99.51 334.25,-99.1"/>
<polygon fill="midnightblue" stroke="midnightblue" points="334.49,-102.6 344.45,-98.98 334.41,-95.6 334.49,-102.6"/>
</g>
<!-- Node5 -->
<g id="node5" class="node">
<title>Node5</title>
<g id="a_node5"><a xlink:href="classmh_1_1_iterated_local_search.html#a9c23c535bce43d52a2ce39f2b64d360c" target="_top" xlink:title="Perturbs the solution to escape a local optima.">
<polygon fill="white" stroke="black" points="158,-49.5 158,-79.5 280,-79.5 280,-49.5 158,-49.5"/>
<text text-anchor="start" x="166" y="-67.5" font-family="Helvetica,sans-Serif" font-size="10.00">mh::IteratedLocalSearch</text>
<text text-anchor="middle" x="219" y="-56.5" font-family="Helvetica,sans-Serif" font-size="10.00">::perturb</text>
</a>
</g>
</g>
<!-- Node1&#45;&gt;Node5 -->
<g id="edge4" class="edge">
<title>Node1&#45;&gt;Node5</title>
<path fill="none" stroke="midnightblue" d="M122.31,-64.5C130.6,-64.5 139.17,-64.5 147.63,-64.5"/>
<polygon fill="midnightblue" stroke="midnightblue" points="147.85,-68 157.85,-64.5 147.85,-61 147.85,-68"/>
</g>
<!-- Node6 -->
<g id="node6" class="node">
<title>Node6</title>
<g id="a_node6"><a xlink:href="classmh_1_1_metaheuristic.html#a587e655f724797038c8de993832f7caa" target="_top" xlink:title="Generates a random solution to the problem.">
<polygon fill="white" stroke="black" points="168.5,-0.5 168.5,-30.5 269.5,-30.5 269.5,-0.5 168.5,-0.5"/>
<text text-anchor="start" x="176.5" y="-18.5" font-family="Helvetica,sans-Serif" font-size="10.00">mh::Metaheuristic::</text>
<text text-anchor="middle" x="219" y="-7.5" font-family="Helvetica,sans-Serif" font-size="10.00">randomSolution</text>
</a>
</g>
</g>
<!-- Node1&#45;&gt;Node6 -->
<g id="edge6" class="edge">
<title>Node1&#45;&gt;Node6</title>
<path fill="none" stroke="midnightblue" d="M110.08,-49.4C126.02,-44.39 143.92,-38.77 160.5,-33.56"/>
<polygon fill="midnightblue" stroke="midnightblue" points="161.59,-36.89 170.08,-30.55 159.49,-30.21 161.59,-36.89"/>
</g>
<!-- Node3 -->
<g id="node3" class="node">
<title>Node3</title>
<g id="a_node3"><a xlink:href="classopp_1_1_travelling_salesman_problem.html#ad05c81f501fe5f191e0de39d3f8ad332" target="_top" xlink:title="Generates a move from the neighbourhood of a solution.">
<polygon fill="white" stroke="black" points="510,-120.5 510,-150.5 668,-150.5 668,-120.5 510,-120.5"/>
<text text-anchor="start" x="518" y="-138.5" font-family="Helvetica,sans-Serif" font-size="10.00">opp::TravellingSalesmanProblem</text>
<text text-anchor="middle" x="589" y="-127.5" font-family="Helvetica,sans-Serif" font-size="10.00">::generateMove</text>
</a>
</g>
</g>
<!-- Node2&#45;&gt;Node3 -->
<g id="edge2" class="edge">
<title>Node2&#45;&gt;Node3</title>
<path fill="none" stroke="midnightblue" d="M445.94,-107.38C463.07,-110.77 482.76,-114.67 501.92,-118.46"/>
<polygon fill="midnightblue" stroke="midnightblue" points="501.38,-121.92 511.87,-120.43 502.74,-115.06 501.38,-121.92"/>
</g>
<!-- Node4 -->
<g id="node4" class="node">
<title>Node4</title>
<g id="a_node4"><a xlink:href="classopp_1_1_travelling_salesman_problem.html#aa42a141024661ed6c2947358a785e982" target="_top" xlink:title="Applies a move to a solution.">
<polygon fill="white" stroke="black" points="510,-71.5 510,-101.5 668,-101.5 668,-71.5 510,-71.5"/>
<text text-anchor="start" x="518" y="-89.5" font-family="Helvetica,sans-Serif" font-size="10.00">opp::TravellingSalesmanProblem</text>
<text text-anchor="middle" x="589" y="-78.5" font-family="Helvetica,sans-Serif" font-size="10.00">::neighbour</text>
</a>
</g>
</g>
<!-- Node2&#45;&gt;Node4 -->
<g id="edge3" class="edge">
<title>Node2&#45;&gt;Node4</title>
<path fill="none" stroke="midnightblue" d="M445.94,-94.64C462.35,-93.7 481.11,-92.62 499.5,-91.57"/>
<polygon fill="midnightblue" stroke="midnightblue" points="499.88,-95.05 509.66,-90.99 499.47,-88.07 499.88,-95.05"/>
</g>
<!-- Node5&#45;&gt;Node2 -->
<g id="edge5" class="edge">
<title>Node5&#45;&gt;Node2</title>
<path fill="none" stroke="midnightblue" d="M280.37,-75.95C297.85,-79.26 316.91,-82.88 334.34,-86.19"/>
<polygon fill="midnightblue" stroke="midnightblue" points="333.92,-89.67 344.39,-88.09 335.22,-82.79 333.92,-89.67"/>
</g>
<!-- Node7 -->
<g id="node7" class="node">
<title>Node7</title>
<g id="a_node7"><a xlink:href="classopp_1_1_travelling_salesman_problem.html#a56af096a854db5ae5118445013332be5" target="_top" xlink:title="Generates a random solution to the problem.">
<polygon fill="white" stroke="black" points="316,-0.5 316,-30.5 474,-30.5 474,-0.5 316,-0.5"/>
<text text-anchor="start" x="324" y="-18.5" font-family="Helvetica,sans-Serif" font-size="10.00">opp::TravellingSalesmanProblem</text>
<text text-anchor="middle" x="395" y="-7.5" font-family="Helvetica,sans-Serif" font-size="10.00">::randomSolution</text>
</a>
</g>
</g>
<!-- Node6&#45;&gt;Node7 -->
<g id="edge7" class="edge">
<title>Node6&#45;&gt;Node7</title>
<path fill="none" stroke="midnightblue" d="M269.86,-15.5C281.08,-15.5 293.31,-15.5 305.59,-15.5"/>
<polygon fill="midnightblue" stroke="midnightblue" points="305.88,-19 315.88,-15.5 305.88,-12 305.88,-19"/>
</g>
<!-- Node8 -->
<g id="node8" class="node">
<title>Node8</title>
<g id="a_node8"><a xlink:href="classopp_1_1_travelling_salesman_problem.html#a4c5f4ebeff9e699b194ab4ced7c7c63e" target="_top" xlink:title="Calculates the cost of a solution.">
<polygon fill="white" stroke="black" points="510,-0.5 510,-30.5 668,-30.5 668,-0.5 510,-0.5"/>
<text text-anchor="start" x="518" y="-18.5" font-family="Helvetica,sans-Serif" font-size="10.00">opp::TravellingSalesmanProblem</text>
<text text-anchor="middle" x="589" y="-7.5" font-family="Helvetica,sans-Serif" font-size="10.00">::cost</text>
</a>
</g>
</g>
<!-- Node7&#45;&gt;Node8 -->
<g id="edge8" class="edge">
<title>Node7&#45;&gt;Node8</title>
<path fill="none" stroke="midnightblue" d="M474.09,-15.5C482.6,-15.5 491.3,-15.5 499.92,-15.5"/>
<polygon fill="midnightblue" stroke="midnightblue" points="499.98,-19 509.98,-15.5 499.98,-12 499.98,-19"/>
</g>
</g>
</svg>
