<?xml version="1.0" encoding="UTF-8" standalone="no"?>
<!DOCTYPE svg PUBLIC "-//W3C//DTD SVG 1.1//EN"
 "http://www.w3.org/Graphics/SVG/1.1/DTD/svg11.dtd">
<!-- Generated by graphviz version 2.50.0 (20211204.2007)
 -->
<!-- Title: mh::Metaheuristic Pages: 1 -->
<svg width="504pt" height="325pt"
 viewBox="0.00 0.00 503.50 325.00" xmlns="http://www.w3.org/2000/svg" xmlns:xlink="http://www.w3.org/1999/xlink">
<g id="graph0" class="graph" transform="scale(1 1) rotate(0) translate(4 321)">
<title>mh::Metaheuristic</title>
<polygon fill="white" stroke="transparent" points="-4,4 -4,-321 499.5,-321 499.5,4 -4,4"/>
<!-- Node1 -->
<g id="node1" class="node">
<title>Node1</title>
<g id="a_node1"><a xlink:title="Represents a metaheuristic used to solve a problem.">
<polygon fill="#bfbfbf" stroke="black" points="209.5,-160.5 209.5,-316.5 307.5,-316.5 307.5,-160.5 209.5,-160.5"/>
<text text-anchor="middle" x="258.5" y="-304.5" font-family="Helvetica,sans-Serif" font-size="10.00">mh::Metaheuristic</text>
<polyline fill="none" stroke="black" points="209.5,-297.5 307.5,-297.5 "/>
<text text-anchor="start" x="217.5" y="-285.5" font-family="Helvetica,sans-Serif" font-size="10.00">&#45; tsp</text>
<polyline fill="none" stroke="black" points="209.5,-278.5 307.5,-278.5 "/>
<text text-anchor="start" x="217.5" y="-266.5" font-family="Helvetica,sans-Serif" font-size="10.00">+ Metaheuristic()</text>
<text text-anchor="start" x="217.5" y="-255.5" font-family="Helvetica,sans-Serif" font-size="10.00">+ operator=()</text>
<text text-anchor="start" x="217.5" y="-244.5" font-family="Helvetica,sans-Serif" font-size="10.00">+ ~Metaheuristic()</text>
<text text-anchor="start" x="217.5" y="-233.5" font-family="Helvetica,sans-Serif" font-size="10.00">+ findOptimal()</text>
<text text-anchor="start" x="217.5" y="-222.5" font-family="Helvetica,sans-Serif" font-size="10.00"># Metaheuristic()</text>
<text text-anchor="start" x="217.5" y="-211.5" font-family="Helvetica,sans-Serif" font-size="10.00"># generateMove()</text>
<text text-anchor="start" x="217.5" y="-200.5" font-family="Helvetica,sans-Serif" font-size="10.00"># neighbour()</text>
<text text-anchor="start" x="217.5" y="-189.5" font-family="Helvetica,sans-Serif" font-size="10.00"># neighbour()</text>
<text text-anchor="start" x="217.5" y="-178.5" font-family="Helvetica,sans-Serif" font-size="10.00"># randomSolution()</text>
<text text-anchor="start" x="217.5" y="-167.5" font-family="Helvetica,sans-Serif" font-size="10.00"># crossover()</text>
</a>
</g>
</g>
<!-- Node2 -->
<g id="node2" class="node">
<title>Node2</title>
<g id="a_node2"><a xlink:href="classmh_1_1_genetic_algorithm.html" target="_top" xlink:title="Represents the use of the Genetic Algorithm to solve a problem.">
<polygon fill="white" stroke="black" points="0,-11.5 0,-112.5 111,-112.5 111,-11.5 0,-11.5"/>
<text text-anchor="middle" x="55.5" y="-100.5" font-family="Helvetica,sans-Serif" font-size="10.00">mh::GeneticAlgorithm</text>
<polyline fill="none" stroke="black" points="0,-93.5 111,-93.5 "/>
<text text-anchor="start" x="8" y="-81.5" font-family="Helvetica,sans-Serif" font-size="10.00">&#45; genMax</text>
<text text-anchor="start" x="8" y="-70.5" font-family="Helvetica,sans-Serif" font-size="10.00">&#45; szp</text>
<polyline fill="none" stroke="black" points="0,-63.5 111,-63.5 "/>
<text text-anchor="start" x="8" y="-51.5" font-family="Helvetica,sans-Serif" font-size="10.00">+ GeneticAlgorithm()</text>
<text text-anchor="start" x="8" y="-40.5" font-family="Helvetica,sans-Serif" font-size="10.00">+ operator=()</text>
<text text-anchor="start" x="8" y="-29.5" font-family="Helvetica,sans-Serif" font-size="10.00">+ GeneticAlgorithm()</text>
<text text-anchor="start" x="8" y="-18.5" font-family="Helvetica,sans-Serif" font-size="10.00">+ findOptimal()</text>
</a>
</g>
</g>
<!-- Node1&#45;&gt;Node2 -->
<g id="edge1" class="edge">
<title>Node1&#45;&gt;Node2</title>
<path fill="none" stroke="midnightblue" d="M201.33,-191.87C176.22,-171.48 146.57,-146.91 120.5,-124 116.32,-120.32 112.02,-116.47 107.73,-112.57"/>
<polygon fill="none" stroke="midnightblue" points="199.34,-194.77 209.31,-198.34 203.75,-189.33 199.34,-194.77"/>
</g>
<!-- Node3 -->
<g id="node3" class="node">
<title>Node3</title>
<g id="a_node3"><a xlink:href="classmh_1_1_iterated_local_search.html" target="_top" xlink:title="Represents the use of Iterated Local Search to solve a problem.">
<polygon fill="white" stroke="black" points="129.5,-0.5 129.5,-123.5 251.5,-123.5 251.5,-0.5 129.5,-0.5"/>
<text text-anchor="middle" x="190.5" y="-111.5" font-family="Helvetica,sans-Serif" font-size="10.00">mh::IteratedLocalSearch</text>
<polyline fill="none" stroke="black" points="129.5,-104.5 251.5,-104.5 "/>
<text text-anchor="start" x="137.5" y="-92.5" font-family="Helvetica,sans-Serif" font-size="10.00">&#45; prtMax</text>
<text text-anchor="start" x="137.5" y="-81.5" font-family="Helvetica,sans-Serif" font-size="10.00">&#45; rstMax</text>
<text text-anchor="start" x="137.5" y="-70.5" font-family="Helvetica,sans-Serif" font-size="10.00">&#45; lclMax</text>
<polyline fill="none" stroke="black" points="129.5,-63.5 251.5,-63.5 "/>
<text text-anchor="start" x="137.5" y="-51.5" font-family="Helvetica,sans-Serif" font-size="10.00">+ IteratedLocalSearch()</text>
<text text-anchor="start" x="137.5" y="-40.5" font-family="Helvetica,sans-Serif" font-size="10.00">+ operator=()</text>
<text text-anchor="start" x="137.5" y="-29.5" font-family="Helvetica,sans-Serif" font-size="10.00">+ IteratedLocalSearch()</text>
<text text-anchor="start" x="137.5" y="-18.5" font-family="Helvetica,sans-Serif" font-size="10.00">+ perturb()</text>
<text text-anchor="start" x="137.5" y="-7.5" font-family="Helvetica,sans-Serif" font-size="10.00">+ findOptimal()</text>
</a>
</g>
</g>
<!-- Node1&#45;&gt;Node3 -->
<g id="edge2" class="edge">
<title>Node1&#45;&gt;Node3</title>
<path fill="none" stroke="midnightblue" d="M224.75,-150.88C221.16,-141.68 217.57,-132.47 214.14,-123.65"/>
<polygon fill="none" stroke="midnightblue" points="221.58,-152.41 228.48,-160.45 228.11,-149.87 221.58,-152.41"/>
</g>
<!-- Node4 -->
<g id="node4" class="node">
<title>Node4</title>
<g id="a_node4"><a xlink:href="classmh_1_1_memetic_algorithm.html" target="_top" xlink:title="Represents the use of the Memetic Algorithm to solve a problem.">
<polygon fill="white" stroke="black" points="270,-0.5 270,-123.5 385,-123.5 385,-0.5 270,-0.5"/>
<text text-anchor="middle" x="327.5" y="-111.5" font-family="Helvetica,sans-Serif" font-size="10.00">mh::MemeticAlgorithm</text>
<polyline fill="none" stroke="black" points="270,-104.5 385,-104.5 "/>
<text text-anchor="start" x="278" y="-92.5" font-family="Helvetica,sans-Serif" font-size="10.00">&#45; lclMax</text>
<text text-anchor="start" x="278" y="-81.5" font-family="Helvetica,sans-Serif" font-size="10.00">&#45; genMax</text>
<text text-anchor="start" x="278" y="-70.5" font-family="Helvetica,sans-Serif" font-size="10.00">&#45; szp</text>
<polyline fill="none" stroke="black" points="270,-63.5 385,-63.5 "/>
<text text-anchor="start" x="278" y="-51.5" font-family="Helvetica,sans-Serif" font-size="10.00">+ MemeticAlgorithm()</text>
<text text-anchor="start" x="278" y="-40.5" font-family="Helvetica,sans-Serif" font-size="10.00">+ operator=()</text>
<text text-anchor="start" x="278" y="-29.5" font-family="Helvetica,sans-Serif" font-size="10.00">+ MemeticAlgorithm()</text>
<text text-anchor="start" x="278" y="-18.5" font-family="Helvetica,sans-Serif" font-size="10.00">+ localSearch()</text>
<text text-anchor="start" x="278" y="-7.5" font-family="Helvetica,sans-Serif" font-size="10.00">+ findOptimal()</text>
</a>
</g>
</g>
<!-- Node1&#45;&gt;Node4 -->
<g id="edge3" class="edge">
<title>Node1&#45;&gt;Node4</title>
<path fill="none" stroke="midnightblue" d="M292.75,-150.88C296.39,-141.68 300.03,-132.47 303.52,-123.65"/>
<polygon fill="none" stroke="midnightblue" points="289.39,-149.87 288.97,-160.45 295.9,-152.44 289.39,-149.87"/>
</g>
<!-- Node5 -->
<g id="node5" class="node">
<title>Node5</title>
<g id="a_node5"><a xlink:href="classmh_1_1_tabu_search.html" target="_top" xlink:title="Represents the use of Tabu Search to solve a problem.">
<polygon fill="white" stroke="black" points="403.5,-0.5 403.5,-123.5 495.5,-123.5 495.5,-0.5 403.5,-0.5"/>
<text text-anchor="middle" x="449.5" y="-111.5" font-family="Helvetica,sans-Serif" font-size="10.00">mh::TabuSearch</text>
<polyline fill="none" stroke="black" points="403.5,-104.5 495.5,-104.5 "/>
<text text-anchor="start" x="411.5" y="-92.5" font-family="Helvetica,sans-Serif" font-size="10.00">&#45; lclMax</text>
<text text-anchor="start" x="411.5" y="-81.5" font-family="Helvetica,sans-Serif" font-size="10.00">&#45; nbrMax</text>
<text text-anchor="start" x="411.5" y="-70.5" font-family="Helvetica,sans-Serif" font-size="10.00">&#45; tabuMax</text>
<polyline fill="none" stroke="black" points="403.5,-63.5 495.5,-63.5 "/>
<text text-anchor="start" x="411.5" y="-51.5" font-family="Helvetica,sans-Serif" font-size="10.00">+ TabuSearch()</text>
<text text-anchor="start" x="411.5" y="-40.5" font-family="Helvetica,sans-Serif" font-size="10.00">+ operator=()</text>
<text text-anchor="start" x="411.5" y="-29.5" font-family="Helvetica,sans-Serif" font-size="10.00">+ TabuSearch()</text>
<text text-anchor="start" x="411.5" y="-18.5" font-family="Helvetica,sans-Serif" font-size="10.00">+ generateMove()</text>
<text text-anchor="start" x="411.5" y="-7.5" font-family="Helvetica,sans-Serif" font-size="10.00">+ findOptimal()</text>
</a>
</g>
</g>
<!-- Node1&#45;&gt;Node5 -->
<g id="edge4" class="edge">
<title>Node1&#45;&gt;Node5</title>
<path fill="none" stroke="midnightblue" d="M315.7,-192.78C340.61,-172.55 369.71,-147.86 394.5,-124 397.48,-121.13 400.49,-118.13 403.49,-115.06"/>
<polygon fill="none" stroke="midnightblue" points="313.35,-190.18 307.77,-199.18 317.75,-195.62 313.35,-190.18"/>
</g>
</g>
</svg>
