<?xml version="1.0" encoding="UTF-8" standalone="no"?>
<!DOCTYPE svg PUBLIC "-//W3C//DTD SVG 1.1//EN"
 "http://www.w3.org/Graphics/SVG/1.1/DTD/svg11.dtd">
<!-- Generated by graphviz version 2.50.0 (20211204.2007)
 -->
<!-- Title: gui::Button Pages: 1 -->
<svg width="570pt" height="292pt"
 viewBox="0.00 0.00 570.00 292.00" xmlns="http://www.w3.org/2000/svg" xmlns:xlink="http://www.w3.org/1999/xlink">
<g id="graph0" class="graph" transform="scale(1 1) rotate(0) translate(4 288)">
<title>gui::Button</title>
<polygon fill="white" stroke="transparent" points="-4,4 -4,-288 566,-288 566,4 -4,4"/>
<!-- Node1 -->
<g id="node1" class="node">
<title>Node1</title>
<g id="a_node1"><a xlink:title="Object that is used to create buttons to display and click on, so that the user may navigate and use ...">
<polygon fill="#bfbfbf" stroke="black" points="267,-0.5 267,-123.5 351,-123.5 351,-0.5 267,-0.5"/>
<text text-anchor="middle" x="309" y="-111.5" font-family="Helvetica,sans-Serif" font-size="10.00">gui::Button</text>
<polyline fill="none" stroke="black" points="267,-104.5 351,-104.5 "/>
<text text-anchor="middle" x="309" y="-92.5" font-family="Helvetica,sans-Serif" font-size="10.00"> </text>
<polyline fill="none" stroke="black" points="267,-85.5 351,-85.5 "/>
<text text-anchor="start" x="275" y="-73.5" font-family="Helvetica,sans-Serif" font-size="10.00">+ Button()</text>
<text text-anchor="start" x="275" y="-62.5" font-family="Helvetica,sans-Serif" font-size="10.00">+ operator=()</text>
<text text-anchor="start" x="275" y="-51.5" font-family="Helvetica,sans-Serif" font-size="10.00">+ Button()</text>
<text text-anchor="start" x="275" y="-40.5" font-family="Helvetica,sans-Serif" font-size="10.00">+ isSelected()</text>
<text text-anchor="start" x="275" y="-29.5" font-family="Helvetica,sans-Serif" font-size="10.00">+ handleEvent()</text>
<text text-anchor="start" x="275" y="-18.5" font-family="Helvetica,sans-Serif" font-size="10.00">+ update()</text>
<text text-anchor="start" x="275" y="-7.5" font-family="Helvetica,sans-Serif" font-size="10.00">+ render()</text>
</a>
</g>
</g>
<!-- Node2 -->
<g id="node2" class="node">
<title>Node2</title>
<g id="a_node2"><a xlink:href="classgui_1_1_gui_component.html" target="_top" xlink:title="The object that is a base class for all GUI components.">
<polygon fill="white" stroke="black" points="0,-182.5 0,-283.5 102,-283.5 102,-182.5 0,-182.5"/>
<text text-anchor="middle" x="51" y="-271.5" font-family="Helvetica,sans-Serif" font-size="10.00">gui::GuiComponent</text>
<polyline fill="none" stroke="black" points="0,-264.5 102,-264.5 "/>
<text text-anchor="middle" x="51" y="-252.5" font-family="Helvetica,sans-Serif" font-size="10.00"> </text>
<polyline fill="none" stroke="black" points="0,-245.5 102,-245.5 "/>
<text text-anchor="start" x="8" y="-233.5" font-family="Helvetica,sans-Serif" font-size="10.00">+ ~GuiComponent()</text>
<text text-anchor="start" x="8" y="-222.5" font-family="Helvetica,sans-Serif" font-size="10.00">+ isSelected()</text>
<text text-anchor="start" x="8" y="-211.5" font-family="Helvetica,sans-Serif" font-size="10.00">+ handleEvent()</text>
<text text-anchor="start" x="8" y="-200.5" font-family="Helvetica,sans-Serif" font-size="10.00">+ update()</text>
<text text-anchor="start" x="8" y="-189.5" font-family="Helvetica,sans-Serif" font-size="10.00">+ render()</text>
</a>
</g>
</g>
<!-- Node2&#45;&gt;Node1 -->
<g id="edge1" class="edge">
<title>Node2&#45;&gt;Node1</title>
<path fill="none" stroke="midnightblue" d="M110.46,-182.38C110.64,-182.26 110.82,-182.13 111,-182 162.65,-145.29 225.97,-108.56 266.87,-85.82"/>
<polygon fill="none" stroke="midnightblue" points="108.29,-179.64 102.31,-188.39 112.44,-185.28 108.29,-179.64"/>
</g>
<!-- Node3 -->
<g id="node3" class="node">
<title>Node3</title>
<g id="a_node3"><a xlink:title=" ">
<polygon fill="white" stroke="#bfbfbf" points="120,-204.5 120,-261.5 208,-261.5 208,-204.5 120,-204.5"/>
<text text-anchor="middle" x="164" y="-249.5" font-family="Helvetica,sans-Serif" font-size="10.00">function&lt; void()&gt;</text>
<polyline fill="none" stroke="#bfbfbf" points="120,-242.5 208,-242.5 "/>
<text text-anchor="middle" x="164" y="-230.5" font-family="Helvetica,sans-Serif" font-size="10.00"> </text>
<polyline fill="none" stroke="#bfbfbf" points="120,-223.5 208,-223.5 "/>
<text text-anchor="middle" x="164" y="-211.5" font-family="Helvetica,sans-Serif" font-size="10.00"> </text>
</a>
</g>
</g>
<!-- Node3&#45;&gt;Node1 -->
<g id="edge2" class="edge">
<title>Node3&#45;&gt;Node1</title>
<path fill="none" stroke="#404040" d="M187.62,-204.47C206.87,-182.03 234.73,-149.57 258.9,-121.39"/>
<polygon fill="none" stroke="#404040" points="259.12,-121.13 259.99,-113.97 266.94,-112.02 266.07,-119.18 259.12,-121.13"/>
<text text-anchor="middle" x="257.5" y="-150.5" font-family="Helvetica,sans-Serif" font-size="10.00"> &#45;action</text>
</g>
<!-- Node4 -->
<g id="node4" class="node">
<title>Node4</title>
<g id="a_node4"><a xlink:title=" ">
<polygon fill="white" stroke="#bfbfbf" points="226.5,-199 226.5,-267 391.5,-267 391.5,-199 226.5,-199"/>
<text text-anchor="start" x="234.5" y="-255" font-family="Helvetica,sans-Serif" font-size="10.00">unique_ptr&lt; SDL_Texture,</text>
<text text-anchor="middle" x="309" y="-244" font-family="Helvetica,sans-Serif" font-size="10.00"> decltype(&amp;SDL_DestroyTexture)&gt;</text>
<polyline fill="none" stroke="#bfbfbf" points="226.5,-237 391.5,-237 "/>
<text text-anchor="middle" x="309" y="-225" font-family="Helvetica,sans-Serif" font-size="10.00"> </text>
<polyline fill="none" stroke="#bfbfbf" points="226.5,-218 391.5,-218 "/>
<text text-anchor="middle" x="309" y="-206" font-family="Helvetica,sans-Serif" font-size="10.00"> </text>
</a>
</g>
</g>
<!-- Node4&#45;&gt;Node1 -->
<g id="edge3" class="edge">
<title>Node4&#45;&gt;Node1</title>
<path fill="none" stroke="#404040" d="M309,-198.61C309,-180.59 309,-157.61 309,-135.7"/>
<polygon fill="none" stroke="#404040" points="309,-135.68 305,-129.68 309,-123.68 313,-129.68 309,-135.68"/>
<text text-anchor="middle" x="320.5" y="-156" font-family="Helvetica,sans-Serif" font-size="10.00"> &#45;text</text>
<text text-anchor="middle" x="320.5" y="-145" font-family="Helvetica,sans-Serif" font-size="10.00">&#45;box</text>
</g>
<!-- Node5 -->
<g id="node5" class="node">
<title>Node5</title>
<g id="a_node5"><a xlink:title=" ">
<polygon fill="white" stroke="#bfbfbf" points="409.5,-204.5 409.5,-261.5 470.5,-261.5 470.5,-204.5 409.5,-204.5"/>
<text text-anchor="middle" x="440" y="-249.5" font-family="Helvetica,sans-Serif" font-size="10.00">SDL_Rect</text>
<polyline fill="none" stroke="#bfbfbf" points="409.5,-242.5 470.5,-242.5 "/>
<text text-anchor="middle" x="440" y="-230.5" font-family="Helvetica,sans-Serif" font-size="10.00"> </text>
<polyline fill="none" stroke="#bfbfbf" points="409.5,-223.5 470.5,-223.5 "/>
<text text-anchor="middle" x="440" y="-211.5" font-family="Helvetica,sans-Serif" font-size="10.00"> </text>
</a>
</g>
</g>
<!-- Node5&#45;&gt;Node1 -->
<g id="edge4" class="edge">
<title>Node5&#45;&gt;Node1</title>
<path fill="none" stroke="#404040" d="M418.66,-204.47C402.45,-183.56 379.49,-153.94 358.77,-127.2"/>
<polygon fill="none" stroke="#404040" points="358.6,-126.99 351.76,-124.7 351.25,-117.51 358.09,-119.8 358.6,-126.99"/>
<text text-anchor="middle" x="431.5" y="-156" font-family="Helvetica,sans-Serif" font-size="10.00"> &#45;centreBoundingBox</text>
<text text-anchor="middle" x="431.5" y="-145" font-family="Helvetica,sans-Serif" font-size="10.00">&#45;boundingBox</text>
</g>
<!-- Node6 -->
<g id="node6" class="node">
<title>Node6</title>
<g id="a_node6"><a xlink:title=" ">
<polygon fill="white" stroke="#bfbfbf" points="508,-204.5 508,-261.5 562,-261.5 562,-204.5 508,-204.5"/>
<text text-anchor="middle" x="535" y="-249.5" font-family="Helvetica,sans-Serif" font-size="10.00">const int</text>
<polyline fill="none" stroke="#bfbfbf" points="508,-242.5 562,-242.5 "/>
<text text-anchor="middle" x="535" y="-230.5" font-family="Helvetica,sans-Serif" font-size="10.00"> </text>
<polyline fill="none" stroke="#bfbfbf" points="508,-223.5 562,-223.5 "/>
<text text-anchor="middle" x="535" y="-211.5" font-family="Helvetica,sans-Serif" font-size="10.00"> </text>
</a>
</g>
</g>
<!-- Node6&#45;&gt;Node1 -->
<g id="edge5" class="edge">
<title>Node6&#45;&gt;Node1</title>
<path fill="none" stroke="#404040" d="M523.68,-204.21C514.58,-184.7 500.14,-159.14 481,-142 446.99,-111.53 399.22,-90.86 362.65,-78.33"/>
<polygon fill="none" stroke="#404040" points="362.6,-78.32 355.65,-80.23 351.21,-74.55 358.16,-72.64 362.6,-78.32"/>
<text text-anchor="middle" x="505.5" y="-156" font-family="Helvetica,sans-Serif" font-size="10.00"> &#45;w</text>
<text text-anchor="middle" x="505.5" y="-145" font-family="Helvetica,sans-Serif" font-size="10.00">&#45;h</text>
</g>
</g>
</svg>
