<?xml version="1.0" encoding="UTF-8" standalone="no"?>
<!DOCTYPE svg PUBLIC "-//W3C//DTD SVG 1.1//EN"
 "http://www.w3.org/Graphics/SVG/1.1/DTD/svg11.dtd">
<!-- Generated by graphviz version 2.50.0 (20211204.2007)
 -->
<!-- Title: mh::IteratedLocalSearch::perturb Pages: 1 -->
<svg width="461pt" height="88pt"
 viewBox="0.00 0.00 461.00 88.00" xmlns="http://www.w3.org/2000/svg" xmlns:xlink="http://www.w3.org/1999/xlink">
<g id="graph0" class="graph" transform="scale(1 1) rotate(0) translate(4 84)">
<title>mh::IteratedLocalSearch::perturb</title>
<polygon fill="white" stroke="transparent" points="-4,4 -4,-84 457,-84 457,4 -4,4"/>
<!-- Node1 -->
<g id="node1" class="node">
<title>Node1</title>
<g id="a_node1"><a xlink:title="Perturbs the solution to escape a local optima.">
<polygon fill="#bfbfbf" stroke="black" points="0,-24.5 0,-54.5 122,-54.5 122,-24.5 0,-24.5"/>
<text text-anchor="start" x="8" y="-42.5" font-family="Helvetica,sans-Serif" font-size="10.00">mh::IteratedLocalSearch</text>
<text text-anchor="middle" x="61" y="-31.5" font-family="Helvetica,sans-Serif" font-size="10.00">::perturb</text>
</a>
</g>
</g>
<!-- Node2 -->
<g id="node2" class="node">
<title>Node2</title>
<g id="a_node2"><a xlink:href="classmh_1_1_metaheuristic.html#a17ee0cbdd097192f6a205c57133a5717" target="_top" xlink:title="Applies a move to a solution.">
<polygon fill="white" stroke="black" points="158,-24.5 158,-54.5 259,-54.5 259,-24.5 158,-24.5"/>
<text text-anchor="start" x="166" y="-42.5" font-family="Helvetica,sans-Serif" font-size="10.00">mh::Metaheuristic::</text>
<text text-anchor="middle" x="208.5" y="-31.5" font-family="Helvetica,sans-Serif" font-size="10.00">neighbour</text>
</a>
</g>
</g>
<!-- Node1&#45;&gt;Node2 -->
<g id="edge1" class="edge">
<title>Node1&#45;&gt;Node2</title>
<path fill="none" stroke="midnightblue" d="M122.02,-39.5C130.48,-39.5 139.18,-39.5 147.63,-39.5"/>
<polygon fill="midnightblue" stroke="midnightblue" points="147.8,-43 157.8,-39.5 147.8,-36 147.8,-43"/>
</g>
<!-- Node3 -->
<g id="node3" class="node">
<title>Node3</title>
<g id="a_node3"><a xlink:href="classopp_1_1_travelling_salesman_problem.html#ad05c81f501fe5f191e0de39d3f8ad332" target="_top" xlink:title="Generates a move from the neighbourhood of a solution.">
<polygon fill="white" stroke="black" points="295,-49.5 295,-79.5 453,-79.5 453,-49.5 295,-49.5"/>
<text text-anchor="start" x="303" y="-67.5" font-family="Helvetica,sans-Serif" font-size="10.00">opp::TravellingSalesmanProblem</text>
<text text-anchor="middle" x="374" y="-56.5" font-family="Helvetica,sans-Serif" font-size="10.00">::generateMove</text>
</a>
</g>
</g>
<!-- Node2&#45;&gt;Node3 -->
<g id="edge2" class="edge">
<title>Node2&#45;&gt;Node3</title>
<path fill="none" stroke="midnightblue" d="M259.44,-47.14C267.48,-48.36 275.99,-49.67 284.61,-50.98"/>
<polygon fill="midnightblue" stroke="midnightblue" points="284.33,-54.48 294.75,-52.53 285.39,-47.56 284.33,-54.48"/>
</g>
<!-- Node4 -->
<g id="node4" class="node">
<title>Node4</title>
<g id="a_node4"><a xlink:href="classopp_1_1_travelling_salesman_problem.html#aa42a141024661ed6c2947358a785e982" target="_top" xlink:title="Applies a move to a solution.">
<polygon fill="white" stroke="black" points="295,-0.5 295,-30.5 453,-30.5 453,-0.5 295,-0.5"/>
<text text-anchor="start" x="303" y="-18.5" font-family="Helvetica,sans-Serif" font-size="10.00">opp::TravellingSalesmanProblem</text>
<text text-anchor="middle" x="374" y="-7.5" font-family="Helvetica,sans-Serif" font-size="10.00">::neighbour</text>
</a>
</g>
</g>
<!-- Node2&#45;&gt;Node4 -->
<g id="edge3" class="edge">
<title>Node2&#45;&gt;Node4</title>
<path fill="none" stroke="midnightblue" d="M259.44,-32.17C267.48,-30.99 275.99,-29.74 284.61,-28.47"/>
<polygon fill="midnightblue" stroke="midnightblue" points="285.36,-31.9 294.75,-26.99 284.35,-24.98 285.36,-31.9"/>
</g>
</g>
</svg>
