<?xml version="1.0" encoding="UTF-8" standalone="no"?>
<!DOCTYPE svg PUBLIC "-//W3C//DTD SVG 1.1//EN"
 "http://www.w3.org/Graphics/SVG/1.1/DTD/svg11.dtd">
<!-- Generated by graphviz version 2.50.0 (20211204.2007)
 -->
<!-- Title: mh::TabuSearch::findOptimal Pages: 1 -->
<!--zoomable 176 -->
<svg id="main" version="1.1" xmlns="http://www.w3.org/2000/svg" xmlns:xlink="http://www.w3.org/1999/xlink" xml:space="preserve" onload="init(evt)">
<style type="text/css"><![CDATA[
.edge:hover path { stroke: red; }
.edge:hover polygon { stroke: red; fill: red; }
]]></style>
<script type="text/javascript"><![CDATA[
var edges = document.getElementsByTagName('g');
if (edges && edges.length) {
  for (var i=0;i<edges.length;i++) {
    if (edges[i].id.substr(0,4)=='edge') {
      edges[i].setAttribute('class','edge');
    }
  }
}
]]></script>
        <defs>
                <circle id="rim" cx="0" cy="0" r="7"/>
                <circle id="rim2" cx="0" cy="0" r="3.5"/>
                <g id="zoomPlus">
                        <use xlink:href="#rim" fill="#404040">
                                <set attributeName="fill" to="#808080" begin="zoomplus.mouseover" end="zoomplus.mouseout"/>
                        </use>
                        <path d="M-4,0h8M0,-4v8" fill="none" stroke="white" stroke-width="1.5" pointer-events="none"/>
                </g>
                <g id="zoomMin">
                        <use xlink:href="#rim" fill="#404040">
                                <set attributeName="fill" to="#808080" begin="zoomminus.mouseover" end="zoomminus.mouseout"/>
                        </use>
                        <path d="M-4,0h8" fill="none" stroke="white" stroke-width="1.5" pointer-events="none"/>
                </g>
                <g id="dirArrow">
                        <path fill="none" stroke="white" stroke-width="1.5" d="M0,-3.0v7 M-2.5,-0.5L0,-3.0L2.5,-0.5"/>
                </g>
               <g id="resetDef">
                       <use xlink:href="#rim2" fill="#404040">
                               <set attributeName="fill" to="#808080" begin="reset.mouseover" end="reset.mouseout"/>
                       </use>
               </g>
        </defs>

<script type="text/javascript">
var viewWidth = 729;
var viewHeight = 176;
var sectionId = 'dynsection-2';
</script>
<script xlink:href="svgpan.js"/>
<svg id="graph" class="graph">
<g id="viewport">
<title>mh::TabuSearch::findOptimal</title>
<polygon fill="white" stroke="transparent" points="-4,4 -4,-172 725,-172 725,4 -4,4"/>
<!-- Node1 -->
<g id="node1" class="node">
<title>Node1</title>
<g id="a_node1"><a xlink:title="Finds a near optimal solution to the problem using Tabu Search.">
<polygon fill="#bfbfbf" stroke="black" points="0,-88 0,-107 143,-107 143,-88 0,-88"/>
<text text-anchor="middle" x="71.5" y="-95" font-family="Helvetica,sans-Serif" font-size="10.00">mh::TabuSearch::findOptimal</text>
</a>
</g>
</g>
<!-- Node2 -->
<g id="node2" class="node">
<title>Node2</title>
<g id="a_node2"><a xlink:href="classmh_1_1_tabu_search.html#a191afd82e629142b3b0ae41c8e635244" target="_top" xlink:title="Generates a move from the neighbourhood of a solution, that is not tabu.">
<polygon fill="white" stroke="black" points="179,-137 179,-156 333,-156 333,-137 179,-137"/>
<text text-anchor="middle" x="256" y="-144" font-family="Helvetica,sans-Serif" font-size="10.00">mh::TabuSearch::generateMove</text>
</a>
</g>
</g>
<!-- Node1&#45;&gt;Node2 -->
<g id="edge1" class="edge">
<title>Node1&#45;&gt;Node2</title>
<path fill="none" stroke="midnightblue" d="M108.12,-107.06C137.14,-114.85 178.29,-125.9 209.66,-134.33"/>
<polygon fill="midnightblue" stroke="midnightblue" points="208.9,-137.75 219.47,-136.96 210.72,-130.99 208.9,-137.75"/>
</g>
<!-- Node5 -->
<g id="node5" class="node">
<title>Node5</title>
<g id="a_node5"><a xlink:href="classmh_1_1_metaheuristic.html#a17ee0cbdd097192f6a205c57133a5717" target="_top" xlink:title="Applies a move to a solution.">
<polygon fill="white" stroke="black" points="205.5,-82.5 205.5,-112.5 306.5,-112.5 306.5,-82.5 205.5,-82.5"/>
<text text-anchor="start" x="213.5" y="-100.5" font-family="Helvetica,sans-Serif" font-size="10.00">mh::Metaheuristic::</text>
<text text-anchor="middle" x="256" y="-89.5" font-family="Helvetica,sans-Serif" font-size="10.00">neighbour</text>
</a>
</g>
</g>
<!-- Node1&#45;&gt;Node5 -->
<g id="edge4" class="edge">
<title>Node1&#45;&gt;Node5</title>
<path fill="none" stroke="midnightblue" d="M143.06,-97.5C160.25,-97.5 178.48,-97.5 195.13,-97.5"/>
<polygon fill="midnightblue" stroke="midnightblue" points="195.26,-101 205.26,-97.5 195.26,-94 195.26,-101"/>
</g>
<!-- Node7 -->
<g id="node7" class="node">
<title>Node7</title>
<g id="a_node7"><a xlink:href="classmh_1_1_metaheuristic.html#a587e655f724797038c8de993832f7caa" target="_top" xlink:title="Generates a random solution to the problem.">
<polygon fill="white" stroke="black" points="205.5,-22.5 205.5,-52.5 306.5,-52.5 306.5,-22.5 205.5,-22.5"/>
<text text-anchor="start" x="213.5" y="-40.5" font-family="Helvetica,sans-Serif" font-size="10.00">mh::Metaheuristic::</text>
<text text-anchor="middle" x="256" y="-29.5" font-family="Helvetica,sans-Serif" font-size="10.00">randomSolution</text>
</a>
</g>
</g>
<!-- Node1&#45;&gt;Node7 -->
<g id="edge7" class="edge">
<title>Node1&#45;&gt;Node7</title>
<path fill="none" stroke="midnightblue" d="M101.42,-87.99C127.65,-79.37 167.05,-66.42 199.37,-55.79"/>
<polygon fill="midnightblue" stroke="midnightblue" points="200.75,-59.02 209.15,-52.57 198.56,-52.37 200.75,-59.02"/>
</g>
<!-- Node3 -->
<g id="node3" class="node">
<title>Node3</title>
<g id="a_node3"><a xlink:href="classmh_1_1_metaheuristic.html#a5a36d1002279148d57f18449dfad3d08" target="_top" xlink:title="Generates a move from the neighbourhood of a solution.">
<polygon fill="white" stroke="black" points="397.5,-137.5 397.5,-167.5 498.5,-167.5 498.5,-137.5 397.5,-137.5"/>
<text text-anchor="start" x="405.5" y="-155.5" font-family="Helvetica,sans-Serif" font-size="10.00">mh::Metaheuristic::</text>
<text text-anchor="middle" x="448" y="-144.5" font-family="Helvetica,sans-Serif" font-size="10.00">generateMove</text>
</a>
</g>
</g>
<!-- Node2&#45;&gt;Node3 -->
<g id="edge2" class="edge">
<title>Node2&#45;&gt;Node3</title>
<path fill="none" stroke="midnightblue" d="M333.19,-148.91C351.05,-149.47 369.85,-150.06 386.9,-150.6"/>
<polygon fill="midnightblue" stroke="midnightblue" points="387.16,-154.11 397.27,-150.93 387.38,-147.12 387.16,-154.11"/>
</g>
<!-- Node4 -->
<g id="node4" class="node">
<title>Node4</title>
<g id="a_node4"><a xlink:href="classopp_1_1_travelling_salesman_problem.html#ad05c81f501fe5f191e0de39d3f8ad332" target="_top" xlink:title="Generates a move from the neighbourhood of a solution.">
<polygon fill="white" stroke="black" points="563,-115.5 563,-145.5 721,-145.5 721,-115.5 563,-115.5"/>
<text text-anchor="start" x="571" y="-133.5" font-family="Helvetica,sans-Serif" font-size="10.00">opp::TravellingSalesmanProblem</text>
<text text-anchor="middle" x="642" y="-122.5" font-family="Helvetica,sans-Serif" font-size="10.00">::generateMove</text>
</a>
</g>
</g>
<!-- Node3&#45;&gt;Node4 -->
<g id="edge3" class="edge">
<title>Node3&#45;&gt;Node4</title>
<path fill="none" stroke="midnightblue" d="M498.94,-146.78C515.35,-144.9 534.11,-142.75 552.5,-140.64"/>
<polygon fill="midnightblue" stroke="midnightblue" points="553.12,-144.09 562.66,-139.48 552.33,-137.14 553.12,-144.09"/>
</g>
<!-- Node5&#45;&gt;Node4 -->
<g id="edge5" class="edge">
<title>Node5&#45;&gt;Node4</title>
<path fill="none" stroke="midnightblue" d="M306.81,-101.78C368.96,-107.12 476.32,-116.35 552.58,-122.9"/>
<polygon fill="midnightblue" stroke="midnightblue" points="552.39,-126.4 562.66,-123.77 552.99,-119.42 552.39,-126.4"/>
</g>
<!-- Node6 -->
<g id="node6" class="node">
<title>Node6</title>
<g id="a_node6"><a xlink:href="classopp_1_1_travelling_salesman_problem.html#aa42a141024661ed6c2947358a785e982" target="_top" xlink:title="Applies a move to a solution.">
<polygon fill="white" stroke="black" points="369,-49.5 369,-79.5 527,-79.5 527,-49.5 369,-49.5"/>
<text text-anchor="start" x="377" y="-67.5" font-family="Helvetica,sans-Serif" font-size="10.00">opp::TravellingSalesmanProblem</text>
<text text-anchor="middle" x="448" y="-56.5" font-family="Helvetica,sans-Serif" font-size="10.00">::neighbour</text>
</a>
</g>
</g>
<!-- Node5&#45;&gt;Node6 -->
<g id="edge6" class="edge">
<title>Node5&#45;&gt;Node6</title>
<path fill="none" stroke="midnightblue" d="M306.92,-88.83C322.88,-86.06 341.04,-82.9 358.88,-79.8"/>
<polygon fill="midnightblue" stroke="midnightblue" points="359.49,-83.25 368.74,-78.09 358.29,-76.35 359.49,-83.25"/>
</g>
<!-- Node8 -->
<g id="node8" class="node">
<title>Node8</title>
<g id="a_node8"><a xlink:href="classopp_1_1_travelling_salesman_problem.html#a56af096a854db5ae5118445013332be5" target="_top" xlink:title="Generates a random solution to the problem.">
<polygon fill="white" stroke="black" points="369,-0.5 369,-30.5 527,-30.5 527,-0.5 369,-0.5"/>
<text text-anchor="start" x="377" y="-18.5" font-family="Helvetica,sans-Serif" font-size="10.00">opp::TravellingSalesmanProblem</text>
<text text-anchor="middle" x="448" y="-7.5" font-family="Helvetica,sans-Serif" font-size="10.00">::randomSolution</text>
</a>
</g>
</g>
<!-- Node7&#45;&gt;Node8 -->
<g id="edge8" class="edge">
<title>Node7&#45;&gt;Node8</title>
<path fill="none" stroke="midnightblue" d="M306.92,-31.72C322.73,-29.89 340.71,-27.81 358.39,-25.76"/>
<polygon fill="midnightblue" stroke="midnightblue" points="359.21,-29.19 368.74,-24.56 358.41,-22.23 359.21,-29.19"/>
</g>
<!-- Node9 -->
<g id="node9" class="node">
<title>Node9</title>
<g id="a_node9"><a xlink:href="classopp_1_1_travelling_salesman_problem.html#a4c5f4ebeff9e699b194ab4ced7c7c63e" target="_top" xlink:title="Calculates the cost of a solution.">
<polygon fill="white" stroke="black" points="563,-0.5 563,-30.5 721,-30.5 721,-0.5 563,-0.5"/>
<text text-anchor="start" x="571" y="-18.5" font-family="Helvetica,sans-Serif" font-size="10.00">opp::TravellingSalesmanProblem</text>
<text text-anchor="middle" x="642" y="-7.5" font-family="Helvetica,sans-Serif" font-size="10.00">::cost</text>
</a>
</g>
</g>
<!-- Node8&#45;&gt;Node9 -->
<g id="edge9" class="edge">
<title>Node8&#45;&gt;Node9</title>
<path fill="none" stroke="midnightblue" d="M527.09,-15.5C535.6,-15.5 544.3,-15.5 552.92,-15.5"/>
<polygon fill="midnightblue" stroke="midnightblue" points="552.98,-19 562.98,-15.5 552.98,-12 552.98,-19"/>
</g>
</g>
</svg>
        <g id="navigator" transform="translate(0 0)" fill="#404254">
                <rect fill="#f2f5e9" fill-opacity="0.5" stroke="#606060" stroke-width=".5" x="0" y="0" width="60" height="60"/>
                <use id="zoomplus" xlink:href="#zoomPlus" x="17" y="9" onmousedown="handleZoom(evt,'in')"/>
                <use id="zoomminus" xlink:href="#zoomMin" x="42" y="9" onmousedown="handleZoom(evt,'out')"/>
                <use id="reset" xlink:href="#resetDef" x="30" y="36" onmousedown="handleReset()"/>
                <g id="arrowUp" xlink:href="#dirArrow" transform="translate(30 24)" onmousedown="handlePan(0,-1)">
                  <use xlink:href="#rim" fill="#404040">
                        <set attributeName="fill" to="#808080" begin="arrowUp.mouseover" end="arrowUp.mouseout"/>
                  </use>
                  <path fill="none" stroke="white" stroke-width="1.5" d="M0,-3.0v7 M-2.5,-0.5L0,-3.0L2.5,-0.5"/>
                </g>
                <g id="arrowRight" xlink:href="#dirArrow" transform="rotate(90) translate(36 -43)" onmousedown="handlePan(1,0)">
                  <use xlink:href="#rim" fill="#404040">
                        <set attributeName="fill" to="#808080" begin="arrowRight.mouseover" end="arrowRight.mouseout"/>
                  </use>
                  <path fill="none" stroke="white" stroke-width="1.5" d="M0,-3.0v7 M-2.5,-0.5L0,-3.0L2.5,-0.5"/>
                </g>
                <g id="arrowDown" xlink:href="#dirArrow" transform="rotate(180) translate(-30 -48)" onmousedown="handlePan(0,1)">
                  <use xlink:href="#rim" fill="#404040">
                        <set attributeName="fill" to="#808080" begin="arrowDown.mouseover" end="arrowDown.mouseout"/>
                  </use>
                  <path fill="none" stroke="white" stroke-width="1.5" d="M0,-3.0v7 M-2.5,-0.5L0,-3.0L2.5,-0.5"/>
                </g>
                <g id="arrowLeft" xlink:href="#dirArrow" transform="rotate(270) translate(-36 17)" onmousedown="handlePan(-1,0)">
                  <use xlink:href="#rim" fill="#404040">
                        <set attributeName="fill" to="#808080" begin="arrowLeft.mouseover" end="arrowLeft.mouseout"/>
                  </use>
                  <path fill="none" stroke="white" stroke-width="1.5" d="M0,-3.0v7 M-2.5,-0.5L0,-3.0L2.5,-0.5"/>
                </g>
        </g>
        <svg viewBox="0 0 15 15" width="100%" height="30px" preserveAspectRatio="xMaxYMin meet">
         <g id="arrow_out" transform="scale(0.3 0.3)">
          <a xlink:href="classmh_1_1_tabu_search_a710549972412c1af94dccf32f51881b6_cgraph_org.svg" target="_base">
           <rect id="button" ry="5" rx="5" y="6" x="6" height="38" width="38"
                fill="#f2f5e9" fill-opacity="0.5" stroke="#606060" stroke-width="1.0"/>
           <path id="arrow"
             d="M 11.500037,31.436501 C 11.940474,20.09759 22.043105,11.32322 32.158766,21.979434 L 37.068811,17.246167 C 37.068811,17.246167 37.088388,32 37.088388,32 L 22.160133,31.978069 C 22.160133,31.978069 26.997745,27.140456 26.997745,27.140456 C 18.528582,18.264221 13.291696,25.230495 11.500037,31.436501 z"
             style="fill:#404040;"/>
          </a>
         </g>
        </svg>
</svg>
