<?xml version="1.0" encoding="UTF-8" standalone="no"?>
<!DOCTYPE svg PUBLIC "-//W3C//DTD SVG 1.1//EN"
 "http://www.w3.org/Graphics/SVG/1.1/DTD/svg11.dtd">
<!-- Generated by graphviz version 2.50.0 (20211204.2007)
 -->
<!-- Title: Logger::log Pages: 1 -->
<svg width="228pt" height="66pt"
 viewBox="0.00 0.00 228.00 66.00" xmlns="http://www.w3.org/2000/svg" xmlns:xlink="http://www.w3.org/1999/xlink">
<g id="graph0" class="graph" transform="scale(1 1) rotate(0) translate(4 62)">
<title>Logger::log</title>
<polygon fill="white" stroke="transparent" points="-4,4 -4,-62 224,-62 224,4 -4,4"/>
<!-- Node1 -->
<g id="node1" class="node">
<title>Node1</title>
<g id="a_node1"><a xlink:title="Logs the optimal solutions returned by metaheuristics.">
<polygon fill="#bfbfbf" stroke="black" points="155,-19.5 155,-38.5 220,-38.5 220,-19.5 155,-19.5"/>
<text text-anchor="middle" x="187.5" y="-26.5" font-family="Helvetica,sans-Serif" font-size="10.00">Logger::log</text>
</a>
</g>
</g>
<!-- Node2 -->
<g id="node2" class="node">
<title>Node2</title>
<g id="a_node2"><a xlink:href="class_logger.html#a9e396b5f528e2fd328eda38ad9f6bd39" target="_top" xlink:title="Benchmarks all metaheuristics and logs the results.">
<polygon fill="white" stroke="black" points="4,-38.5 4,-57.5 115,-57.5 115,-38.5 4,-38.5"/>
<text text-anchor="middle" x="59.5" y="-45.5" font-family="Helvetica,sans-Serif" font-size="10.00">Logger::benchmarkAll</text>
</a>
</g>
</g>
<!-- Node1&#45;&gt;Node2 -->
<g id="edge1" class="edge">
<title>Node1&#45;&gt;Node2</title>
<path fill="none" stroke="midnightblue" d="M144.8,-35.29C135.37,-36.71 125.21,-38.24 115.33,-39.73"/>
<polygon fill="midnightblue" stroke="midnightblue" points="145.34,-38.75 154.7,-33.79 144.29,-31.82 145.34,-38.75"/>
</g>
<!-- Node3 -->
<g id="node3" class="node">
<title>Node3</title>
<g id="a_node3"><a xlink:href="classgui_1_1_application.html#a051023103d00b96b1e5e7437fd8e2e7c" target="_top" xlink:title="Updates the current screen.">
<polygon fill="white" stroke="black" points="0,-0.5 0,-19.5 119,-19.5 119,-0.5 0,-0.5"/>
<text text-anchor="middle" x="59.5" y="-7.5" font-family="Helvetica,sans-Serif" font-size="10.00">gui::Application::update</text>
</a>
</g>
</g>
<!-- Node1&#45;&gt;Node3 -->
<g id="edge2" class="edge">
<title>Node1&#45;&gt;Node3</title>
<path fill="none" stroke="midnightblue" d="M144.71,-22.7C136.56,-21.47 127.87,-20.16 119.28,-18.86"/>
<polygon fill="midnightblue" stroke="midnightblue" points="144.29,-26.18 154.7,-24.21 145.34,-19.25 144.29,-26.18"/>
</g>
</g>
</svg>
