<?xml version="1.0" encoding="UTF-8" standalone="no"?>
<!DOCTYPE svg PUBLIC "-//W3C//DTD SVG 1.1//EN"
 "http://www.w3.org/Graphics/SVG/1.1/DTD/svg11.dtd">
<!-- Generated by graphviz version 2.50.0 (20211204.2007)
 -->
<!-- Title: mh::Metaheuristic Pages: 1 -->
<!--zoomable 325 -->
<svg id="main" version="1.1" xmlns="http://www.w3.org/2000/svg" xmlns:xlink="http://www.w3.org/1999/xlink" xml:space="preserve" onload="init(evt)">
<style type="text/css"><![CDATA[
.edge:hover path { stroke: red; }
.edge:hover polygon { stroke: red; fill: red; }
]]></style>
<script type="text/javascript"><![CDATA[
var edges = document.getElementsByTagName('g');
if (edges && edges.length) {
  for (var i=0;i<edges.length;i++) {
    if (edges[i].id.substr(0,4)=='edge') {
      edges[i].setAttribute('class','edge');
    }
  }
}
]]></script>
        <defs>
                <circle id="rim" cx="0" cy="0" r="7"/>
                <circle id="rim2" cx="0" cy="0" r="3.5"/>
                <g id="zoomPlus">
                        <use xlink:href="#rim" fill="#404040">
                                <set attributeName="fill" to="#808080" begin="zoomplus.mouseover" end="zoomplus.mouseout"/>
                        </use>
                        <path d="M-4,0h8M0,-4v8" fill="none" stroke="white" stroke-width="1.5" pointer-events="none"/>
                </g>
                <g id="zoomMin">
                        <use xlink:href="#rim" fill="#404040">
                                <set attributeName="fill" to="#808080" begin="zoomminus.mouseover" end="zoomminus.mouseout"/>
                        </use>
                        <path d="M-4,0h8" fill="none" stroke="white" stroke-width="1.5" pointer-events="none"/>
                </g>
                <g id="dirArrow">
                        <path fill="none" stroke="white" stroke-width="1.5" d="M0,-3.0v7 M-2.5,-0.5L0,-3.0L2.5,-0.5"/>
                </g>
               <g id="resetDef">
                       <use xlink:href="#rim2" fill="#404040">
                               <set attributeName="fill" to="#808080" begin="reset.mouseover" end="reset.mouseout"/>
                       </use>
               </g>
        </defs>

<script type="text/javascript">
var viewWidth = 504;
var viewHeight = 325;
var sectionId = 'dynsection-0';
</script>
<script xlink:href="svgpan.js"/>
<svg id="graph" class="graph">
<g id="viewport">
<title>mh::Metaheuristic</title>
<polygon fill="white" stroke="transparent" points="-4,4 -4,-321 499.5,-321 499.5,4 -4,4"/>
<!-- Node1 -->
<g id="node1" class="node">
<title>Node1</title>
<g id="a_node1"><a xlink:title="Represents a metaheuristic used to solve a problem.">
<polygon fill="#bfbfbf" stroke="black" points="209.5,-160.5 209.5,-316.5 307.5,-316.5 307.5,-160.5 209.5,-160.5"/>
<text text-anchor="middle" x="258.5" y="-304.5" font-family="Helvetica,sans-Serif" font-size="10.00">mh::Metaheuristic</text>
<polyline fill="none" stroke="black" points="209.5,-297.5 307.5,-297.5 "/>
<text text-anchor="start" x="217.5" y="-285.5" font-family="Helvetica,sans-Serif" font-size="10.00">&#45; tsp</text>
<polyline fill="none" stroke="black" points="209.5,-278.5 307.5,-278.5 "/>
<text text-anchor="start" x="217.5" y="-266.5" font-family="Helvetica,sans-Serif" font-size="10.00">+ Metaheuristic()</text>
<text text-anchor="start" x="217.5" y="-255.5" font-family="Helvetica,sans-Serif" font-size="10.00">+ operator=()</text>
<text text-anchor="start" x="217.5" y="-244.5" font-family="Helvetica,sans-Serif" font-size="10.00">+ ~Metaheuristic()</text>
<text text-anchor="start" x="217.5" y="-233.5" font-family="Helvetica,sans-Serif" font-size="10.00">+ findOptimal()</text>
<text text-anchor="start" x="217.5" y="-222.5" font-family="Helvetica,sans-Serif" font-size="10.00"># Metaheuristic()</text>
<text text-anchor="start" x="217.5" y="-211.5" font-family="Helvetica,sans-Serif" font-size="10.00"># generateMove()</text>
<text text-anchor="start" x="217.5" y="-200.5" font-family="Helvetica,sans-Serif" font-size="10.00"># neighbour()</text>
<text text-anchor="start" x="217.5" y="-189.5" font-family="Helvetica,sans-Serif" font-size="10.00"># neighbour()</text>
<text text-anchor="start" x="217.5" y="-178.5" font-family="Helvetica,sans-Serif" font-size="10.00"># randomSolution()</text>
<text text-anchor="start" x="217.5" y="-167.5" font-family="Helvetica,sans-Serif" font-size="10.00"># crossover()</text>
</a>
</g>
</g>
<!-- Node2 -->
<g id="node2" class="node">
<title>Node2</title>
<g id="a_node2"><a xlink:href="classmh_1_1_genetic_algorithm.html" target="_top" xlink:title="Represents the use of the Genetic Algorithm to solve a problem.">
<polygon fill="white" stroke="black" points="0,-11.5 0,-112.5 111,-112.5 111,-11.5 0,-11.5"/>
<text text-anchor="middle" x="55.5" y="-100.5" font-family="Helvetica,sans-Serif" font-size="10.00">mh::GeneticAlgorithm</text>
<polyline fill="none" stroke="black" points="0,-93.5 111,-93.5 "/>
<text text-anchor="start" x="8" y="-81.5" font-family="Helvetica,sans-Serif" font-size="10.00">&#45; genMax</text>
<text text-anchor="start" x="8" y="-70.5" font-family="Helvetica,sans-Serif" font-size="10.00">&#45; szp</text>
<polyline fill="none" stroke="black" points="0,-63.5 111,-63.5 "/>
<text text-anchor="start" x="8" y="-51.5" font-family="Helvetica,sans-Serif" font-size="10.00">+ GeneticAlgorithm()</text>
<text text-anchor="start" x="8" y="-40.5" font-family="Helvetica,sans-Serif" font-size="10.00">+ operator=()</text>
<text text-anchor="start" x="8" y="-29.5" font-family="Helvetica,sans-Serif" font-size="10.00">+ GeneticAlgorithm()</text>
<text text-anchor="start" x="8" y="-18.5" font-family="Helvetica,sans-Serif" font-size="10.00">+ findOptimal()</text>
</a>
</g>
</g>
<!-- Node1&#45;&gt;Node2 -->
<g id="edge1" class="edge">
<title>Node1&#45;&gt;Node2</title>
<path fill="none" stroke="midnightblue" d="M201.33,-191.87C176.22,-171.48 146.57,-146.91 120.5,-124 116.32,-120.32 112.02,-116.47 107.73,-112.57"/>
<polygon fill="none" stroke="midnightblue" points="199.34,-194.77 209.31,-198.34 203.75,-189.33 199.34,-194.77"/>
</g>
<!-- Node3 -->
<g id="node3" class="node">
<title>Node3</title>
<g id="a_node3"><a xlink:href="classmh_1_1_iterated_local_search.html" target="_top" xlink:title="Represents the use of Iterated Local Search to solve a problem.">
<polygon fill="white" stroke="black" points="129.5,-0.5 129.5,-123.5 251.5,-123.5 251.5,-0.5 129.5,-0.5"/>
<text text-anchor="middle" x="190.5" y="-111.5" font-family="Helvetica,sans-Serif" font-size="10.00">mh::IteratedLocalSearch</text>
<polyline fill="none" stroke="black" points="129.5,-104.5 251.5,-104.5 "/>
<text text-anchor="start" x="137.5" y="-92.5" font-family="Helvetica,sans-Serif" font-size="10.00">&#45; prtMax</text>
<text text-anchor="start" x="137.5" y="-81.5" font-family="Helvetica,sans-Serif" font-size="10.00">&#45; rstMax</text>
<text text-anchor="start" x="137.5" y="-70.5" font-family="Helvetica,sans-Serif" font-size="10.00">&#45; lclMax</text>
<polyline fill="none" stroke="black" points="129.5,-63.5 251.5,-63.5 "/>
<text text-anchor="start" x="137.5" y="-51.5" font-family="Helvetica,sans-Serif" font-size="10.00">+ IteratedLocalSearch()</text>
<text text-anchor="start" x="137.5" y="-40.5" font-family="Helvetica,sans-Serif" font-size="10.00">+ operator=()</text>
<text text-anchor="start" x="137.5" y="-29.5" font-family="Helvetica,sans-Serif" font-size="10.00">+ IteratedLocalSearch()</text>
<text text-anchor="start" x="137.5" y="-18.5" font-family="Helvetica,sans-Serif" font-size="10.00">+ perturb()</text>
<text text-anchor="start" x="137.5" y="-7.5" font-family="Helvetica,sans-Serif" font-size="10.00">+ findOptimal()</text>
</a>
</g>
</g>
<!-- Node1&#45;&gt;Node3 -->
<g id="edge2" class="edge">
<title>Node1&#45;&gt;Node3</title>
<path fill="none" stroke="midnightblue" d="M224.75,-150.88C221.16,-141.68 217.57,-132.47 214.14,-123.65"/>
<polygon fill="none" stroke="midnightblue" points="221.58,-152.41 228.48,-160.45 228.11,-149.87 221.58,-152.41"/>
</g>
<!-- Node4 -->
<g id="node4" class="node">
<title>Node4</title>
<g id="a_node4"><a xlink:href="classmh_1_1_memetic_algorithm.html" target="_top" xlink:title="Represents the use of the Memetic Algorithm to solve a problem.">
<polygon fill="white" stroke="black" points="270,-0.5 270,-123.5 385,-123.5 385,-0.5 270,-0.5"/>
<text text-anchor="middle" x="327.5" y="-111.5" font-family="Helvetica,sans-Serif" font-size="10.00">mh::MemeticAlgorithm</text>
<polyline fill="none" stroke="black" points="270,-104.5 385,-104.5 "/>
<text text-anchor="start" x="278" y="-92.5" font-family="Helvetica,sans-Serif" font-size="10.00">&#45; lclMax</text>
<text text-anchor="start" x="278" y="-81.5" font-family="Helvetica,sans-Serif" font-size="10.00">&#45; genMax</text>
<text text-anchor="start" x="278" y="-70.5" font-family="Helvetica,sans-Serif" font-size="10.00">&#45; szp</text>
<polyline fill="none" stroke="black" points="270,-63.5 385,-63.5 "/>
<text text-anchor="start" x="278" y="-51.5" font-family="Helvetica,sans-Serif" font-size="10.00">+ MemeticAlgorithm()</text>
<text text-anchor="start" x="278" y="-40.5" font-family="Helvetica,sans-Serif" font-size="10.00">+ operator=()</text>
<text text-anchor="start" x="278" y="-29.5" font-family="Helvetica,sans-Serif" font-size="10.00">+ MemeticAlgorithm()</text>
<text text-anchor="start" x="278" y="-18.5" font-family="Helvetica,sans-Serif" font-size="10.00">+ localSearch()</text>
<text text-anchor="start" x="278" y="-7.5" font-family="Helvetica,sans-Serif" font-size="10.00">+ findOptimal()</text>
</a>
</g>
</g>
<!-- Node1&#45;&gt;Node4 -->
<g id="edge3" class="edge">
<title>Node1&#45;&gt;Node4</title>
<path fill="none" stroke="midnightblue" d="M292.75,-150.88C296.39,-141.68 300.03,-132.47 303.52,-123.65"/>
<polygon fill="none" stroke="midnightblue" points="289.39,-149.87 288.97,-160.45 295.9,-152.44 289.39,-149.87"/>
</g>
<!-- Node5 -->
<g id="node5" class="node">
<title>Node5</title>
<g id="a_node5"><a xlink:href="classmh_1_1_tabu_search.html" target="_top" xlink:title="Represents the use of Tabu Search to solve a problem.">
<polygon fill="white" stroke="black" points="403.5,-0.5 403.5,-123.5 495.5,-123.5 495.5,-0.5 403.5,-0.5"/>
<text text-anchor="middle" x="449.5" y="-111.5" font-family="Helvetica,sans-Serif" font-size="10.00">mh::TabuSearch</text>
<polyline fill="none" stroke="black" points="403.5,-104.5 495.5,-104.5 "/>
<text text-anchor="start" x="411.5" y="-92.5" font-family="Helvetica,sans-Serif" font-size="10.00">&#45; lclMax</text>
<text text-anchor="start" x="411.5" y="-81.5" font-family="Helvetica,sans-Serif" font-size="10.00">&#45; nbrMax</text>
<text text-anchor="start" x="411.5" y="-70.5" font-family="Helvetica,sans-Serif" font-size="10.00">&#45; tabuMax</text>
<polyline fill="none" stroke="black" points="403.5,-63.5 495.5,-63.5 "/>
<text text-anchor="start" x="411.5" y="-51.5" font-family="Helvetica,sans-Serif" font-size="10.00">+ TabuSearch()</text>
<text text-anchor="start" x="411.5" y="-40.5" font-family="Helvetica,sans-Serif" font-size="10.00">+ operator=()</text>
<text text-anchor="start" x="411.5" y="-29.5" font-family="Helvetica,sans-Serif" font-size="10.00">+ TabuSearch()</text>
<text text-anchor="start" x="411.5" y="-18.5" font-family="Helvetica,sans-Serif" font-size="10.00">+ generateMove()</text>
<text text-anchor="start" x="411.5" y="-7.5" font-family="Helvetica,sans-Serif" font-size="10.00">+ findOptimal()</text>
</a>
</g>
</g>
<!-- Node1&#45;&gt;Node5 -->
<g id="edge4" class="edge">
<title>Node1&#45;&gt;Node5</title>
<path fill="none" stroke="midnightblue" d="M315.7,-192.78C340.61,-172.55 369.71,-147.86 394.5,-124 397.48,-121.13 400.49,-118.13 403.49,-115.06"/>
<polygon fill="none" stroke="midnightblue" points="313.35,-190.18 307.77,-199.18 317.75,-195.62 313.35,-190.18"/>
</g>
</g>
</svg>
        <g id="navigator" transform="translate(0 0)" fill="#404254">
                <rect fill="#f2f5e9" fill-opacity="0.5" stroke="#606060" stroke-width=".5" x="0" y="0" width="60" height="60"/>
                <use id="zoomplus" xlink:href="#zoomPlus" x="17" y="9" onmousedown="handleZoom(evt,'in')"/>
                <use id="zoomminus" xlink:href="#zoomMin" x="42" y="9" onmousedown="handleZoom(evt,'out')"/>
                <use id="reset" xlink:href="#resetDef" x="30" y="36" onmousedown="handleReset()"/>
                <g id="arrowUp" xlink:href="#dirArrow" transform="translate(30 24)" onmousedown="handlePan(0,-1)">
                  <use xlink:href="#rim" fill="#404040">
                        <set attributeName="fill" to="#808080" begin="arrowUp.mouseover" end="arrowUp.mouseout"/>
                  </use>
                  <path fill="none" stroke="white" stroke-width="1.5" d="M0,-3.0v7 M-2.5,-0.5L0,-3.0L2.5,-0.5"/>
                </g>
                <g id="arrowRight" xlink:href="#dirArrow" transform="rotate(90) translate(36 -43)" onmousedown="handlePan(1,0)">
                  <use xlink:href="#rim" fill="#404040">
                        <set attributeName="fill" to="#808080" begin="arrowRight.mouseover" end="arrowRight.mouseout"/>
                  </use>
                  <path fill="none" stroke="white" stroke-width="1.5" d="M0,-3.0v7 M-2.5,-0.5L0,-3.0L2.5,-0.5"/>
                </g>
                <g id="arrowDown" xlink:href="#dirArrow" transform="rotate(180) translate(-30 -48)" onmousedown="handlePan(0,1)">
                  <use xlink:href="#rim" fill="#404040">
                        <set attributeName="fill" to="#808080" begin="arrowDown.mouseover" end="arrowDown.mouseout"/>
                  </use>
                  <path fill="none" stroke="white" stroke-width="1.5" d="M0,-3.0v7 M-2.5,-0.5L0,-3.0L2.5,-0.5"/>
                </g>
                <g id="arrowLeft" xlink:href="#dirArrow" transform="rotate(270) translate(-36 17)" onmousedown="handlePan(-1,0)">
                  <use xlink:href="#rim" fill="#404040">
                        <set attributeName="fill" to="#808080" begin="arrowLeft.mouseover" end="arrowLeft.mouseout"/>
                  </use>
                  <path fill="none" stroke="white" stroke-width="1.5" d="M0,-3.0v7 M-2.5,-0.5L0,-3.0L2.5,-0.5"/>
                </g>
        </g>
        <svg viewBox="0 0 15 15" width="100%" height="30px" preserveAspectRatio="xMaxYMin meet">
         <g id="arrow_out" transform="scale(0.3 0.3)">
          <a xlink:href="classmh_1_1_metaheuristic__inherit__graph_org.svg" target="_base">
           <rect id="button" ry="5" rx="5" y="6" x="6" height="38" width="38"
                fill="#f2f5e9" fill-opacity="0.5" stroke="#606060" stroke-width="1.0"/>
           <path id="arrow"
             d="M 11.500037,31.436501 C 11.940474,20.09759 22.043105,11.32322 32.158766,21.979434 L 37.068811,17.246167 C 37.068811,17.246167 37.088388,32 37.088388,32 L 22.160133,31.978069 C 22.160133,31.978069 26.997745,27.140456 26.997745,27.140456 C 18.528582,18.264221 13.291696,25.230495 11.500037,31.436501 z"
             style="fill:#404040;"/>
          </a>
         </g>
        </svg>
</svg>
