<?xml version="1.0" encoding="UTF-8" standalone="no"?>
<!DOCTYPE svg PUBLIC "-//W3C//DTD SVG 1.1//EN"
 "http://www.w3.org/Graphics/SVG/1.1/DTD/svg11.dtd">
<!-- Generated by graphviz version 2.50.0 (20211204.2007)
 -->
<!-- Title: gui::Application::update Pages: 1 -->
<svg width="264pt" height="66pt"
 viewBox="0.00 0.00 264.00 66.00" xmlns="http://www.w3.org/2000/svg" xmlns:xlink="http://www.w3.org/1999/xlink">
<g id="graph0" class="graph" transform="scale(1 1) rotate(0) translate(4 62)">
<title>gui::Application::update</title>
<polygon fill="white" stroke="transparent" points="-4,4 -4,-62 260,-62 260,4 -4,4"/>
<!-- Node1 -->
<g id="node1" class="node">
<title>Node1</title>
<g id="a_node1"><a xlink:title="Updates the current screen.">
<polygon fill="#bfbfbf" stroke="black" points="0,-19.5 0,-38.5 119,-38.5 119,-19.5 0,-19.5"/>
<text text-anchor="middle" x="59.5" y="-26.5" font-family="Helvetica,sans-Serif" font-size="10.00">gui::Application::update</text>
</a>
</g>
</g>
<!-- Node2 -->
<g id="node2" class="node">
<title>Node2</title>
<g id="a_node2"><a xlink:href="class_logger.html#ade94f06cf9421f5109450bd6e68b0fab" target="_top" xlink:title="Logs the optimal solutions returned by metaheuristics.">
<polygon fill="white" stroke="black" points="173,-38.5 173,-57.5 238,-57.5 238,-38.5 173,-38.5"/>
<text text-anchor="middle" x="205.5" y="-45.5" font-family="Helvetica,sans-Serif" font-size="10.00">Logger::log</text>
</a>
</g>
</g>
<!-- Node1&#45;&gt;Node2 -->
<g id="edge1" class="edge">
<title>Node1&#45;&gt;Node2</title>
<path fill="none" stroke="midnightblue" d="M119.07,-36.73C133.71,-38.66 149.13,-40.69 162.77,-42.49"/>
<polygon fill="midnightblue" stroke="midnightblue" points="162.44,-45.98 172.81,-43.82 163.35,-39.04 162.44,-45.98"/>
</g>
<!-- Node3 -->
<g id="node3" class="node">
<title>Node3</title>
<g id="a_node3"><a xlink:href="classgui_1_1_screen.html#a0b6fb948f802838e45c45ef04d7e6370" target="_top" xlink:title="Updates all components that are part of the screen.">
<polygon fill="white" stroke="black" points="155,-0.5 155,-19.5 256,-19.5 256,-0.5 155,-0.5"/>
<text text-anchor="middle" x="205.5" y="-7.5" font-family="Helvetica,sans-Serif" font-size="10.00">gui::Screen::update</text>
</a>
</g>
</g>
<!-- Node1&#45;&gt;Node3 -->
<g id="edge2" class="edge">
<title>Node1&#45;&gt;Node3</title>
<path fill="none" stroke="midnightblue" d="M119.07,-21.27C127.48,-20.16 136.15,-19.02 144.59,-17.9"/>
<polygon fill="midnightblue" stroke="midnightblue" points="145.29,-21.34 154.74,-16.57 144.37,-14.4 145.29,-21.34"/>
</g>
</g>
</svg>
