<?xml version="1.0" encoding="UTF-8" standalone="no"?>
<!DOCTYPE svg PUBLIC "-//W3C//DTD SVG 1.1//EN"
 "http://www.w3.org/Graphics/SVG/1.1/DTD/svg11.dtd">
<!-- Generated by graphviz version 2.50.0 (20211204.2007)
 -->
<!-- Title: opp::TravellingSalesmanProblem::select Pages: 1 -->
<svg width="454pt" height="88pt"
 viewBox="0.00 0.00 454.00 88.00" xmlns="http://www.w3.org/2000/svg" xmlns:xlink="http://www.w3.org/1999/xlink">
<g id="graph0" class="graph" transform="scale(1 1) rotate(0) translate(4 84)">
<title>opp::TravellingSalesmanProblem::select</title>
<polygon fill="white" stroke="transparent" points="-4,4 -4,-84 450,-84 450,4 -4,4"/>
<!-- Node1 -->
<g id="node1" class="node">
<title>Node1</title>
<g id="a_node1"><a xlink:title="Selects a solution from the population using Tournament Selection.">
<polygon fill="#bfbfbf" stroke="black" points="288,-24.5 288,-54.5 446,-54.5 446,-24.5 288,-24.5"/>
<text text-anchor="start" x="296" y="-42.5" font-family="Helvetica,sans-Serif" font-size="10.00">opp::TravellingSalesmanProblem</text>
<text text-anchor="middle" x="367" y="-31.5" font-family="Helvetica,sans-Serif" font-size="10.00">::select</text>
</a>
</g>
</g>
<!-- Node2 -->
<g id="node2" class="node">
<title>Node2</title>
<g id="a_node2"><a xlink:href="classmh_1_1_metaheuristic.html#aaf40e20b2f6063c1e6420ac3459cb647" target="_top" xlink:title="Applies Uniform Order Based Crossover on parent solutions.">
<polygon fill="white" stroke="black" points="151,-24.5 151,-54.5 252,-54.5 252,-24.5 151,-24.5"/>
<text text-anchor="start" x="159" y="-42.5" font-family="Helvetica,sans-Serif" font-size="10.00">mh::Metaheuristic::</text>
<text text-anchor="middle" x="201.5" y="-31.5" font-family="Helvetica,sans-Serif" font-size="10.00">crossover</text>
</a>
</g>
</g>
<!-- Node1&#45;&gt;Node2 -->
<g id="edge1" class="edge">
<title>Node1&#45;&gt;Node2</title>
<path fill="none" stroke="midnightblue" d="M277.51,-39.5C268.93,-39.5 260.45,-39.5 252.45,-39.5"/>
<polygon fill="midnightblue" stroke="midnightblue" points="277.6,-43 287.6,-39.5 277.6,-36 277.6,-43"/>
</g>
<!-- Node3 -->
<g id="node3" class="node">
<title>Node3</title>
<g id="a_node3"><a xlink:href="classmh_1_1_genetic_algorithm.html#afc5c822f97236d13700f372837f993e0" target="_top" xlink:title="Finds a near optimal solution to the problem using the Genetic Algorithm.">
<polygon fill="white" stroke="black" points="2,-49.5 2,-79.5 113,-79.5 113,-49.5 2,-49.5"/>
<text text-anchor="start" x="10" y="-67.5" font-family="Helvetica,sans-Serif" font-size="10.00">mh::GeneticAlgorithm</text>
<text text-anchor="middle" x="57.5" y="-56.5" font-family="Helvetica,sans-Serif" font-size="10.00">::findOptimal</text>
</a>
</g>
</g>
<!-- Node2&#45;&gt;Node3 -->
<g id="edge2" class="edge">
<title>Node2&#45;&gt;Node3</title>
<path fill="none" stroke="midnightblue" d="M140.98,-49.98C131.78,-51.6 122.31,-53.27 113.22,-54.87"/>
<polygon fill="midnightblue" stroke="midnightblue" points="141.59,-53.42 150.84,-48.24 140.38,-46.53 141.59,-53.42"/>
</g>
<!-- Node4 -->
<g id="node4" class="node">
<title>Node4</title>
<g id="a_node4"><a xlink:href="classmh_1_1_memetic_algorithm.html#ab15cea2b9f7127cd01db9af011142687" target="_top" xlink:title="Finds a near optimal solution to the problem using the Memetic Algorithm.">
<polygon fill="white" stroke="black" points="0,-0.5 0,-30.5 115,-30.5 115,-0.5 0,-0.5"/>
<text text-anchor="start" x="8" y="-18.5" font-family="Helvetica,sans-Serif" font-size="10.00">mh::MemeticAlgorithm</text>
<text text-anchor="middle" x="57.5" y="-7.5" font-family="Helvetica,sans-Serif" font-size="10.00">::findOptimal</text>
</a>
</g>
</g>
<!-- Node2&#45;&gt;Node4 -->
<g id="edge3" class="edge">
<title>Node2&#45;&gt;Node4</title>
<path fill="none" stroke="midnightblue" d="M140.95,-29.44C132.42,-27.99 123.66,-26.51 115.18,-25.08"/>
<polygon fill="midnightblue" stroke="midnightblue" points="140.39,-32.89 150.84,-31.11 141.56,-25.99 140.39,-32.89"/>
</g>
</g>
</svg>
