<?xml version="1.0" encoding="UTF-8" standalone="no"?>
<!DOCTYPE svg PUBLIC "-//W3C//DTD SVG 1.1//EN"
 "http://www.w3.org/Graphics/SVG/1.1/DTD/svg11.dtd">
<!-- Generated by graphviz version 2.50.0 (20211204.2007)
 -->
<!-- Title: gui::TravellingSalesmanProblemDisplay Pages: 1 -->
<svg width="163pt" height="347pt"
 viewBox="0.00 0.00 163.00 347.00" xmlns="http://www.w3.org/2000/svg" xmlns:xlink="http://www.w3.org/1999/xlink">
<g id="graph0" class="graph" transform="scale(1 1) rotate(0) translate(4 343)">
<title>gui::TravellingSalesmanProblemDisplay</title>
<polygon fill="white" stroke="transparent" points="-4,4 -4,-343 159,-343 159,4 -4,4"/>
<!-- Node1 -->
<g id="node1" class="node">
<title>Node1</title>
<g id="a_node1"><a xlink:title="Handles displaying of problem and interaction with the user.">
<polygon fill="#bfbfbf" stroke="black" points="0,-0.5 0,-200.5 155,-200.5 155,-0.5 0,-0.5"/>
<text text-anchor="start" x="8" y="-188.5" font-family="Helvetica,sans-Serif" font-size="10.00">gui::TravellingSalesmanProblem</text>
<text text-anchor="middle" x="77.5" y="-177.5" font-family="Helvetica,sans-Serif" font-size="10.00">Display</text>
<polyline fill="none" stroke="black" points="0,-170.5 155,-170.5 "/>
<text text-anchor="start" x="8" y="-158.5" font-family="Helvetica,sans-Serif" font-size="10.00">&#45; boundingBox</text>
<text text-anchor="start" x="8" y="-147.5" font-family="Helvetica,sans-Serif" font-size="10.00">&#45; cSz</text>
<text text-anchor="start" x="8" y="-136.5" font-family="Helvetica,sans-Serif" font-size="10.00">&#45; tsp</text>
<polyline fill="none" stroke="black" points="0,-129.5 155,-129.5 "/>
<text text-anchor="start" x="8" y="-117.5" font-family="Helvetica,sans-Serif" font-size="10.00">+ TravellingSalesmanProblem</text>
<text text-anchor="start" x="8" y="-106.5" font-family="Helvetica,sans-Serif" font-size="10.00">Display()</text>
<text text-anchor="start" x="8" y="-95.5" font-family="Helvetica,sans-Serif" font-size="10.00">+ TravellingSalesmanProblem</text>
<text text-anchor="start" x="8" y="-84.5" font-family="Helvetica,sans-Serif" font-size="10.00">Display()</text>
<text text-anchor="start" x="8" y="-73.5" font-family="Helvetica,sans-Serif" font-size="10.00">+ operator=()</text>
<text text-anchor="start" x="8" y="-62.5" font-family="Helvetica,sans-Serif" font-size="10.00">+ isSelected()</text>
<text text-anchor="start" x="8" y="-51.5" font-family="Helvetica,sans-Serif" font-size="10.00">+ handleEvent()</text>
<text text-anchor="start" x="8" y="-40.5" font-family="Helvetica,sans-Serif" font-size="10.00">+ update()</text>
<text text-anchor="start" x="8" y="-29.5" font-family="Helvetica,sans-Serif" font-size="10.00">+ render()</text>
<text text-anchor="start" x="8" y="-18.5" font-family="Helvetica,sans-Serif" font-size="10.00">+ getTsp()</text>
<text text-anchor="start" x="8" y="-7.5" font-family="Helvetica,sans-Serif" font-size="10.00">+ newTsp()</text>
</a>
</g>
</g>
<!-- Node2 -->
<g id="node2" class="node">
<title>Node2</title>
<g id="a_node2"><a xlink:href="classgui_1_1_gui_component.html" target="_top" xlink:title="Represents a component of the GUI.">
<polygon fill="white" stroke="black" points="26.5,-237.5 26.5,-338.5 128.5,-338.5 128.5,-237.5 26.5,-237.5"/>
<text text-anchor="middle" x="77.5" y="-326.5" font-family="Helvetica,sans-Serif" font-size="10.00">gui::GuiComponent</text>
<polyline fill="none" stroke="black" points="26.5,-319.5 128.5,-319.5 "/>
<text text-anchor="middle" x="77.5" y="-307.5" font-family="Helvetica,sans-Serif" font-size="10.00"> </text>
<polyline fill="none" stroke="black" points="26.5,-300.5 128.5,-300.5 "/>
<text text-anchor="start" x="34.5" y="-288.5" font-family="Helvetica,sans-Serif" font-size="10.00">+ ~GuiComponent()</text>
<text text-anchor="start" x="34.5" y="-277.5" font-family="Helvetica,sans-Serif" font-size="10.00">+ isSelected()</text>
<text text-anchor="start" x="34.5" y="-266.5" font-family="Helvetica,sans-Serif" font-size="10.00">+ handleEvent()</text>
<text text-anchor="start" x="34.5" y="-255.5" font-family="Helvetica,sans-Serif" font-size="10.00">+ update()</text>
<text text-anchor="start" x="34.5" y="-244.5" font-family="Helvetica,sans-Serif" font-size="10.00">+ render()</text>
</a>
</g>
</g>
<!-- Node2&#45;&gt;Node1 -->
<g id="edge1" class="edge">
<title>Node2&#45;&gt;Node1</title>
<path fill="none" stroke="midnightblue" d="M77.5,-227.17C77.5,-218.68 77.5,-209.77 77.5,-200.78"/>
<polygon fill="none" stroke="midnightblue" points="74,-227.29 77.5,-237.29 81,-227.29 74,-227.29"/>
</g>
</g>
</svg>
