<?xml version="1.0" encoding="UTF-8" standalone="no"?>
<!DOCTYPE svg PUBLIC "-//W3C//DTD SVG 1.1//EN"
 "http://www.w3.org/Graphics/SVG/1.1/DTD/svg11.dtd">
<!-- Generated by graphviz version 2.50.0 (20211204.2007)
 -->
<!-- Title: opp::TravellingSalesmanProblem::generateMove Pages: 1 -->
<svg width="672pt" height="292pt"
 viewBox="0.00 0.00 672.00 291.50" xmlns="http://www.w3.org/2000/svg" xmlns:xlink="http://www.w3.org/1999/xlink">
<g id="graph0" class="graph" transform="scale(1 1) rotate(0) translate(4 287.5)">
<title>opp::TravellingSalesmanProblem::generateMove</title>
<polygon fill="white" stroke="transparent" points="-4,4 -4,-287.5 668,-287.5 668,4 -4,4"/>
<!-- Node1 -->
<g id="node1" class="node">
<title>Node1</title>
<g id="a_node1"><a xlink:title="Generates a move from the neighbourhood of a solution.">
<polygon fill="#bfbfbf" stroke="black" points="506,-156.5 506,-186.5 664,-186.5 664,-156.5 506,-156.5"/>
<text text-anchor="start" x="514" y="-174.5" font-family="Helvetica,sans-Serif" font-size="10.00">opp::TravellingSalesmanProblem</text>
<text text-anchor="middle" x="585" y="-163.5" font-family="Helvetica,sans-Serif" font-size="10.00">::generateMove</text>
</a>
</g>
</g>
<!-- Node2 -->
<g id="node2" class="node">
<title>Node2</title>
<g id="a_node2"><a xlink:href="classmh_1_1_metaheuristic.html#a5a36d1002279148d57f18449dfad3d08" target="_top" xlink:title="Generates a move from the neighbourhood of a solution.">
<polygon fill="white" stroke="black" points="369,-219.5 369,-249.5 470,-249.5 470,-219.5 369,-219.5"/>
<text text-anchor="start" x="377" y="-237.5" font-family="Helvetica,sans-Serif" font-size="10.00">mh::Metaheuristic::</text>
<text text-anchor="middle" x="419.5" y="-226.5" font-family="Helvetica,sans-Serif" font-size="10.00">generateMove</text>
</a>
</g>
</g>
<!-- Node1&#45;&gt;Node2 -->
<g id="edge1" class="edge">
<title>Node1&#45;&gt;Node2</title>
<path fill="none" stroke="midnightblue" d="M535.47,-190.2C511.27,-199.52 482.39,-210.65 459.63,-219.42"/>
<polygon fill="midnightblue" stroke="midnightblue" points="536.76,-193.45 544.84,-186.59 534.25,-186.92 536.76,-193.45"/>
</g>
<!-- Node5 -->
<g id="node5" class="node">
<title>Node5</title>
<g id="a_node5"><a xlink:href="classmh_1_1_metaheuristic.html#a17ee0cbdd097192f6a205c57133a5717" target="_top" xlink:title="Applies a move to a solution.">
<polygon fill="white" stroke="black" points="369,-132.5 369,-162.5 470,-162.5 470,-132.5 369,-132.5"/>
<text text-anchor="start" x="377" y="-150.5" font-family="Helvetica,sans-Serif" font-size="10.00">mh::Metaheuristic::</text>
<text text-anchor="middle" x="419.5" y="-139.5" font-family="Helvetica,sans-Serif" font-size="10.00">neighbour</text>
</a>
</g>
</g>
<!-- Node1&#45;&gt;Node5 -->
<g id="edge4" class="edge">
<title>Node1&#45;&gt;Node5</title>
<path fill="none" stroke="midnightblue" d="M495.51,-158.51C486.93,-157.25 478.45,-156.01 470.45,-154.83"/>
<polygon fill="midnightblue" stroke="midnightblue" points="495.2,-162 505.6,-159.99 496.22,-155.08 495.2,-162"/>
</g>
<!-- Node3 -->
<g id="node3" class="node">
<title>Node3</title>
<g id="a_node3"><a xlink:href="classmh_1_1_tabu_search.html#a191afd82e629142b3b0ae41c8e635244" target="_top" xlink:title="Generates a move from the neighbourhood of a solution, that is not tabu.">
<polygon fill="white" stroke="black" points="179,-264 179,-283 333,-283 333,-264 179,-264"/>
<text text-anchor="middle" x="256" y="-271" font-family="Helvetica,sans-Serif" font-size="10.00">mh::TabuSearch::generateMove</text>
</a>
</g>
</g>
<!-- Node2&#45;&gt;Node3 -->
<g id="edge2" class="edge">
<title>Node2&#45;&gt;Node3</title>
<path fill="none" stroke="midnightblue" d="M358.98,-248.87C338.1,-253.92 315.18,-259.45 296.36,-263.99"/>
<polygon fill="midnightblue" stroke="midnightblue" points="359.83,-252.27 368.73,-246.52 358.18,-245.46 359.83,-252.27"/>
</g>
<!-- Node4 -->
<g id="node4" class="node">
<title>Node4</title>
<g id="a_node4"><a xlink:href="classmh_1_1_tabu_search.html#a710549972412c1af94dccf32f51881b6" target="_top" xlink:title="Finds a near optimal solution to the problem using Tabu Search.">
<polygon fill="white" stroke="black" points="0,-245 0,-264 143,-264 143,-245 0,-245"/>
<text text-anchor="middle" x="71.5" y="-252" font-family="Helvetica,sans-Serif" font-size="10.00">mh::TabuSearch::findOptimal</text>
</a>
</g>
</g>
<!-- Node3&#45;&gt;Node4 -->
<g id="edge3" class="edge">
<title>Node3&#45;&gt;Node4</title>
<path fill="none" stroke="midnightblue" d="M168.88,-264.53C160.27,-263.64 151.61,-262.74 143.2,-261.86"/>
<polygon fill="midnightblue" stroke="midnightblue" points="168.62,-268.03 178.93,-265.58 169.34,-261.06 168.62,-268.03"/>
</g>
<!-- Node5&#45;&gt;Node4 -->
<g id="edge8" class="edge">
<title>Node5&#45;&gt;Node4</title>
<path fill="none" stroke="midnightblue" d="M397.43,-169.98C381.34,-185.67 357.78,-205.67 333,-216.5 272.48,-242.94 197.29,-251.64 143.26,-254.2"/>
<polygon fill="midnightblue" stroke="midnightblue" points="400.12,-172.24 404.7,-162.68 395.17,-167.29 400.12,-172.24"/>
</g>
<!-- Node6 -->
<g id="node6" class="node">
<title>Node6</title>
<g id="a_node6"><a xlink:href="classmh_1_1_genetic_algorithm.html#afc5c822f97236d13700f372837f993e0" target="_top" xlink:title="Finds a near optimal solution to the problem using the Genetic Algorithm.">
<polygon fill="white" stroke="black" points="200.5,-176.5 200.5,-206.5 311.5,-206.5 311.5,-176.5 200.5,-176.5"/>
<text text-anchor="start" x="208.5" y="-194.5" font-family="Helvetica,sans-Serif" font-size="10.00">mh::GeneticAlgorithm</text>
<text text-anchor="middle" x="256" y="-183.5" font-family="Helvetica,sans-Serif" font-size="10.00">::findOptimal</text>
</a>
</g>
</g>
<!-- Node5&#45;&gt;Node6 -->
<g id="edge5" class="edge">
<title>Node5&#45;&gt;Node6</title>
<path fill="none" stroke="midnightblue" d="M358.77,-163.77C343.35,-167.97 326.82,-172.48 311.67,-176.61"/>
<polygon fill="midnightblue" stroke="midnightblue" points="360,-167.07 368.73,-161.06 358.16,-160.31 360,-167.07"/>
</g>
<!-- Node7 -->
<g id="node7" class="node">
<title>Node7</title>
<g id="a_node7"><a xlink:href="classmh_1_1_memetic_algorithm.html#ab15cea2b9f7127cd01db9af011142687" target="_top" xlink:title="Finds a near optimal solution to the problem using the Memetic Algorithm.">
<polygon fill="white" stroke="black" points="14,-100.5 14,-130.5 129,-130.5 129,-100.5 14,-100.5"/>
<text text-anchor="start" x="22" y="-118.5" font-family="Helvetica,sans-Serif" font-size="10.00">mh::MemeticAlgorithm</text>
<text text-anchor="middle" x="71.5" y="-107.5" font-family="Helvetica,sans-Serif" font-size="10.00">::findOptimal</text>
</a>
</g>
</g>
<!-- Node5&#45;&gt;Node7 -->
<g id="edge6" class="edge">
<title>Node5&#45;&gt;Node7</title>
<path fill="none" stroke="midnightblue" d="M358.9,-143.47C310.4,-140.03 240.22,-134.66 179,-128.5 162.78,-126.87 145.21,-124.83 129.1,-122.86"/>
<polygon fill="midnightblue" stroke="midnightblue" points="358.68,-146.97 368.91,-144.18 359.18,-139.99 358.68,-146.97"/>
</g>
<!-- Node8 -->
<g id="node8" class="node">
<title>Node8</title>
<g id="a_node8"><a xlink:href="classmh_1_1_iterated_local_search.html#abe4fc7258b131bd9cc6ee2a46a853305" target="_top" xlink:title="Finds a near optimal solution to the problem using Iterated Local Search.">
<polygon fill="white" stroke="black" points="10.5,-32.5 10.5,-62.5 132.5,-62.5 132.5,-32.5 10.5,-32.5"/>
<text text-anchor="start" x="18.5" y="-50.5" font-family="Helvetica,sans-Serif" font-size="10.00">mh::IteratedLocalSearch</text>
<text text-anchor="middle" x="71.5" y="-39.5" font-family="Helvetica,sans-Serif" font-size="10.00">::findOptimal</text>
</a>
</g>
</g>
<!-- Node5&#45;&gt;Node8 -->
<g id="edge7" class="edge">
<title>Node5&#45;&gt;Node8</title>
<path fill="none" stroke="midnightblue" d="M397.44,-125.18C381.36,-109.64 357.8,-89.9 333,-79.5 268.18,-52.32 186.9,-46.28 132.53,-45.77"/>
<polygon fill="midnightblue" stroke="midnightblue" points="395.15,-127.84 404.71,-132.42 400.09,-122.88 395.15,-127.84"/>
</g>
<!-- Node9 -->
<g id="node9" class="node">
<title>Node9</title>
<g id="a_node9"><a xlink:href="classmh_1_1_memetic_algorithm.html#af39272a928e81eed1e2b6a78c9c9a6ce" target="_top" xlink:title="Applies a local search to the solution.">
<polygon fill="white" stroke="black" points="198.5,-88.5 198.5,-118.5 313.5,-118.5 313.5,-88.5 198.5,-88.5"/>
<text text-anchor="start" x="206.5" y="-106.5" font-family="Helvetica,sans-Serif" font-size="10.00">mh::MemeticAlgorithm</text>
<text text-anchor="middle" x="256" y="-95.5" font-family="Helvetica,sans-Serif" font-size="10.00">::localSearch</text>
</a>
</g>
</g>
<!-- Node5&#45;&gt;Node9 -->
<g id="edge9" class="edge">
<title>Node5&#45;&gt;Node9</title>
<path fill="none" stroke="midnightblue" d="M358.88,-131.26C343.62,-127.1 327.27,-122.64 312.24,-118.55"/>
<polygon fill="midnightblue" stroke="midnightblue" points="358.16,-134.69 368.73,-133.94 360,-127.93 358.16,-134.69"/>
</g>
<!-- Node10 -->
<g id="node10" class="node">
<title>Node10</title>
<g id="a_node10"><a xlink:href="classmh_1_1_iterated_local_search.html#a9c23c535bce43d52a2ce39f2b64d360c" target="_top" xlink:title="Perturbs the solution to escape a local optima.">
<polygon fill="white" stroke="black" points="195,-0.5 195,-30.5 317,-30.5 317,-0.5 195,-0.5"/>
<text text-anchor="start" x="203" y="-18.5" font-family="Helvetica,sans-Serif" font-size="10.00">mh::IteratedLocalSearch</text>
<text text-anchor="middle" x="256" y="-7.5" font-family="Helvetica,sans-Serif" font-size="10.00">::perturb</text>
</a>
</g>
</g>
<!-- Node5&#45;&gt;Node10 -->
<g id="edge11" class="edge">
<title>Node5&#45;&gt;Node10</title>
<path fill="none" stroke="midnightblue" d="M403.79,-123.88C388.54,-101.09 362.79,-66.97 333,-45.5 324.83,-39.61 315.35,-34.68 305.9,-30.63"/>
<polygon fill="midnightblue" stroke="midnightblue" points="400.89,-125.84 409.29,-132.3 406.75,-122.01 400.89,-125.84"/>
</g>
<!-- Node9&#45;&gt;Node7 -->
<g id="edge10" class="edge">
<title>Node9&#45;&gt;Node7</title>
<path fill="none" stroke="midnightblue" d="M188.02,-107.9C168.71,-109.17 147.83,-110.55 129.21,-111.77"/>
<polygon fill="midnightblue" stroke="midnightblue" points="188.51,-111.38 198.26,-107.23 188.05,-104.39 188.51,-111.38"/>
</g>
<!-- Node10&#45;&gt;Node8 -->
<g id="edge12" class="edge">
<title>Node10&#45;&gt;Node8</title>
<path fill="none" stroke="midnightblue" d="M184.96,-27.78C167.67,-30.81 149.31,-34.03 132.55,-36.97"/>
<polygon fill="midnightblue" stroke="midnightblue" points="185.74,-31.2 194.99,-26.02 184.54,-24.3 185.74,-31.2"/>
</g>
</g>
</svg>
