<?xml version="1.0" encoding="UTF-8" standalone="no"?>
<!DOCTYPE svg PUBLIC "-//W3C//DTD SVG 1.1//EN"
 "http://www.w3.org/Graphics/SVG/1.1/DTD/svg11.dtd">
<!-- Generated by graphviz version 2.50.0 (20211204.2007)
 -->
<!-- Title: opp::TravellingSalesmanProblem::cost Pages: 1 -->
<svg width="676pt" height="176pt"
 viewBox="0.00 0.00 676.00 175.50" xmlns="http://www.w3.org/2000/svg" xmlns:xlink="http://www.w3.org/1999/xlink">
<g id="graph0" class="graph" transform="scale(1 1) rotate(0) translate(4 171.5)">
<title>opp::TravellingSalesmanProblem::cost</title>
<polygon fill="white" stroke="transparent" points="-4,4 -4,-171.5 672,-171.5 672,4 -4,4"/>
<!-- Node1 -->
<g id="node1" class="node">
<title>Node1</title>
<g id="a_node1"><a xlink:title="Calculates the cost of a solution.">
<polygon fill="#bfbfbf" stroke="black" points="510,-87 510,-117 668,-117 668,-87 510,-87"/>
<text text-anchor="start" x="518" y="-105" font-family="Helvetica,sans-Serif" font-size="10.00">opp::TravellingSalesmanProblem</text>
<text text-anchor="middle" x="589" y="-94" font-family="Helvetica,sans-Serif" font-size="10.00">::cost</text>
</a>
</g>
</g>
<!-- Node2 -->
<g id="node2" class="node">
<title>Node2</title>
<g id="a_node2"><a xlink:href="classopp_1_1_travelling_salesman_problem.html#a9e757a47610652d9f057d032c9da15b2" target="_top" xlink:title="Applies Uniform Order Based Crossover on parent solutions.">
<polygon fill="white" stroke="black" points="316,-112 316,-142 474,-142 474,-112 316,-112"/>
<text text-anchor="start" x="324" y="-130" font-family="Helvetica,sans-Serif" font-size="10.00">opp::TravellingSalesmanProblem</text>
<text text-anchor="middle" x="395" y="-119" font-family="Helvetica,sans-Serif" font-size="10.00">::crossover</text>
</a>
</g>
</g>
<!-- Node1&#45;&gt;Node2 -->
<g id="edge1" class="edge">
<title>Node1&#45;&gt;Node2</title>
<path fill="none" stroke="midnightblue" d="M499.85,-113.48C491.23,-114.6 482.53,-115.73 474.02,-116.84"/>
<polygon fill="midnightblue" stroke="midnightblue" points="500.44,-116.93 509.91,-112.17 499.54,-109.99 500.44,-116.93"/>
</g>
<!-- Node6 -->
<g id="node6" class="node">
<title>Node6</title>
<g id="a_node6"><a xlink:href="classopp_1_1_travelling_salesman_problem.html#a56af096a854db5ae5118445013332be5" target="_top" xlink:title="Generates a random solution to the problem.">
<polygon fill="white" stroke="black" points="316,-63 316,-93 474,-93 474,-63 316,-63"/>
<text text-anchor="start" x="324" y="-81" font-family="Helvetica,sans-Serif" font-size="10.00">opp::TravellingSalesmanProblem</text>
<text text-anchor="middle" x="395" y="-70" font-family="Helvetica,sans-Serif" font-size="10.00">::randomSolution</text>
</a>
</g>
</g>
<!-- Node1&#45;&gt;Node6 -->
<g id="edge5" class="edge">
<title>Node1&#45;&gt;Node6</title>
<path fill="none" stroke="midnightblue" d="M499.85,-90.98C491.23,-89.9 482.53,-88.82 474.02,-87.75"/>
<polygon fill="midnightblue" stroke="midnightblue" points="499.55,-94.47 509.91,-92.24 500.42,-87.52 499.55,-94.47"/>
</g>
<!-- Node3 -->
<g id="node3" class="node">
<title>Node3</title>
<g id="a_node3"><a xlink:href="classmh_1_1_metaheuristic.html#aaf40e20b2f6063c1e6420ac3459cb647" target="_top" xlink:title="Applies Uniform Order Based Crossover on parent solutions.">
<polygon fill="white" stroke="black" points="179,-112 179,-142 280,-142 280,-112 179,-112"/>
<text text-anchor="start" x="187" y="-130" font-family="Helvetica,sans-Serif" font-size="10.00">mh::Metaheuristic::</text>
<text text-anchor="middle" x="229.5" y="-119" font-family="Helvetica,sans-Serif" font-size="10.00">crossover</text>
</a>
</g>
</g>
<!-- Node2&#45;&gt;Node3 -->
<g id="edge2" class="edge">
<title>Node2&#45;&gt;Node3</title>
<path fill="none" stroke="midnightblue" d="M305.51,-127C296.93,-127 288.45,-127 280.45,-127"/>
<polygon fill="midnightblue" stroke="midnightblue" points="305.6,-130.5 315.6,-127 305.6,-123.5 305.6,-130.5"/>
</g>
<!-- Node4 -->
<g id="node4" class="node">
<title>Node4</title>
<g id="a_node4"><a xlink:href="classmh_1_1_genetic_algorithm.html#afc5c822f97236d13700f372837f993e0" target="_top" xlink:title="Finds a near optimal solution to the problem using the Genetic Algorithm.">
<polygon fill="white" stroke="black" points="16,-137 16,-167 127,-167 127,-137 16,-137"/>
<text text-anchor="start" x="24" y="-155" font-family="Helvetica,sans-Serif" font-size="10.00">mh::GeneticAlgorithm</text>
<text text-anchor="middle" x="71.5" y="-144" font-family="Helvetica,sans-Serif" font-size="10.00">::findOptimal</text>
</a>
</g>
</g>
<!-- Node3&#45;&gt;Node4 -->
<g id="edge3" class="edge">
<title>Node3&#45;&gt;Node4</title>
<path fill="none" stroke="midnightblue" d="M168.5,-136.61C154.92,-138.79 140.57,-141.09 127.22,-143.23"/>
<polygon fill="midnightblue" stroke="midnightblue" points="169.39,-140.02 178.71,-134.98 168.28,-133.11 169.39,-140.02"/>
</g>
<!-- Node5 -->
<g id="node5" class="node">
<title>Node5</title>
<g id="a_node5"><a xlink:href="classmh_1_1_memetic_algorithm.html#ab15cea2b9f7127cd01db9af011142687" target="_top" xlink:title="Finds a near optimal solution to the problem using the Memetic Algorithm.">
<polygon fill="white" stroke="black" points="14,-88 14,-118 129,-118 129,-88 14,-88"/>
<text text-anchor="start" x="22" y="-106" font-family="Helvetica,sans-Serif" font-size="10.00">mh::MemeticAlgorithm</text>
<text text-anchor="middle" x="71.5" y="-95" font-family="Helvetica,sans-Serif" font-size="10.00">::findOptimal</text>
</a>
</g>
</g>
<!-- Node3&#45;&gt;Node5 -->
<g id="edge4" class="edge">
<title>Node3&#45;&gt;Node5</title>
<path fill="none" stroke="midnightblue" d="M168.52,-117.77C155.58,-115.78 141.94,-113.68 129.14,-111.71"/>
<polygon fill="midnightblue" stroke="midnightblue" points="168.3,-121.28 178.71,-119.34 169.36,-114.36 168.3,-121.28"/>
</g>
<!-- Node7 -->
<g id="node7" class="node">
<title>Node7</title>
<g id="a_node7"><a xlink:href="classmh_1_1_metaheuristic.html#a587e655f724797038c8de993832f7caa" target="_top" xlink:title="Generates a random solution to the problem.">
<polygon fill="white" stroke="black" points="179,-63 179,-93 280,-93 280,-63 179,-63"/>
<text text-anchor="start" x="187" y="-81" font-family="Helvetica,sans-Serif" font-size="10.00">mh::Metaheuristic::</text>
<text text-anchor="middle" x="229.5" y="-70" font-family="Helvetica,sans-Serif" font-size="10.00">randomSolution</text>
</a>
</g>
</g>
<!-- Node6&#45;&gt;Node7 -->
<g id="edge6" class="edge">
<title>Node6&#45;&gt;Node7</title>
<path fill="none" stroke="midnightblue" d="M305.51,-78C296.93,-78 288.45,-78 280.45,-78"/>
<polygon fill="midnightblue" stroke="midnightblue" points="305.6,-81.5 315.6,-78 305.6,-74.5 305.6,-81.5"/>
</g>
<!-- Node7&#45;&gt;Node4 -->
<g id="edge7" class="edge">
<title>Node7&#45;&gt;Node4</title>
<path fill="none" stroke="midnightblue" d="M186.25,-97.86C183.77,-99.22 181.34,-100.6 179,-102 162.06,-112.12 160.54,-118.94 143,-128 136.68,-131.26 129.82,-134.23 122.95,-136.88"/>
<polygon fill="midnightblue" stroke="midnightblue" points="188.1,-100.84 195.33,-93.09 184.85,-94.65 188.1,-100.84"/>
</g>
<!-- Node7&#45;&gt;Node5 -->
<g id="edge9" class="edge">
<title>Node7&#45;&gt;Node5</title>
<path fill="none" stroke="midnightblue" d="M168.52,-87.61C155.58,-89.69 141.94,-91.87 129.14,-93.92"/>
<polygon fill="midnightblue" stroke="midnightblue" points="169.39,-91.02 178.71,-85.98 168.28,-84.11 169.39,-91.02"/>
</g>
<!-- Node8 -->
<g id="node8" class="node">
<title>Node8</title>
<g id="a_node8"><a xlink:href="classmh_1_1_iterated_local_search.html#abe4fc7258b131bd9cc6ee2a46a853305" target="_top" xlink:title="Finds a near optimal solution to the problem using Iterated Local Search.">
<polygon fill="white" stroke="black" points="10.5,-39 10.5,-69 132.5,-69 132.5,-39 10.5,-39"/>
<text text-anchor="start" x="18.5" y="-57" font-family="Helvetica,sans-Serif" font-size="10.00">mh::IteratedLocalSearch</text>
<text text-anchor="middle" x="71.5" y="-46" font-family="Helvetica,sans-Serif" font-size="10.00">::findOptimal</text>
</a>
</g>
</g>
<!-- Node7&#45;&gt;Node8 -->
<g id="edge8" class="edge">
<title>Node7&#45;&gt;Node8</title>
<path fill="none" stroke="midnightblue" d="M168.57,-68.78C156.82,-66.97 144.49,-65.08 132.73,-63.27"/>
<polygon fill="midnightblue" stroke="midnightblue" points="168.3,-72.28 178.71,-70.34 169.36,-65.36 168.3,-72.28"/>
</g>
<!-- Node9 -->
<g id="node9" class="node">
<title>Node9</title>
<g id="a_node9"><a xlink:href="classmh_1_1_tabu_search.html#a710549972412c1af94dccf32f51881b6" target="_top" xlink:title="Finds a near optimal solution to the problem using Tabu Search.">
<polygon fill="white" stroke="black" points="0,-0.5 0,-19.5 143,-19.5 143,-0.5 0,-0.5"/>
<text text-anchor="middle" x="71.5" y="-7.5" font-family="Helvetica,sans-Serif" font-size="10.00">mh::TabuSearch::findOptimal</text>
</a>
</g>
</g>
<!-- Node7&#45;&gt;Node9 -->
<g id="edge10" class="edge">
<title>Node7&#45;&gt;Node9</title>
<path fill="none" stroke="midnightblue" d="M196.96,-57.32C181.24,-47.7 161.64,-36.7 143,-29 134.1,-25.32 124.27,-22.15 114.84,-19.51"/>
<polygon fill="midnightblue" stroke="midnightblue" points="195.4,-60.47 205.74,-62.8 199.11,-54.53 195.4,-60.47"/>
</g>
</g>
</svg>
