<?xml version="1.0" encoding="UTF-8" standalone="no"?>
<!DOCTYPE svg PUBLIC "-//W3C//DTD SVG 1.1//EN"
 "http://www.w3.org/Graphics/SVG/1.1/DTD/svg11.dtd">
<!-- Generated by graphviz version 2.50.0 (20211204.2007)
 -->
<!-- Title: mh::Metaheuristic::crossover Pages: 1 -->
<svg width="497pt" height="186pt"
 viewBox="0.00 0.00 497.00 186.00" xmlns="http://www.w3.org/2000/svg" xmlns:xlink="http://www.w3.org/1999/xlink">
<g id="graph0" class="graph" transform="scale(1 1) rotate(0) translate(4 182)">
<title>mh::Metaheuristic::crossover</title>
<polygon fill="white" stroke="transparent" points="-4,4 -4,-182 493,-182 493,4 -4,4"/>
<!-- Node1 -->
<g id="node1" class="node">
<title>Node1</title>
<g id="a_node1"><a xlink:title="Applies Uniform Order Based Crossover on parent solutions.">
<polygon fill="#bfbfbf" stroke="black" points="0,-48.5 0,-78.5 101,-78.5 101,-48.5 0,-48.5"/>
<text text-anchor="start" x="8" y="-66.5" font-family="Helvetica,sans-Serif" font-size="10.00">mh::Metaheuristic::</text>
<text text-anchor="middle" x="50.5" y="-55.5" font-family="Helvetica,sans-Serif" font-size="10.00">crossover</text>
</a>
</g>
</g>
<!-- Node2 -->
<g id="node2" class="node">
<title>Node2</title>
<g id="a_node2"><a xlink:href="classopp_1_1_travelling_salesman_problem.html#a9e757a47610652d9f057d032c9da15b2" target="_top" xlink:title="Applies Uniform Order Based Crossover on parent solutions.">
<polygon fill="white" stroke="black" points="137,-73.5 137,-103.5 295,-103.5 295,-73.5 137,-73.5"/>
<text text-anchor="start" x="145" y="-91.5" font-family="Helvetica,sans-Serif" font-size="10.00">opp::TravellingSalesmanProblem</text>
<text text-anchor="middle" x="216" y="-80.5" font-family="Helvetica,sans-Serif" font-size="10.00">::crossover</text>
</a>
</g>
</g>
<!-- Node1&#45;&gt;Node2 -->
<g id="edge1" class="edge">
<title>Node1&#45;&gt;Node2</title>
<path fill="none" stroke="midnightblue" d="M101.44,-71.14C109.48,-72.36 117.99,-73.67 126.61,-74.98"/>
<polygon fill="midnightblue" stroke="midnightblue" points="126.33,-78.48 136.75,-76.53 127.39,-71.56 126.33,-78.48"/>
</g>
<!-- Node7 -->
<g id="node7" class="node">
<title>Node7</title>
<g id="a_node7"><a xlink:href="classopp_1_1_travelling_salesman_problem.html#a96e3fd9334553d069a582442f8a64636" target="_top" xlink:title="Selects a solution from the population using Tournament Selection.">
<polygon fill="white" stroke="black" points="137,-24.5 137,-54.5 295,-54.5 295,-24.5 137,-24.5"/>
<text text-anchor="start" x="145" y="-42.5" font-family="Helvetica,sans-Serif" font-size="10.00">opp::TravellingSalesmanProblem</text>
<text text-anchor="middle" x="216" y="-31.5" font-family="Helvetica,sans-Serif" font-size="10.00">::select</text>
</a>
</g>
</g>
<!-- Node1&#45;&gt;Node7 -->
<g id="edge6" class="edge">
<title>Node1&#45;&gt;Node7</title>
<path fill="none" stroke="midnightblue" d="M101.44,-56.17C109.48,-54.99 117.99,-53.74 126.61,-52.47"/>
<polygon fill="midnightblue" stroke="midnightblue" points="127.36,-55.9 136.75,-50.99 126.35,-48.98 127.36,-55.9"/>
</g>
<!-- Node3 -->
<g id="node3" class="node">
<title>Node3</title>
<g id="a_node3"><a xlink:href="classopp_1_1_travelling_salesman_problem.html#a52d3edebcccbc4626a274debfe825bea" target="_top" xlink:title="Used in Crossover to copy the changed elements of parents to children after reordering.">
<polygon fill="white" stroke="black" points="331,-147.5 331,-177.5 489,-177.5 489,-147.5 331,-147.5"/>
<text text-anchor="start" x="339" y="-165.5" font-family="Helvetica,sans-Serif" font-size="10.00">opp::TravellingSalesmanProblem</text>
<text text-anchor="middle" x="410" y="-154.5" font-family="Helvetica,sans-Serif" font-size="10.00">::copyChanged</text>
</a>
</g>
</g>
<!-- Node2&#45;&gt;Node3 -->
<g id="edge2" class="edge">
<title>Node2&#45;&gt;Node3</title>
<path fill="none" stroke="midnightblue" d="M248.54,-103.5C271.2,-113.99 302.64,-127.96 331,-138.5 336.23,-140.44 341.69,-142.36 347.2,-144.2"/>
<polygon fill="midnightblue" stroke="midnightblue" points="346.52,-147.66 357.11,-147.45 348.7,-141.01 346.52,-147.66"/>
</g>
<!-- Node4 -->
<g id="node4" class="node">
<title>Node4</title>
<g id="a_node4"><a xlink:href="classopp_1_1_travelling_salesman_problem.html#afba4ae9684a9aeb61afd365ff9a44f8b" target="_top" xlink:title="Used in Crossover to copy the preserved elements of parents to children and determine the elements to...">
<polygon fill="white" stroke="black" points="331,-98.5 331,-128.5 489,-128.5 489,-98.5 331,-98.5"/>
<text text-anchor="start" x="339" y="-116.5" font-family="Helvetica,sans-Serif" font-size="10.00">opp::TravellingSalesmanProblem</text>
<text text-anchor="middle" x="410" y="-105.5" font-family="Helvetica,sans-Serif" font-size="10.00">::copyPreserved</text>
</a>
</g>
</g>
<!-- Node2&#45;&gt;Node4 -->
<g id="edge3" class="edge">
<title>Node2&#45;&gt;Node4</title>
<path fill="none" stroke="midnightblue" d="M295.09,-98.67C303.6,-99.78 312.3,-100.91 320.92,-102.03"/>
<polygon fill="midnightblue" stroke="midnightblue" points="320.61,-105.52 330.98,-103.34 321.51,-98.58 320.61,-105.52"/>
</g>
<!-- Node5 -->
<g id="node5" class="node">
<title>Node5</title>
<g id="a_node5"><a xlink:href="classopp_1_1_travelling_salesman_problem.html#a4c5f4ebeff9e699b194ab4ced7c7c63e" target="_top" xlink:title="Calculates the cost of a solution.">
<polygon fill="white" stroke="black" points="331,-49.5 331,-79.5 489,-79.5 489,-49.5 331,-49.5"/>
<text text-anchor="start" x="339" y="-67.5" font-family="Helvetica,sans-Serif" font-size="10.00">opp::TravellingSalesmanProblem</text>
<text text-anchor="middle" x="410" y="-56.5" font-family="Helvetica,sans-Serif" font-size="10.00">::cost</text>
</a>
</g>
</g>
<!-- Node2&#45;&gt;Node5 -->
<g id="edge4" class="edge">
<title>Node2&#45;&gt;Node5</title>
<path fill="none" stroke="midnightblue" d="M295.09,-78.74C303.6,-77.67 312.3,-76.59 320.92,-75.51"/>
<polygon fill="midnightblue" stroke="midnightblue" points="321.49,-78.97 330.98,-74.25 320.62,-72.02 321.49,-78.97"/>
</g>
<!-- Node6 -->
<g id="node6" class="node">
<title>Node6</title>
<g id="a_node6"><a xlink:href="classopp_1_1_travelling_salesman_problem.html#ab72e1a01bb055ec959983662c4876d64" target="_top" xlink:title="Used in Crossover to reorder the elements to be changed in respect to their order in the other parent...">
<polygon fill="white" stroke="black" points="331,-0.5 331,-30.5 489,-30.5 489,-0.5 331,-0.5"/>
<text text-anchor="start" x="339" y="-18.5" font-family="Helvetica,sans-Serif" font-size="10.00">opp::TravellingSalesmanProblem</text>
<text text-anchor="middle" x="410" y="-7.5" font-family="Helvetica,sans-Serif" font-size="10.00">::reorder</text>
</a>
</g>
</g>
<!-- Node2&#45;&gt;Node6 -->
<g id="edge5" class="edge">
<title>Node2&#45;&gt;Node6</title>
<path fill="none" stroke="midnightblue" d="M273.14,-73.38C280.62,-70.75 288.09,-67.78 295,-64.5 312.37,-56.25 313.68,-48.85 331,-40.5 335.68,-38.24 340.62,-36.12 345.64,-34.14"/>
<polygon fill="midnightblue" stroke="midnightblue" points="347.22,-37.29 355.36,-30.51 344.77,-30.73 347.22,-37.29"/>
</g>
</g>
</svg>
