<?xml version="1.0" encoding="UTF-8" standalone="no"?>
<!DOCTYPE svg PUBLIC "-//W3C//DTD SVG 1.1//EN"
 "http://www.w3.org/Graphics/SVG/1.1/DTD/svg11.dtd">
<!-- Generated by graphviz version 2.50.0 (20211204.2007)
 -->
<!-- Title: mh::IteratedLocalSearch Pages: 1 -->
<svg width="166pt" height="872pt"
 viewBox="0.00 0.00 166.00 872.00" xmlns="http://www.w3.org/2000/svg" xmlns:xlink="http://www.w3.org/1999/xlink">
<g id="graph0" class="graph" transform="scale(1 1) rotate(0) translate(4 868)">
<title>mh::IteratedLocalSearch</title>
<polygon fill="white" stroke="transparent" points="-4,4 -4,-868 162,-868 162,4 -4,4"/>
<!-- Node1 -->
<g id="node1" class="node">
<title>Node1</title>
<g id="a_node1"><a xlink:title="Represents the use of Iterated Local Search to solve a problem.">
<polygon fill="#bfbfbf" stroke="black" points="18,-0.5 18,-123.5 140,-123.5 140,-0.5 18,-0.5"/>
<text text-anchor="middle" x="79" y="-111.5" font-family="Helvetica,sans-Serif" font-size="10.00">mh::IteratedLocalSearch</text>
<polyline fill="none" stroke="black" points="18,-104.5 140,-104.5 "/>
<text text-anchor="start" x="26" y="-92.5" font-family="Helvetica,sans-Serif" font-size="10.00">&#45; prtMax</text>
<text text-anchor="start" x="26" y="-81.5" font-family="Helvetica,sans-Serif" font-size="10.00">&#45; rstMax</text>
<text text-anchor="start" x="26" y="-70.5" font-family="Helvetica,sans-Serif" font-size="10.00">&#45; lclMax</text>
<polyline fill="none" stroke="black" points="18,-63.5 140,-63.5 "/>
<text text-anchor="start" x="26" y="-51.5" font-family="Helvetica,sans-Serif" font-size="10.00">+ IteratedLocalSearch()</text>
<text text-anchor="start" x="26" y="-40.5" font-family="Helvetica,sans-Serif" font-size="10.00">+ operator=()</text>
<text text-anchor="start" x="26" y="-29.5" font-family="Helvetica,sans-Serif" font-size="10.00">+ IteratedLocalSearch()</text>
<text text-anchor="start" x="26" y="-18.5" font-family="Helvetica,sans-Serif" font-size="10.00">+ perturb()</text>
<text text-anchor="start" x="26" y="-7.5" font-family="Helvetica,sans-Serif" font-size="10.00">+ findOptimal()</text>
</a>
</g>
</g>
<!-- Node2 -->
<g id="node2" class="node">
<title>Node2</title>
<g id="a_node2"><a xlink:href="classmh_1_1_metaheuristic.html" target="_top" xlink:title="Represents a metaheuristic used to solve a problem.">
<polygon fill="white" stroke="black" points="30,-161.5 30,-317.5 128,-317.5 128,-161.5 30,-161.5"/>
<text text-anchor="middle" x="79" y="-305.5" font-family="Helvetica,sans-Serif" font-size="10.00">mh::Metaheuristic</text>
<polyline fill="none" stroke="black" points="30,-298.5 128,-298.5 "/>
<text text-anchor="middle" x="79" y="-286.5" font-family="Helvetica,sans-Serif" font-size="10.00"> </text>
<polyline fill="none" stroke="black" points="30,-279.5 128,-279.5 "/>
<text text-anchor="start" x="38" y="-267.5" font-family="Helvetica,sans-Serif" font-size="10.00">+ Metaheuristic()</text>
<text text-anchor="start" x="38" y="-256.5" font-family="Helvetica,sans-Serif" font-size="10.00">+ operator=()</text>
<text text-anchor="start" x="38" y="-245.5" font-family="Helvetica,sans-Serif" font-size="10.00">+ ~Metaheuristic()</text>
<text text-anchor="start" x="38" y="-234.5" font-family="Helvetica,sans-Serif" font-size="10.00">+ findOptimal()</text>
<text text-anchor="start" x="38" y="-223.5" font-family="Helvetica,sans-Serif" font-size="10.00"># Metaheuristic()</text>
<text text-anchor="start" x="38" y="-212.5" font-family="Helvetica,sans-Serif" font-size="10.00"># generateMove()</text>
<text text-anchor="start" x="38" y="-201.5" font-family="Helvetica,sans-Serif" font-size="10.00"># neighbour()</text>
<text text-anchor="start" x="38" y="-190.5" font-family="Helvetica,sans-Serif" font-size="10.00"># neighbour()</text>
<text text-anchor="start" x="38" y="-179.5" font-family="Helvetica,sans-Serif" font-size="10.00"># randomSolution()</text>
<text text-anchor="start" x="38" y="-168.5" font-family="Helvetica,sans-Serif" font-size="10.00"># crossover()</text>
</a>
</g>
</g>
<!-- Node2&#45;&gt;Node1 -->
<g id="edge1" class="edge">
<title>Node2&#45;&gt;Node1</title>
<path fill="none" stroke="midnightblue" d="M79,-151.19C79,-141.87 79,-132.56 79,-123.65"/>
<polygon fill="none" stroke="midnightblue" points="75.5,-151.27 79,-161.27 82.5,-151.27 75.5,-151.27"/>
</g>
<!-- Node3 -->
<g id="node3" class="node">
<title>Node3</title>
<g id="a_node3"><a xlink:href="classopp_1_1_travelling_salesman_problem.html" target="_top" xlink:title="Representation of the Euclidean Travelling Salesman Problem.">
<polygon fill="white" stroke="black" points="0,-365.5 0,-598.5 158,-598.5 158,-365.5 0,-365.5"/>
<text text-anchor="middle" x="79" y="-586.5" font-family="Helvetica,sans-Serif" font-size="10.00">opp::TravellingSalesmanProblem</text>
<polyline fill="none" stroke="black" points="0,-579.5 158,-579.5 "/>
<text text-anchor="start" x="8" y="-567.5" font-family="Helvetica,sans-Serif" font-size="10.00">&#45; sz</text>
<text text-anchor="start" x="8" y="-556.5" font-family="Helvetica,sans-Serif" font-size="10.00">&#45; trmMax</text>
<text text-anchor="start" x="8" y="-545.5" font-family="Helvetica,sans-Serif" font-size="10.00">&#45; distanceMatrix</text>
<text text-anchor="start" x="8" y="-534.5" font-family="Helvetica,sans-Serif" font-size="10.00">&#45; boundingBox</text>
<text text-anchor="start" x="8" y="-523.5" font-family="Helvetica,sans-Serif" font-size="10.00">&#45; rd</text>
<text text-anchor="start" x="8" y="-512.5" font-family="Helvetica,sans-Serif" font-size="10.00">&#45; rng</text>
<polyline fill="none" stroke="black" points="0,-505.5 158,-505.5 "/>
<text text-anchor="start" x="8" y="-493.5" font-family="Helvetica,sans-Serif" font-size="10.00">+ TravellingSalesmanProblem()</text>
<text text-anchor="start" x="8" y="-482.5" font-family="Helvetica,sans-Serif" font-size="10.00">+ generateMove()</text>
<text text-anchor="start" x="8" y="-471.5" font-family="Helvetica,sans-Serif" font-size="10.00">+ neighbour()</text>
<text text-anchor="start" x="8" y="-460.5" font-family="Helvetica,sans-Serif" font-size="10.00">+ randomSolution()</text>
<text text-anchor="start" x="8" y="-449.5" font-family="Helvetica,sans-Serif" font-size="10.00">+ select()</text>
<text text-anchor="start" x="8" y="-438.5" font-family="Helvetica,sans-Serif" font-size="10.00">+ crossover()</text>
<text text-anchor="start" x="8" y="-427.5" font-family="Helvetica,sans-Serif" font-size="10.00">+ cost()</text>
<text text-anchor="start" x="8" y="-416.5" font-family="Helvetica,sans-Serif" font-size="10.00">+ getOptimal()</text>
<text text-anchor="start" x="8" y="-405.5" font-family="Helvetica,sans-Serif" font-size="10.00">+ setOptimal()</text>
<text text-anchor="start" x="8" y="-394.5" font-family="Helvetica,sans-Serif" font-size="10.00">&#45; copyPreserved()</text>
<text text-anchor="start" x="8" y="-383.5" font-family="Helvetica,sans-Serif" font-size="10.00">&#45; reorder()</text>
<text text-anchor="start" x="8" y="-372.5" font-family="Helvetica,sans-Serif" font-size="10.00">&#45; copyChanged()</text>
</a>
</g>
</g>
<!-- Node3&#45;&gt;Node2 -->
<g id="edge2" class="edge">
<title>Node3&#45;&gt;Node2</title>
<path fill="none" stroke="#404040" d="M79,-365.33C79,-353.49 79,-341.59 79,-330.09"/>
<polygon fill="none" stroke="#404040" points="79,-329.79 75,-323.79 79,-317.79 83,-323.79 79,-329.79"/>
<text text-anchor="middle" x="89" y="-339" font-family="Helvetica,sans-Serif" font-size="10.00"> &#45;tsp</text>
</g>
<!-- Node4 -->
<g id="node4" class="node">
<title>Node4</title>
<g id="a_node4"><a xlink:href="structopp_1_1_solution.html" target="_top" xlink:title="Represents a solution to the Travelling Salesman Problem.">
<polygon fill="white" stroke="black" points="42,-646.5 42,-725.5 116,-725.5 116,-646.5 42,-646.5"/>
<text text-anchor="middle" x="79" y="-713.5" font-family="Helvetica,sans-Serif" font-size="10.00">opp::Solution</text>
<polyline fill="none" stroke="black" points="42,-706.5 116,-706.5 "/>
<text text-anchor="start" x="50" y="-694.5" font-family="Helvetica,sans-Serif" font-size="10.00">+ order</text>
<text text-anchor="start" x="50" y="-683.5" font-family="Helvetica,sans-Serif" font-size="10.00">+ cost</text>
<polyline fill="none" stroke="black" points="42,-676.5 116,-676.5 "/>
<text text-anchor="start" x="50" y="-664.5" font-family="Helvetica,sans-Serif" font-size="10.00">+ Solution()</text>
<text text-anchor="start" x="50" y="-653.5" font-family="Helvetica,sans-Serif" font-size="10.00">+ Solution()</text>
</a>
</g>
</g>
<!-- Node4&#45;&gt;Node3 -->
<g id="edge3" class="edge">
<title>Node4&#45;&gt;Node3</title>
<path fill="none" stroke="#404040" d="M79,-646.05C79,-635.54 79,-623.56 79,-610.98"/>
<polygon fill="none" stroke="#404040" points="79,-610.77 75,-604.77 79,-598.77 83,-604.77 79,-610.77"/>
<text text-anchor="middle" x="98" y="-620" font-family="Helvetica,sans-Serif" font-size="10.00"> &#45;optimal</text>
</g>
<!-- Node5 -->
<g id="node5" class="node">
<title>Node5</title>
<g id="a_node5"><a xlink:href="structopp_1_1_move.html" target="_top" xlink:title="Represents a move, that is a transposition of two cities in a path.">
<polygon fill="white" stroke="black" points="39.5,-773.5 39.5,-863.5 118.5,-863.5 118.5,-773.5 39.5,-773.5"/>
<text text-anchor="middle" x="79" y="-851.5" font-family="Helvetica,sans-Serif" font-size="10.00">opp::Move</text>
<polyline fill="none" stroke="black" points="39.5,-844.5 118.5,-844.5 "/>
<text text-anchor="start" x="47.5" y="-832.5" font-family="Helvetica,sans-Serif" font-size="10.00">+ cityA</text>
<text text-anchor="start" x="47.5" y="-821.5" font-family="Helvetica,sans-Serif" font-size="10.00">+ indexA</text>
<text text-anchor="start" x="47.5" y="-810.5" font-family="Helvetica,sans-Serif" font-size="10.00">+ cityB</text>
<text text-anchor="start" x="47.5" y="-799.5" font-family="Helvetica,sans-Serif" font-size="10.00">+ indexB</text>
<polyline fill="none" stroke="black" points="39.5,-792.5 118.5,-792.5 "/>
<text text-anchor="start" x="47.5" y="-780.5" font-family="Helvetica,sans-Serif" font-size="10.00">+ operator==()</text>
</a>
</g>
</g>
<!-- Node5&#45;&gt;Node4 -->
<g id="edge4" class="edge">
<title>Node5&#45;&gt;Node4</title>
<path fill="none" stroke="#404040" d="M79,-773.32C79,-762.02 79,-749.79 79,-738.17"/>
<polygon fill="none" stroke="#404040" points="79,-737.89 75,-731.89 79,-725.89 83,-731.89 79,-737.89"/>
<text text-anchor="middle" x="107" y="-747" font-family="Helvetica,sans-Serif" font-size="10.00"> +moveMade</text>
</g>
</g>
</svg>
