<?xml version="1.0" encoding="UTF-8" standalone="no"?>
<!DOCTYPE svg PUBLIC "-//W3C//DTD SVG 1.1//EN"
 "http://www.w3.org/Graphics/SVG/1.1/DTD/svg11.dtd">
<!-- Generated by graphviz version 2.50.0 (20211204.2007)
 -->
<!-- Title: mh::MemeticAlgorithm::findOptimal Pages: 1 -->
<!--zoomable 294 -->
<svg id="main" version="1.1" xmlns="http://www.w3.org/2000/svg" xmlns:xlink="http://www.w3.org/1999/xlink" xml:space="preserve" onload="init(evt)">
<style type="text/css"><![CDATA[
.edge:hover path { stroke: red; }
.edge:hover polygon { stroke: red; fill: red; }
]]></style>
<script type="text/javascript"><![CDATA[
var edges = document.getElementsByTagName('g');
if (edges && edges.length) {
  for (var i=0;i<edges.length;i++) {
    if (edges[i].id.substr(0,4)=='edge') {
      edges[i].setAttribute('class','edge');
    }
  }
}
]]></script>
        <defs>
                <circle id="rim" cx="0" cy="0" r="7"/>
                <circle id="rim2" cx="0" cy="0" r="3.5"/>
                <g id="zoomPlus">
                        <use xlink:href="#rim" fill="#404040">
                                <set attributeName="fill" to="#808080" begin="zoomplus.mouseover" end="zoomplus.mouseout"/>
                        </use>
                        <path d="M-4,0h8M0,-4v8" fill="none" stroke="white" stroke-width="1.5" pointer-events="none"/>
                </g>
                <g id="zoomMin">
                        <use xlink:href="#rim" fill="#404040">
                                <set attributeName="fill" to="#808080" begin="zoomminus.mouseover" end="zoomminus.mouseout"/>
                        </use>
                        <path d="M-4,0h8" fill="none" stroke="white" stroke-width="1.5" pointer-events="none"/>
                </g>
                <g id="dirArrow">
                        <path fill="none" stroke="white" stroke-width="1.5" d="M0,-3.0v7 M-2.5,-0.5L0,-3.0L2.5,-0.5"/>
                </g>
               <g id="resetDef">
                       <use xlink:href="#rim2" fill="#404040">
                               <set attributeName="fill" to="#808080" begin="reset.mouseover" end="reset.mouseout"/>
                       </use>
               </g>
        </defs>

<script type="text/javascript">
var viewWidth = 662;
var viewHeight = 294;
var sectionId = 'dynsection-2';
</script>
<script xlink:href="svgpan.js"/>
<svg id="graph" class="graph">
<g id="viewport">
<title>mh::MemeticAlgorithm::findOptimal</title>
<polygon fill="white" stroke="transparent" points="-4,4 -4,-290 658,-290 658,4 -4,4"/>
<!-- Node1 -->
<g id="node1" class="node">
<title>Node1</title>
<g id="a_node1"><a xlink:title="Finds a near optimal solution to the problem using the Memetic Algorithm.">
<polygon fill="#bfbfbf" stroke="black" points="0,-86.5 0,-116.5 115,-116.5 115,-86.5 0,-86.5"/>
<text text-anchor="start" x="8" y="-104.5" font-family="Helvetica,sans-Serif" font-size="10.00">mh::MemeticAlgorithm</text>
<text text-anchor="middle" x="57.5" y="-93.5" font-family="Helvetica,sans-Serif" font-size="10.00">::findOptimal</text>
</a>
</g>
</g>
<!-- Node2 -->
<g id="node2" class="node">
<title>Node2</title>
<g id="a_node2"><a xlink:href="classmh_1_1_metaheuristic.html#aaf40e20b2f6063c1e6420ac3459cb647" target="_top" xlink:title="Applies Uniform Order Based Crossover on parent solutions.">
<polygon fill="white" stroke="black" points="158,-157.5 158,-187.5 259,-187.5 259,-157.5 158,-157.5"/>
<text text-anchor="start" x="166" y="-175.5" font-family="Helvetica,sans-Serif" font-size="10.00">mh::Metaheuristic::</text>
<text text-anchor="middle" x="208.5" y="-164.5" font-family="Helvetica,sans-Serif" font-size="10.00">crossover</text>
</a>
</g>
</g>
<!-- Node1&#45;&gt;Node2 -->
<g id="edge1" class="edge">
<title>Node1&#45;&gt;Node2</title>
<path fill="none" stroke="midnightblue" d="M87,-116.62C105.16,-126.09 129.28,-138.38 151,-148.5 154.39,-150.08 157.91,-151.67 161.46,-153.25"/>
<polygon fill="midnightblue" stroke="midnightblue" points="160.3,-156.57 170.87,-157.37 163.11,-150.15 160.3,-156.57"/>
</g>
<!-- Node9 -->
<g id="node9" class="node">
<title>Node9</title>
<g id="a_node9"><a xlink:href="classmh_1_1_memetic_algorithm.html#af39272a928e81eed1e2b6a78c9c9a6ce" target="_top" xlink:title="Applies a local search to the solution.">
<polygon fill="white" stroke="black" points="151,-20.5 151,-50.5 266,-50.5 266,-20.5 151,-20.5"/>
<text text-anchor="start" x="159" y="-38.5" font-family="Helvetica,sans-Serif" font-size="10.00">mh::MemeticAlgorithm</text>
<text text-anchor="middle" x="208.5" y="-27.5" font-family="Helvetica,sans-Serif" font-size="10.00">::localSearch</text>
</a>
</g>
</g>
<!-- Node1&#45;&gt;Node9 -->
<g id="edge8" class="edge">
<title>Node1&#45;&gt;Node9</title>
<path fill="none" stroke="midnightblue" d="M92.68,-86.36C113.88,-76.97 141.32,-64.82 164.05,-54.75"/>
<polygon fill="midnightblue" stroke="midnightblue" points="165.75,-57.82 173.48,-50.57 162.91,-51.42 165.75,-57.82"/>
</g>
<!-- Node10 -->
<g id="node10" class="node">
<title>Node10</title>
<g id="a_node10"><a xlink:href="classmh_1_1_metaheuristic.html#a17ee0cbdd097192f6a205c57133a5717" target="_top" xlink:title="Applies a move to a solution.">
<polygon fill="white" stroke="black" points="330.5,-39.5 330.5,-69.5 431.5,-69.5 431.5,-39.5 330.5,-39.5"/>
<text text-anchor="start" x="338.5" y="-57.5" font-family="Helvetica,sans-Serif" font-size="10.00">mh::Metaheuristic::</text>
<text text-anchor="middle" x="381" y="-46.5" font-family="Helvetica,sans-Serif" font-size="10.00">neighbour</text>
</a>
</g>
</g>
<!-- Node1&#45;&gt;Node10 -->
<g id="edge12" class="edge">
<title>Node1&#45;&gt;Node10</title>
<path fill="none" stroke="midnightblue" d="M115.24,-93.21C172.8,-84.79 261.55,-71.82 320.19,-63.24"/>
<polygon fill="midnightblue" stroke="midnightblue" points="321.03,-66.66 330.42,-61.75 320.02,-59.73 321.03,-66.66"/>
</g>
<!-- Node13 -->
<g id="node13" class="node">
<title>Node13</title>
<g id="a_node13"><a xlink:href="classmh_1_1_metaheuristic.html#a587e655f724797038c8de993832f7caa" target="_top" xlink:title="Generates a random solution to the problem.">
<polygon fill="white" stroke="black" points="158,-108.5 158,-138.5 259,-138.5 259,-108.5 158,-108.5"/>
<text text-anchor="start" x="166" y="-126.5" font-family="Helvetica,sans-Serif" font-size="10.00">mh::Metaheuristic::</text>
<text text-anchor="middle" x="208.5" y="-115.5" font-family="Helvetica,sans-Serif" font-size="10.00">randomSolution</text>
</a>
</g>
</g>
<!-- Node1&#45;&gt;Node13 -->
<g id="edge13" class="edge">
<title>Node1&#45;&gt;Node13</title>
<path fill="none" stroke="midnightblue" d="M115.26,-109.88C125.85,-111.44 136.95,-113.08 147.64,-114.66"/>
<polygon fill="midnightblue" stroke="midnightblue" points="147.32,-118.15 157.72,-116.15 148.34,-111.23 147.32,-118.15"/>
</g>
<!-- Node3 -->
<g id="node3" class="node">
<title>Node3</title>
<g id="a_node3"><a xlink:href="classopp_1_1_travelling_salesman_problem.html#a9e757a47610652d9f057d032c9da15b2" target="_top" xlink:title="Applies Uniform Order Based Crossover on parent solutions.">
<polygon fill="white" stroke="black" points="302,-206.5 302,-236.5 460,-236.5 460,-206.5 302,-206.5"/>
<text text-anchor="start" x="310" y="-224.5" font-family="Helvetica,sans-Serif" font-size="10.00">opp::TravellingSalesmanProblem</text>
<text text-anchor="middle" x="381" y="-213.5" font-family="Helvetica,sans-Serif" font-size="10.00">::crossover</text>
</a>
</g>
</g>
<!-- Node2&#45;&gt;Node3 -->
<g id="edge2" class="edge">
<title>Node2&#45;&gt;Node3</title>
<path fill="none" stroke="midnightblue" d="M259.27,-186.8C277.69,-192.1 298.79,-198.16 318.15,-203.72"/>
<polygon fill="midnightblue" stroke="midnightblue" points="317.21,-207.1 327.79,-206.5 319.15,-200.37 317.21,-207.1"/>
</g>
<!-- Node8 -->
<g id="node8" class="node">
<title>Node8</title>
<g id="a_node8"><a xlink:href="classopp_1_1_travelling_salesman_problem.html#a96e3fd9334553d069a582442f8a64636" target="_top" xlink:title="Selects a solution from the population using Tournament Selection.">
<polygon fill="white" stroke="black" points="302,-157.5 302,-187.5 460,-187.5 460,-157.5 302,-157.5"/>
<text text-anchor="start" x="310" y="-175.5" font-family="Helvetica,sans-Serif" font-size="10.00">opp::TravellingSalesmanProblem</text>
<text text-anchor="middle" x="381" y="-164.5" font-family="Helvetica,sans-Serif" font-size="10.00">::select</text>
</a>
</g>
</g>
<!-- Node2&#45;&gt;Node8 -->
<g id="edge7" class="edge">
<title>Node2&#45;&gt;Node8</title>
<path fill="none" stroke="midnightblue" d="M259.27,-172.5C269.51,-172.5 280.57,-172.5 291.71,-172.5"/>
<polygon fill="midnightblue" stroke="midnightblue" points="291.93,-176 301.93,-172.5 291.93,-169 291.93,-176"/>
</g>
<!-- Node4 -->
<g id="node4" class="node">
<title>Node4</title>
<g id="a_node4"><a xlink:href="classopp_1_1_travelling_salesman_problem.html#a52d3edebcccbc4626a274debfe825bea" target="_top" xlink:title="Used in Crossover to copy the changed elements of parents to children after reordering.">
<polygon fill="white" stroke="black" points="496,-255.5 496,-285.5 654,-285.5 654,-255.5 496,-255.5"/>
<text text-anchor="start" x="504" y="-273.5" font-family="Helvetica,sans-Serif" font-size="10.00">opp::TravellingSalesmanProblem</text>
<text text-anchor="middle" x="575" y="-262.5" font-family="Helvetica,sans-Serif" font-size="10.00">::copyChanged</text>
</a>
</g>
</g>
<!-- Node3&#45;&gt;Node4 -->
<g id="edge3" class="edge">
<title>Node3&#45;&gt;Node4</title>
<path fill="none" stroke="midnightblue" d="M440.91,-236.53C461.28,-241.73 484.27,-247.6 505.35,-252.98"/>
<polygon fill="midnightblue" stroke="midnightblue" points="504.65,-256.41 515.2,-255.49 506.38,-249.63 504.65,-256.41"/>
</g>
<!-- Node5 -->
<g id="node5" class="node">
<title>Node5</title>
<g id="a_node5"><a xlink:href="classopp_1_1_travelling_salesman_problem.html#afba4ae9684a9aeb61afd365ff9a44f8b" target="_top" xlink:title="Used in Crossover to copy the preserved elements of parents to children and determine the elements to...">
<polygon fill="white" stroke="black" points="496,-206.5 496,-236.5 654,-236.5 654,-206.5 496,-206.5"/>
<text text-anchor="start" x="504" y="-224.5" font-family="Helvetica,sans-Serif" font-size="10.00">opp::TravellingSalesmanProblem</text>
<text text-anchor="middle" x="575" y="-213.5" font-family="Helvetica,sans-Serif" font-size="10.00">::copyPreserved</text>
</a>
</g>
</g>
<!-- Node3&#45;&gt;Node5 -->
<g id="edge4" class="edge">
<title>Node3&#45;&gt;Node5</title>
<path fill="none" stroke="midnightblue" d="M460.09,-221.5C468.6,-221.5 477.3,-221.5 485.92,-221.5"/>
<polygon fill="midnightblue" stroke="midnightblue" points="485.98,-225 495.98,-221.5 485.98,-218 485.98,-225"/>
</g>
<!-- Node6 -->
<g id="node6" class="node">
<title>Node6</title>
<g id="a_node6"><a xlink:href="classopp_1_1_travelling_salesman_problem.html#a4c5f4ebeff9e699b194ab4ced7c7c63e" target="_top" xlink:title="Calculates the cost of a solution.">
<polygon fill="white" stroke="black" points="496,-108.5 496,-138.5 654,-138.5 654,-108.5 496,-108.5"/>
<text text-anchor="start" x="504" y="-126.5" font-family="Helvetica,sans-Serif" font-size="10.00">opp::TravellingSalesmanProblem</text>
<text text-anchor="middle" x="575" y="-115.5" font-family="Helvetica,sans-Serif" font-size="10.00">::cost</text>
</a>
</g>
</g>
<!-- Node3&#45;&gt;Node6 -->
<g id="edge5" class="edge">
<title>Node3&#45;&gt;Node6</title>
<path fill="none" stroke="midnightblue" d="M444.22,-206.45C449.79,-203.91 455.15,-200.95 460,-197.5 482.03,-181.85 474.06,-164.28 496,-148.5 498.65,-146.59 501.46,-144.82 504.37,-143.18"/>
<polygon fill="midnightblue" stroke="midnightblue" points="506.01,-146.28 513.37,-138.66 502.86,-140.03 506.01,-146.28"/>
</g>
<!-- Node7 -->
<g id="node7" class="node">
<title>Node7</title>
<g id="a_node7"><a xlink:href="classopp_1_1_travelling_salesman_problem.html#ab72e1a01bb055ec959983662c4876d64" target="_top" xlink:title="Used in Crossover to reorder the elements to be changed in respect to their order in the other parent...">
<polygon fill="white" stroke="black" points="496,-157.5 496,-187.5 654,-187.5 654,-157.5 496,-157.5"/>
<text text-anchor="start" x="504" y="-175.5" font-family="Helvetica,sans-Serif" font-size="10.00">opp::TravellingSalesmanProblem</text>
<text text-anchor="middle" x="575" y="-164.5" font-family="Helvetica,sans-Serif" font-size="10.00">::reorder</text>
</a>
</g>
</g>
<!-- Node3&#45;&gt;Node7 -->
<g id="edge6" class="edge">
<title>Node3&#45;&gt;Node7</title>
<path fill="none" stroke="midnightblue" d="M440.91,-206.47C461.28,-201.27 484.27,-195.4 505.35,-190.02"/>
<polygon fill="midnightblue" stroke="midnightblue" points="506.38,-193.37 515.2,-187.51 504.65,-186.59 506.38,-193.37"/>
</g>
<!-- Node9&#45;&gt;Node10 -->
<g id="edge9" class="edge">
<title>Node9&#45;&gt;Node10</title>
<path fill="none" stroke="midnightblue" d="M266.27,-41.83C283.6,-43.76 302.71,-45.89 320.23,-47.84"/>
<polygon fill="midnightblue" stroke="midnightblue" points="320.01,-51.34 330.34,-48.97 320.79,-44.38 320.01,-51.34"/>
</g>
<!-- Node11 -->
<g id="node11" class="node">
<title>Node11</title>
<g id="a_node11"><a xlink:href="classopp_1_1_travelling_salesman_problem.html#ad05c81f501fe5f191e0de39d3f8ad332" target="_top" xlink:title="Generates a move from the neighbourhood of a solution.">
<polygon fill="white" stroke="black" points="496,-49.5 496,-79.5 654,-79.5 654,-49.5 496,-49.5"/>
<text text-anchor="start" x="504" y="-67.5" font-family="Helvetica,sans-Serif" font-size="10.00">opp::TravellingSalesmanProblem</text>
<text text-anchor="middle" x="575" y="-56.5" font-family="Helvetica,sans-Serif" font-size="10.00">::generateMove</text>
</a>
</g>
</g>
<!-- Node10&#45;&gt;Node11 -->
<g id="edge10" class="edge">
<title>Node10&#45;&gt;Node11</title>
<path fill="none" stroke="midnightblue" d="M431.94,-57.1C448.35,-57.96 467.11,-58.93 485.5,-59.89"/>
<polygon fill="midnightblue" stroke="midnightblue" points="485.49,-63.39 495.66,-60.42 485.85,-56.4 485.49,-63.39"/>
</g>
<!-- Node12 -->
<g id="node12" class="node">
<title>Node12</title>
<g id="a_node12"><a xlink:href="classopp_1_1_travelling_salesman_problem.html#aa42a141024661ed6c2947358a785e982" target="_top" xlink:title="Applies a move to a solution.">
<polygon fill="white" stroke="black" points="496,-0.5 496,-30.5 654,-30.5 654,-0.5 496,-0.5"/>
<text text-anchor="start" x="504" y="-18.5" font-family="Helvetica,sans-Serif" font-size="10.00">opp::TravellingSalesmanProblem</text>
<text text-anchor="middle" x="575" y="-7.5" font-family="Helvetica,sans-Serif" font-size="10.00">::neighbour</text>
</a>
</g>
</g>
<!-- Node10&#45;&gt;Node12 -->
<g id="edge11" class="edge">
<title>Node10&#45;&gt;Node12</title>
<path fill="none" stroke="midnightblue" d="M431.94,-44.36C449.72,-40.74 470.25,-36.57 490.09,-32.54"/>
<polygon fill="midnightblue" stroke="midnightblue" points="490.96,-35.94 500.07,-30.52 489.57,-29.08 490.96,-35.94"/>
</g>
<!-- Node14 -->
<g id="node14" class="node">
<title>Node14</title>
<g id="a_node14"><a xlink:href="classopp_1_1_travelling_salesman_problem.html#a56af096a854db5ae5118445013332be5" target="_top" xlink:title="Generates a random solution to the problem.">
<polygon fill="white" stroke="black" points="302,-108.5 302,-138.5 460,-138.5 460,-108.5 302,-108.5"/>
<text text-anchor="start" x="310" y="-126.5" font-family="Helvetica,sans-Serif" font-size="10.00">opp::TravellingSalesmanProblem</text>
<text text-anchor="middle" x="381" y="-115.5" font-family="Helvetica,sans-Serif" font-size="10.00">::randomSolution</text>
</a>
</g>
</g>
<!-- Node13&#45;&gt;Node14 -->
<g id="edge14" class="edge">
<title>Node13&#45;&gt;Node14</title>
<path fill="none" stroke="midnightblue" d="M259.27,-123.5C269.51,-123.5 280.57,-123.5 291.71,-123.5"/>
<polygon fill="midnightblue" stroke="midnightblue" points="291.93,-127 301.93,-123.5 291.93,-120 291.93,-127"/>
</g>
<!-- Node14&#45;&gt;Node6 -->
<g id="edge15" class="edge">
<title>Node14&#45;&gt;Node6</title>
<path fill="none" stroke="midnightblue" d="M460.09,-123.5C468.6,-123.5 477.3,-123.5 485.92,-123.5"/>
<polygon fill="midnightblue" stroke="midnightblue" points="485.98,-127 495.98,-123.5 485.98,-120 485.98,-127"/>
</g>
</g>
</svg>
        <g id="navigator" transform="translate(0 0)" fill="#404254">
                <rect fill="#f2f5e9" fill-opacity="0.5" stroke="#606060" stroke-width=".5" x="0" y="0" width="60" height="60"/>
                <use id="zoomplus" xlink:href="#zoomPlus" x="17" y="9" onmousedown="handleZoom(evt,'in')"/>
                <use id="zoomminus" xlink:href="#zoomMin" x="42" y="9" onmousedown="handleZoom(evt,'out')"/>
                <use id="reset" xlink:href="#resetDef" x="30" y="36" onmousedown="handleReset()"/>
                <g id="arrowUp" xlink:href="#dirArrow" transform="translate(30 24)" onmousedown="handlePan(0,-1)">
                  <use xlink:href="#rim" fill="#404040">
                        <set attributeName="fill" to="#808080" begin="arrowUp.mouseover" end="arrowUp.mouseout"/>
                  </use>
                  <path fill="none" stroke="white" stroke-width="1.5" d="M0,-3.0v7 M-2.5,-0.5L0,-3.0L2.5,-0.5"/>
                </g>
                <g id="arrowRight" xlink:href="#dirArrow" transform="rotate(90) translate(36 -43)" onmousedown="handlePan(1,0)">
                  <use xlink:href="#rim" fill="#404040">
                        <set attributeName="fill" to="#808080" begin="arrowRight.mouseover" end="arrowRight.mouseout"/>
                  </use>
                  <path fill="none" stroke="white" stroke-width="1.5" d="M0,-3.0v7 M-2.5,-0.5L0,-3.0L2.5,-0.5"/>
                </g>
                <g id="arrowDown" xlink:href="#dirArrow" transform="rotate(180) translate(-30 -48)" onmousedown="handlePan(0,1)">
                  <use xlink:href="#rim" fill="#404040">
                        <set attributeName="fill" to="#808080" begin="arrowDown.mouseover" end="arrowDown.mouseout"/>
                  </use>
                  <path fill="none" stroke="white" stroke-width="1.5" d="M0,-3.0v7 M-2.5,-0.5L0,-3.0L2.5,-0.5"/>
                </g>
                <g id="arrowLeft" xlink:href="#dirArrow" transform="rotate(270) translate(-36 17)" onmousedown="handlePan(-1,0)">
                  <use xlink:href="#rim" fill="#404040">
                        <set attributeName="fill" to="#808080" begin="arrowLeft.mouseover" end="arrowLeft.mouseout"/>
                  </use>
                  <path fill="none" stroke="white" stroke-width="1.5" d="M0,-3.0v7 M-2.5,-0.5L0,-3.0L2.5,-0.5"/>
                </g>
        </g>
        <svg viewBox="0 0 15 15" width="100%" height="30px" preserveAspectRatio="xMaxYMin meet">
         <g id="arrow_out" transform="scale(0.3 0.3)">
          <a xlink:href="classmh_1_1_memetic_algorithm_ab15cea2b9f7127cd01db9af011142687_cgraph_org.svg" target="_base">
           <rect id="button" ry="5" rx="5" y="6" x="6" height="38" width="38"
                fill="#f2f5e9" fill-opacity="0.5" stroke="#606060" stroke-width="1.0"/>
           <path id="arrow"
             d="M 11.500037,31.436501 C 11.940474,20.09759 22.043105,11.32322 32.158766,21.979434 L 37.068811,17.246167 C 37.068811,17.246167 37.088388,32 37.088388,32 L 22.160133,31.978069 C 22.160133,31.978069 26.997745,27.140456 26.997745,27.140456 C 18.528582,18.264221 13.291696,25.230495 11.500037,31.436501 z"
             style="fill:#404040;"/>
          </a>
         </g>
        </svg>
</svg>
