<?xml version="1.0" encoding="UTF-8" standalone="no"?>
<!DOCTYPE svg PUBLIC "-//W3C//DTD SVG 1.1//EN"
 "http://www.w3.org/Graphics/SVG/1.1/DTD/svg11.dtd">
<!-- Generated by graphviz version 2.50.0 (20211204.2007)
 -->
<!-- Title: mh::Metaheuristic::neighbour Pages: 1 -->
<svg width="446pt" height="243pt"
 viewBox="0.00 0.00 446.00 242.76" xmlns="http://www.w3.org/2000/svg" xmlns:xlink="http://www.w3.org/1999/xlink">
<g id="graph0" class="graph" transform="scale(1 1) rotate(0) translate(4 238.76)">
<title>mh::Metaheuristic::neighbour</title>
<polygon fill="white" stroke="transparent" points="-4,4 -4,-238.76 442,-238.76 442,4 -4,4"/>
<!-- Node1 -->
<g id="node1" class="node">
<title>Node1</title>
<g id="a_node1"><a xlink:title="Applies a move to a solution.">
<polygon fill="#bfbfbf" stroke="black" points="337,-94.26 337,-124.26 438,-124.26 438,-94.26 337,-94.26"/>
<text text-anchor="start" x="345" y="-112.26" font-family="Helvetica,sans-Serif" font-size="10.00">mh::Metaheuristic::</text>
<text text-anchor="middle" x="387.5" y="-101.26" font-family="Helvetica,sans-Serif" font-size="10.00">neighbour</text>
</a>
</g>
</g>
<!-- Node2 -->
<g id="node2" class="node">
<title>Node2</title>
<g id="a_node2"><a xlink:href="classmh_1_1_genetic_algorithm.html#afc5c822f97236d13700f372837f993e0" target="_top" xlink:title="Finds a near optimal solution to the problem using the Genetic Algorithm.">
<polygon fill="white" stroke="black" points="174,-204.26 174,-234.26 285,-234.26 285,-204.26 174,-204.26"/>
<text text-anchor="start" x="182" y="-222.26" font-family="Helvetica,sans-Serif" font-size="10.00">mh::GeneticAlgorithm</text>
<text text-anchor="middle" x="229.5" y="-211.26" font-family="Helvetica,sans-Serif" font-size="10.00">::findOptimal</text>
</a>
</g>
</g>
<!-- Node1&#45;&gt;Node2 -->
<g id="edge1" class="edge">
<title>Node1&#45;&gt;Node2</title>
<path fill="none" stroke="midnightblue" d="M366.38,-132.02C350.08,-149.42 325.82,-173.1 301,-189.26 292.31,-194.92 282.36,-199.92 272.74,-204.13"/>
<polygon fill="midnightblue" stroke="midnightblue" points="369.09,-134.24 373.28,-124.52 363.94,-129.51 369.09,-134.24"/>
</g>
<!-- Node3 -->
<g id="node3" class="node">
<title>Node3</title>
<g id="a_node3"><a xlink:href="classmh_1_1_memetic_algorithm.html#ab15cea2b9f7127cd01db9af011142687" target="_top" xlink:title="Finds a near optimal solution to the problem using the Memetic Algorithm.">
<polygon fill="white" stroke="black" points="3.5,-138.26 3.5,-168.26 118.5,-168.26 118.5,-138.26 3.5,-138.26"/>
<text text-anchor="start" x="11.5" y="-156.26" font-family="Helvetica,sans-Serif" font-size="10.00">mh::MemeticAlgorithm</text>
<text text-anchor="middle" x="61" y="-145.26" font-family="Helvetica,sans-Serif" font-size="10.00">::findOptimal</text>
</a>
</g>
</g>
<!-- Node1&#45;&gt;Node3 -->
<g id="edge2" class="edge">
<title>Node1&#45;&gt;Node3</title>
<path fill="none" stroke="midnightblue" d="M357.22,-130.18C341.39,-140.2 321.02,-151.12 301,-156.26 240.11,-171.89 167.58,-167.97 118.52,-162.17"/>
<polygon fill="midnightblue" stroke="midnightblue" points="359.53,-132.84 365.98,-124.43 355.69,-126.99 359.53,-132.84"/>
</g>
<!-- Node4 -->
<g id="node4" class="node">
<title>Node4</title>
<g id="a_node4"><a xlink:href="classmh_1_1_iterated_local_search.html#abe4fc7258b131bd9cc6ee2a46a853305" target="_top" xlink:title="Finds a near optimal solution to the problem using Iterated Local Search.">
<polygon fill="white" stroke="black" points="0,-6.26 0,-36.26 122,-36.26 122,-6.26 0,-6.26"/>
<text text-anchor="start" x="8" y="-24.26" font-family="Helvetica,sans-Serif" font-size="10.00">mh::IteratedLocalSearch</text>
<text text-anchor="middle" x="61" y="-13.26" font-family="Helvetica,sans-Serif" font-size="10.00">::findOptimal</text>
</a>
</g>
</g>
<!-- Node1&#45;&gt;Node4 -->
<g id="edge3" class="edge">
<title>Node1&#45;&gt;Node4</title>
<path fill="none" stroke="midnightblue" d="M372.38,-85.53C357.7,-63.42 332.48,-31.88 301,-18.26 244.06,6.37 172.12,1.21 122.11,-7.35"/>
<polygon fill="midnightblue" stroke="midnightblue" points="369.5,-87.52 377.84,-94.06 375.4,-83.75 369.5,-87.52"/>
</g>
<!-- Node5 -->
<g id="node5" class="node">
<title>Node5</title>
<g id="a_node5"><a xlink:href="classmh_1_1_tabu_search.html#a710549972412c1af94dccf32f51881b6" target="_top" xlink:title="Finds a near optimal solution to the problem using Tabu Search.">
<polygon fill="white" stroke="black" points="158,-77.76 158,-96.76 301,-96.76 301,-77.76 158,-77.76"/>
<text text-anchor="middle" x="229.5" y="-84.76" font-family="Helvetica,sans-Serif" font-size="10.00">mh::TabuSearch::findOptimal</text>
</a>
</g>
</g>
<!-- Node1&#45;&gt;Node5 -->
<g id="edge4" class="edge">
<title>Node1&#45;&gt;Node5</title>
<path fill="none" stroke="midnightblue" d="M326.7,-100.83C317.32,-99.51 307.57,-98.13 298.03,-96.78"/>
<polygon fill="midnightblue" stroke="midnightblue" points="326.32,-104.31 336.71,-102.24 327.3,-97.38 326.32,-104.31"/>
</g>
<!-- Node6 -->
<g id="node6" class="node">
<title>Node6</title>
<g id="a_node6"><a xlink:href="classmh_1_1_memetic_algorithm.html#af39272a928e81eed1e2b6a78c9c9a6ce" target="_top" xlink:title="Applies a local search to the solution.">
<polygon fill="white" stroke="black" points="172,-116.26 172,-146.26 287,-146.26 287,-116.26 172,-116.26"/>
<text text-anchor="start" x="180" y="-134.26" font-family="Helvetica,sans-Serif" font-size="10.00">mh::MemeticAlgorithm</text>
<text text-anchor="middle" x="229.5" y="-123.26" font-family="Helvetica,sans-Serif" font-size="10.00">::localSearch</text>
</a>
</g>
</g>
<!-- Node1&#45;&gt;Node6 -->
<g id="edge5" class="edge">
<title>Node1&#45;&gt;Node6</title>
<path fill="none" stroke="midnightblue" d="M326.52,-117.72C313.58,-119.55 299.94,-121.47 287.14,-123.27"/>
<polygon fill="midnightblue" stroke="midnightblue" points="327.3,-121.15 336.71,-116.28 326.32,-114.21 327.3,-121.15"/>
</g>
<!-- Node7 -->
<g id="node7" class="node">
<title>Node7</title>
<g id="a_node7"><a xlink:href="classmh_1_1_iterated_local_search.html#a9c23c535bce43d52a2ce39f2b64d360c" target="_top" xlink:title="Perturbs the solution to escape a local optima.">
<polygon fill="white" stroke="black" points="168.5,-28.26 168.5,-58.26 290.5,-58.26 290.5,-28.26 168.5,-28.26"/>
<text text-anchor="start" x="176.5" y="-46.26" font-family="Helvetica,sans-Serif" font-size="10.00">mh::IteratedLocalSearch</text>
<text text-anchor="middle" x="229.5" y="-35.26" font-family="Helvetica,sans-Serif" font-size="10.00">::perturb</text>
</a>
</g>
</g>
<!-- Node1&#45;&gt;Node7 -->
<g id="edge7" class="edge">
<title>Node1&#45;&gt;Node7</title>
<path fill="none" stroke="midnightblue" d="M347.97,-89.71C333.4,-82.61 316.59,-74.74 301,-68.26 292.73,-64.82 283.79,-61.42 275.15,-58.29"/>
<polygon fill="midnightblue" stroke="midnightblue" points="346.66,-92.97 357.17,-94.25 349.75,-86.69 346.66,-92.97"/>
</g>
<!-- Node6&#45;&gt;Node3 -->
<g id="edge6" class="edge">
<title>Node6&#45;&gt;Node3</title>
<path fill="none" stroke="midnightblue" d="M161.45,-140.12C147.24,-142 132.36,-143.96 118.58,-145.79"/>
<polygon fill="midnightblue" stroke="midnightblue" points="162.21,-143.55 171.67,-138.77 161.29,-136.61 162.21,-143.55"/>
</g>
<!-- Node7&#45;&gt;Node4 -->
<g id="edge8" class="edge">
<title>Node7&#45;&gt;Node4</title>
<path fill="none" stroke="midnightblue" d="M158.35,-33.99C146.27,-32.4 133.81,-30.75 122.02,-29.19"/>
<polygon fill="midnightblue" stroke="midnightblue" points="158.02,-37.48 168.39,-35.32 158.93,-30.54 158.02,-37.48"/>
</g>
</g>
</svg>
