<?xml version="1.0" encoding="UTF-8" standalone="no"?>
<!DOCTYPE svg PUBLIC "-//W3C//DTD SVG 1.1//EN"
 "http://www.w3.org/Graphics/SVG/1.1/DTD/svg11.dtd">
<!-- Generated by graphviz version 2.50.0 (20211204.2007)
 -->
<!-- Title: opp::TravellingSalesmanProblem::crossover Pages: 1 -->
<svg width="360pt" height="186pt"
 viewBox="0.00 0.00 360.00 186.00" xmlns="http://www.w3.org/2000/svg" xmlns:xlink="http://www.w3.org/1999/xlink">
<g id="graph0" class="graph" transform="scale(1 1) rotate(0) translate(4 182)">
<title>opp::TravellingSalesmanProblem::crossover</title>
<polygon fill="white" stroke="transparent" points="-4,4 -4,-182 356,-182 356,4 -4,4"/>
<!-- Node1 -->
<g id="node1" class="node">
<title>Node1</title>
<g id="a_node1"><a xlink:title="Applies Uniform Order Based Crossover on parent solutions.">
<polygon fill="#bfbfbf" stroke="black" points="0,-73.5 0,-103.5 158,-103.5 158,-73.5 0,-73.5"/>
<text text-anchor="start" x="8" y="-91.5" font-family="Helvetica,sans-Serif" font-size="10.00">opp::TravellingSalesmanProblem</text>
<text text-anchor="middle" x="79" y="-80.5" font-family="Helvetica,sans-Serif" font-size="10.00">::crossover</text>
</a>
</g>
</g>
<!-- Node2 -->
<g id="node2" class="node">
<title>Node2</title>
<g id="a_node2"><a xlink:href="classopp_1_1_travelling_salesman_problem.html#a52d3edebcccbc4626a274debfe825bea" target="_top" xlink:title="Used in Crossover to copy the changed elements of parents to children after reordering.">
<polygon fill="white" stroke="black" points="194,-147.5 194,-177.5 352,-177.5 352,-147.5 194,-147.5"/>
<text text-anchor="start" x="202" y="-165.5" font-family="Helvetica,sans-Serif" font-size="10.00">opp::TravellingSalesmanProblem</text>
<text text-anchor="middle" x="273" y="-154.5" font-family="Helvetica,sans-Serif" font-size="10.00">::copyChanged</text>
</a>
</g>
</g>
<!-- Node1&#45;&gt;Node2 -->
<g id="edge1" class="edge">
<title>Node1&#45;&gt;Node2</title>
<path fill="none" stroke="midnightblue" d="M111.54,-103.5C134.2,-113.99 165.64,-127.96 194,-138.5 199.23,-140.44 204.69,-142.36 210.2,-144.2"/>
<polygon fill="midnightblue" stroke="midnightblue" points="209.52,-147.66 220.11,-147.45 211.7,-141.01 209.52,-147.66"/>
</g>
<!-- Node3 -->
<g id="node3" class="node">
<title>Node3</title>
<g id="a_node3"><a xlink:href="classopp_1_1_travelling_salesman_problem.html#afba4ae9684a9aeb61afd365ff9a44f8b" target="_top" xlink:title="Used in Crossover to copy the preserved elements of parents to children and determine the elements to...">
<polygon fill="white" stroke="black" points="194,-98.5 194,-128.5 352,-128.5 352,-98.5 194,-98.5"/>
<text text-anchor="start" x="202" y="-116.5" font-family="Helvetica,sans-Serif" font-size="10.00">opp::TravellingSalesmanProblem</text>
<text text-anchor="middle" x="273" y="-105.5" font-family="Helvetica,sans-Serif" font-size="10.00">::copyPreserved</text>
</a>
</g>
</g>
<!-- Node1&#45;&gt;Node3 -->
<g id="edge2" class="edge">
<title>Node1&#45;&gt;Node3</title>
<path fill="none" stroke="midnightblue" d="M158.09,-98.67C166.6,-99.78 175.3,-100.91 183.92,-102.03"/>
<polygon fill="midnightblue" stroke="midnightblue" points="183.61,-105.52 193.98,-103.34 184.51,-98.58 183.61,-105.52"/>
</g>
<!-- Node4 -->
<g id="node4" class="node">
<title>Node4</title>
<g id="a_node4"><a xlink:href="classopp_1_1_travelling_salesman_problem.html#a4c5f4ebeff9e699b194ab4ced7c7c63e" target="_top" xlink:title="Calculates the cost of a solution.">
<polygon fill="white" stroke="black" points="194,-49.5 194,-79.5 352,-79.5 352,-49.5 194,-49.5"/>
<text text-anchor="start" x="202" y="-67.5" font-family="Helvetica,sans-Serif" font-size="10.00">opp::TravellingSalesmanProblem</text>
<text text-anchor="middle" x="273" y="-56.5" font-family="Helvetica,sans-Serif" font-size="10.00">::cost</text>
</a>
</g>
</g>
<!-- Node1&#45;&gt;Node4 -->
<g id="edge3" class="edge">
<title>Node1&#45;&gt;Node4</title>
<path fill="none" stroke="midnightblue" d="M158.09,-78.74C166.6,-77.67 175.3,-76.59 183.92,-75.51"/>
<polygon fill="midnightblue" stroke="midnightblue" points="184.49,-78.97 193.98,-74.25 183.62,-72.02 184.49,-78.97"/>
</g>
<!-- Node5 -->
<g id="node5" class="node">
<title>Node5</title>
<g id="a_node5"><a xlink:href="classopp_1_1_travelling_salesman_problem.html#ab72e1a01bb055ec959983662c4876d64" target="_top" xlink:title="Used in Crossover to reorder the elements to be changed in respect to their order in the other parent...">
<polygon fill="white" stroke="black" points="194,-0.5 194,-30.5 352,-30.5 352,-0.5 194,-0.5"/>
<text text-anchor="start" x="202" y="-18.5" font-family="Helvetica,sans-Serif" font-size="10.00">opp::TravellingSalesmanProblem</text>
<text text-anchor="middle" x="273" y="-7.5" font-family="Helvetica,sans-Serif" font-size="10.00">::reorder</text>
</a>
</g>
</g>
<!-- Node1&#45;&gt;Node5 -->
<g id="edge4" class="edge">
<title>Node1&#45;&gt;Node5</title>
<path fill="none" stroke="midnightblue" d="M113.61,-73.43C136.15,-63.55 166.61,-50.63 194,-40.5 200.18,-38.21 206.68,-35.93 213.19,-33.74"/>
<polygon fill="midnightblue" stroke="midnightblue" points="214.29,-37.06 222.68,-30.58 212.08,-30.41 214.29,-37.06"/>
</g>
</g>
</svg>
