<?xml version="1.0" encoding="UTF-8" standalone="no"?>
<!DOCTYPE svg PUBLIC "-//W3C//DTD SVG 1.1//EN"
 "http://www.w3.org/Graphics/SVG/1.1/DTD/svg11.dtd">
<!-- Generated by graphviz version 2.50.0 (20211204.2007)
 -->
<!-- Title: mh::TabuSearch::generateMove Pages: 1 -->
<svg width="493pt" height="39pt"
 viewBox="0.00 0.00 493.00 39.00" xmlns="http://www.w3.org/2000/svg" xmlns:xlink="http://www.w3.org/1999/xlink">
<g id="graph0" class="graph" transform="scale(1 1) rotate(0) translate(4 35)">
<title>mh::TabuSearch::generateMove</title>
<polygon fill="white" stroke="transparent" points="-4,4 -4,-35 489,-35 489,4 -4,4"/>
<!-- Node1 -->
<g id="node1" class="node">
<title>Node1</title>
<g id="a_node1"><a xlink:title="Generates a move from the neighbourhood of a solution, that is not tabu.">
<polygon fill="#bfbfbf" stroke="black" points="0,-6 0,-25 154,-25 154,-6 0,-6"/>
<text text-anchor="middle" x="77" y="-13" font-family="Helvetica,sans-Serif" font-size="10.00">mh::TabuSearch::generateMove</text>
</a>
</g>
</g>
<!-- Node2 -->
<g id="node2" class="node">
<title>Node2</title>
<g id="a_node2"><a xlink:href="classmh_1_1_metaheuristic.html#a5a36d1002279148d57f18449dfad3d08" target="_top" xlink:title="Generates a move from the neighbourhood of a solution.">
<polygon fill="white" stroke="black" points="190,-0.5 190,-30.5 291,-30.5 291,-0.5 190,-0.5"/>
<text text-anchor="start" x="198" y="-18.5" font-family="Helvetica,sans-Serif" font-size="10.00">mh::Metaheuristic::</text>
<text text-anchor="middle" x="240.5" y="-7.5" font-family="Helvetica,sans-Serif" font-size="10.00">generateMove</text>
</a>
</g>
</g>
<!-- Node1&#45;&gt;Node2 -->
<g id="edge1" class="edge">
<title>Node1&#45;&gt;Node2</title>
<path fill="none" stroke="midnightblue" d="M154.02,-15.5C162.63,-15.5 171.31,-15.5 179.67,-15.5"/>
<polygon fill="midnightblue" stroke="midnightblue" points="179.68,-19 189.68,-15.5 179.68,-12 179.68,-19"/>
</g>
<!-- Node3 -->
<g id="node3" class="node">
<title>Node3</title>
<g id="a_node3"><a xlink:href="classopp_1_1_travelling_salesman_problem.html#ad05c81f501fe5f191e0de39d3f8ad332" target="_top" xlink:title="Generates a move from the neighbourhood of a solution.">
<polygon fill="white" stroke="black" points="327,-0.5 327,-30.5 485,-30.5 485,-0.5 327,-0.5"/>
<text text-anchor="start" x="335" y="-18.5" font-family="Helvetica,sans-Serif" font-size="10.00">opp::TravellingSalesmanProblem</text>
<text text-anchor="middle" x="406" y="-7.5" font-family="Helvetica,sans-Serif" font-size="10.00">::generateMove</text>
</a>
</g>
</g>
<!-- Node2&#45;&gt;Node3 -->
<g id="edge2" class="edge">
<title>Node2&#45;&gt;Node3</title>
<path fill="none" stroke="midnightblue" d="M291.44,-15.5C299.48,-15.5 307.99,-15.5 316.61,-15.5"/>
<polygon fill="midnightblue" stroke="midnightblue" points="316.75,-19 326.75,-15.5 316.75,-12 316.75,-19"/>
</g>
</g>
</svg>
