<?xml version="1.0" encoding="UTF-8" standalone="no"?>
<!DOCTYPE svg PUBLIC "-//W3C//DTD SVG 1.1//EN"
 "http://www.w3.org/Graphics/SVG/1.1/DTD/svg11.dtd">
<!-- Generated by graphviz version 2.50.0 (20211204.2007)
 -->
<!-- Title: mh::Metaheuristic::generateMove Pages: 1 -->
<svg width="478pt" height="39pt"
 viewBox="0.00 0.00 478.00 39.00" xmlns="http://www.w3.org/2000/svg" xmlns:xlink="http://www.w3.org/1999/xlink">
<g id="graph0" class="graph" transform="scale(1 1) rotate(0) translate(4 35)">
<title>mh::Metaheuristic::generateMove</title>
<polygon fill="white" stroke="transparent" points="-4,4 -4,-35 474,-35 474,4 -4,4"/>
<!-- Node1 -->
<g id="node1" class="node">
<title>Node1</title>
<g id="a_node1"><a xlink:title="Generates a move from the neighbourhood of a solution.">
<polygon fill="#bfbfbf" stroke="black" points="369,-0.5 369,-30.5 470,-30.5 470,-0.5 369,-0.5"/>
<text text-anchor="start" x="377" y="-18.5" font-family="Helvetica,sans-Serif" font-size="10.00">mh::Metaheuristic::</text>
<text text-anchor="middle" x="419.5" y="-7.5" font-family="Helvetica,sans-Serif" font-size="10.00">generateMove</text>
</a>
</g>
</g>
<!-- Node2 -->
<g id="node2" class="node">
<title>Node2</title>
<g id="a_node2"><a xlink:href="classmh_1_1_tabu_search.html#a191afd82e629142b3b0ae41c8e635244" target="_top" xlink:title="Generates a move from the neighbourhood of a solution, that is not tabu.">
<polygon fill="white" stroke="black" points="179,-6 179,-25 333,-25 333,-6 179,-6"/>
<text text-anchor="middle" x="256" y="-13" font-family="Helvetica,sans-Serif" font-size="10.00">mh::TabuSearch::generateMove</text>
</a>
</g>
</g>
<!-- Node1&#45;&gt;Node2 -->
<g id="edge1" class="edge">
<title>Node1&#45;&gt;Node2</title>
<path fill="none" stroke="midnightblue" d="M358.71,-15.5C350.34,-15.5 341.65,-15.5 333.04,-15.5"/>
<polygon fill="midnightblue" stroke="midnightblue" points="358.73,-19 368.73,-15.5 358.73,-12 358.73,-19"/>
</g>
<!-- Node3 -->
<g id="node3" class="node">
<title>Node3</title>
<g id="a_node3"><a xlink:href="classmh_1_1_tabu_search.html#a710549972412c1af94dccf32f51881b6" target="_top" xlink:title="Finds a near optimal solution to the problem using Tabu Search.">
<polygon fill="white" stroke="black" points="0,-6 0,-25 143,-25 143,-6 0,-6"/>
<text text-anchor="middle" x="71.5" y="-13" font-family="Helvetica,sans-Serif" font-size="10.00">mh::TabuSearch::findOptimal</text>
</a>
</g>
</g>
<!-- Node2&#45;&gt;Node3 -->
<g id="edge2" class="edge">
<title>Node2&#45;&gt;Node3</title>
<path fill="none" stroke="midnightblue" d="M168.88,-15.5C160.27,-15.5 151.61,-15.5 143.2,-15.5"/>
<polygon fill="midnightblue" stroke="midnightblue" points="168.93,-19 178.93,-15.5 168.93,-12 168.93,-19"/>
</g>
</g>
</svg>
