<?xml version="1.0" encoding="UTF-8" standalone="no"?>
<!DOCTYPE svg PUBLIC "-//W3C//DTD SVG 1.1//EN"
 "http://www.w3.org/Graphics/SVG/1.1/DTD/svg11.dtd">
<!-- Generated by graphviz version 2.50.0 (20211204.2007)
 -->
<!-- Title: mh::GeneticAlgorithm::findOptimal Pages: 1 -->
<svg width="644pt" height="284pt"
 viewBox="0.00 0.00 644.00 284.00" xmlns="http://www.w3.org/2000/svg" xmlns:xlink="http://www.w3.org/1999/xlink">
<g id="graph0" class="graph" transform="scale(1 1) rotate(0) translate(4 280)">
<title>mh::GeneticAlgorithm::findOptimal</title>
<polygon fill="white" stroke="transparent" points="-4,4 -4,-280 640,-280 640,4 -4,4"/>
<!-- Node1 -->
<g id="node1" class="node">
<title>Node1</title>
<g id="a_node1"><a xlink:title="Finds a near optimal solution to the problem using the Genetic Algorithm.">
<polygon fill="#bfbfbf" stroke="black" points="0,-86.5 0,-116.5 111,-116.5 111,-86.5 0,-86.5"/>
<text text-anchor="start" x="8" y="-104.5" font-family="Helvetica,sans-Serif" font-size="10.00">mh::GeneticAlgorithm</text>
<text text-anchor="middle" x="55.5" y="-93.5" font-family="Helvetica,sans-Serif" font-size="10.00">::findOptimal</text>
</a>
</g>
</g>
<!-- Node2 -->
<g id="node2" class="node">
<title>Node2</title>
<g id="a_node2"><a xlink:href="classmh_1_1_metaheuristic.html#aaf40e20b2f6063c1e6420ac3459cb647" target="_top" xlink:title="Applies Uniform Order Based Crossover on parent solutions.">
<polygon fill="white" stroke="black" points="147,-147.5 147,-177.5 248,-177.5 248,-147.5 147,-147.5"/>
<text text-anchor="start" x="155" y="-165.5" font-family="Helvetica,sans-Serif" font-size="10.00">mh::Metaheuristic::</text>
<text text-anchor="middle" x="197.5" y="-154.5" font-family="Helvetica,sans-Serif" font-size="10.00">crossover</text>
</a>
</g>
</g>
<!-- Node1&#45;&gt;Node2 -->
<g id="edge1" class="edge">
<title>Node1&#45;&gt;Node2</title>
<path fill="none" stroke="midnightblue" d="M91.11,-116.58C109.62,-124.64 132.61,-134.66 152.39,-143.28"/>
<polygon fill="midnightblue" stroke="midnightblue" points="151.24,-146.6 161.81,-147.38 154.04,-140.18 151.24,-146.6"/>
</g>
<!-- Node9 -->
<g id="node9" class="node">
<title>Node9</title>
<g id="a_node9"><a xlink:href="classmh_1_1_metaheuristic.html#a17ee0cbdd097192f6a205c57133a5717" target="_top" xlink:title="Applies a move to a solution.">
<polygon fill="white" stroke="black" points="147,-86.5 147,-116.5 248,-116.5 248,-86.5 147,-86.5"/>
<text text-anchor="start" x="155" y="-104.5" font-family="Helvetica,sans-Serif" font-size="10.00">mh::Metaheuristic::</text>
<text text-anchor="middle" x="197.5" y="-93.5" font-family="Helvetica,sans-Serif" font-size="10.00">neighbour</text>
</a>
</g>
</g>
<!-- Node1&#45;&gt;Node9 -->
<g id="edge8" class="edge">
<title>Node1&#45;&gt;Node9</title>
<path fill="none" stroke="midnightblue" d="M111.03,-101.5C119.43,-101.5 128.15,-101.5 136.67,-101.5"/>
<polygon fill="midnightblue" stroke="midnightblue" points="136.92,-105 146.92,-101.5 136.92,-98 136.92,-105"/>
</g>
<!-- Node12 -->
<g id="node12" class="node">
<title>Node12</title>
<g id="a_node12"><a xlink:href="classmh_1_1_metaheuristic.html#a587e655f724797038c8de993832f7caa" target="_top" xlink:title="Generates a random solution to the problem.">
<polygon fill="white" stroke="black" points="147,-13.5 147,-43.5 248,-43.5 248,-13.5 147,-13.5"/>
<text text-anchor="start" x="155" y="-31.5" font-family="Helvetica,sans-Serif" font-size="10.00">mh::Metaheuristic::</text>
<text text-anchor="middle" x="197.5" y="-20.5" font-family="Helvetica,sans-Serif" font-size="10.00">randomSolution</text>
</a>
</g>
</g>
<!-- Node1&#45;&gt;Node12 -->
<g id="edge11" class="edge">
<title>Node1&#45;&gt;Node12</title>
<path fill="none" stroke="midnightblue" d="M85.51,-86.37C106.63,-75.36 135.43,-60.34 158.4,-48.37"/>
<polygon fill="midnightblue" stroke="midnightblue" points="160.28,-51.33 167.53,-43.61 157.04,-45.13 160.28,-51.33"/>
</g>
<!-- Node3 -->
<g id="node3" class="node">
<title>Node3</title>
<g id="a_node3"><a xlink:href="classopp_1_1_travelling_salesman_problem.html#a9e757a47610652d9f057d032c9da15b2" target="_top" xlink:title="Applies Uniform Order Based Crossover on parent solutions.">
<polygon fill="white" stroke="black" points="284,-196.5 284,-226.5 442,-226.5 442,-196.5 284,-196.5"/>
<text text-anchor="start" x="292" y="-214.5" font-family="Helvetica,sans-Serif" font-size="10.00">opp::TravellingSalesmanProblem</text>
<text text-anchor="middle" x="363" y="-203.5" font-family="Helvetica,sans-Serif" font-size="10.00">::crossover</text>
</a>
</g>
</g>
<!-- Node2&#45;&gt;Node3 -->
<g id="edge2" class="edge">
<title>Node2&#45;&gt;Node3</title>
<path fill="none" stroke="midnightblue" d="M248.44,-177.47C265.4,-182.55 284.52,-188.28 302.17,-193.57"/>
<polygon fill="midnightblue" stroke="midnightblue" points="301.21,-196.94 311.8,-196.45 303.22,-190.23 301.21,-196.94"/>
</g>
<!-- Node8 -->
<g id="node8" class="node">
<title>Node8</title>
<g id="a_node8"><a xlink:href="classopp_1_1_travelling_salesman_problem.html#a96e3fd9334553d069a582442f8a64636" target="_top" xlink:title="Selects a solution from the population using Tournament Selection.">
<polygon fill="white" stroke="black" points="284,-147.5 284,-177.5 442,-177.5 442,-147.5 284,-147.5"/>
<text text-anchor="start" x="292" y="-165.5" font-family="Helvetica,sans-Serif" font-size="10.00">opp::TravellingSalesmanProblem</text>
<text text-anchor="middle" x="363" y="-154.5" font-family="Helvetica,sans-Serif" font-size="10.00">::select</text>
</a>
</g>
</g>
<!-- Node2&#45;&gt;Node8 -->
<g id="edge7" class="edge">
<title>Node2&#45;&gt;Node8</title>
<path fill="none" stroke="midnightblue" d="M248.44,-162.5C256.48,-162.5 264.99,-162.5 273.61,-162.5"/>
<polygon fill="midnightblue" stroke="midnightblue" points="273.75,-166 283.75,-162.5 273.75,-159 273.75,-166"/>
</g>
<!-- Node4 -->
<g id="node4" class="node">
<title>Node4</title>
<g id="a_node4"><a xlink:href="classopp_1_1_travelling_salesman_problem.html#a52d3edebcccbc4626a274debfe825bea" target="_top" xlink:title="Used in Crossover to copy the changed elements of parents to children after reordering.">
<polygon fill="white" stroke="black" points="478,-245.5 478,-275.5 636,-275.5 636,-245.5 478,-245.5"/>
<text text-anchor="start" x="486" y="-263.5" font-family="Helvetica,sans-Serif" font-size="10.00">opp::TravellingSalesmanProblem</text>
<text text-anchor="middle" x="557" y="-252.5" font-family="Helvetica,sans-Serif" font-size="10.00">::copyChanged</text>
</a>
</g>
</g>
<!-- Node3&#45;&gt;Node4 -->
<g id="edge3" class="edge">
<title>Node3&#45;&gt;Node4</title>
<path fill="none" stroke="midnightblue" d="M422.91,-226.53C443.28,-231.73 466.27,-237.6 487.35,-242.98"/>
<polygon fill="midnightblue" stroke="midnightblue" points="486.65,-246.41 497.2,-245.49 488.38,-239.63 486.65,-246.41"/>
</g>
<!-- Node5 -->
<g id="node5" class="node">
<title>Node5</title>
<g id="a_node5"><a xlink:href="classopp_1_1_travelling_salesman_problem.html#afba4ae9684a9aeb61afd365ff9a44f8b" target="_top" xlink:title="Used in Crossover to copy the preserved elements of parents to children and determine the elements to...">
<polygon fill="white" stroke="black" points="478,-196.5 478,-226.5 636,-226.5 636,-196.5 478,-196.5"/>
<text text-anchor="start" x="486" y="-214.5" font-family="Helvetica,sans-Serif" font-size="10.00">opp::TravellingSalesmanProblem</text>
<text text-anchor="middle" x="557" y="-203.5" font-family="Helvetica,sans-Serif" font-size="10.00">::copyPreserved</text>
</a>
</g>
</g>
<!-- Node3&#45;&gt;Node5 -->
<g id="edge4" class="edge">
<title>Node3&#45;&gt;Node5</title>
<path fill="none" stroke="midnightblue" d="M442.09,-211.5C450.6,-211.5 459.3,-211.5 467.92,-211.5"/>
<polygon fill="midnightblue" stroke="midnightblue" points="467.98,-215 477.98,-211.5 467.98,-208 467.98,-215"/>
</g>
<!-- Node6 -->
<g id="node6" class="node">
<title>Node6</title>
<g id="a_node6"><a xlink:href="classopp_1_1_travelling_salesman_problem.html#a4c5f4ebeff9e699b194ab4ced7c7c63e" target="_top" xlink:title="Calculates the cost of a solution.">
<polygon fill="white" stroke="black" points="478,-49.5 478,-79.5 636,-79.5 636,-49.5 478,-49.5"/>
<text text-anchor="start" x="486" y="-67.5" font-family="Helvetica,sans-Serif" font-size="10.00">opp::TravellingSalesmanProblem</text>
<text text-anchor="middle" x="557" y="-56.5" font-family="Helvetica,sans-Serif" font-size="10.00">::cost</text>
</a>
</g>
</g>
<!-- Node3&#45;&gt;Node6 -->
<g id="edge5" class="edge">
<title>Node3&#45;&gt;Node6</title>
<path fill="none" stroke="midnightblue" d="M426.22,-196.45C431.79,-193.91 437.15,-190.95 442,-187.5 464.03,-171.85 460.13,-158.77 478,-138.5 494.4,-119.9 514.78,-100.68 530.6,-86.49"/>
<polygon fill="midnightblue" stroke="midnightblue" points="533.25,-88.81 538.41,-79.56 528.61,-83.58 533.25,-88.81"/>
</g>
<!-- Node7 -->
<g id="node7" class="node">
<title>Node7</title>
<g id="a_node7"><a xlink:href="classopp_1_1_travelling_salesman_problem.html#ab72e1a01bb055ec959983662c4876d64" target="_top" xlink:title="Used in Crossover to reorder the elements to be changed in respect to their order in the other parent...">
<polygon fill="white" stroke="black" points="478,-147.5 478,-177.5 636,-177.5 636,-147.5 478,-147.5"/>
<text text-anchor="start" x="486" y="-165.5" font-family="Helvetica,sans-Serif" font-size="10.00">opp::TravellingSalesmanProblem</text>
<text text-anchor="middle" x="557" y="-154.5" font-family="Helvetica,sans-Serif" font-size="10.00">::reorder</text>
</a>
</g>
</g>
<!-- Node3&#45;&gt;Node7 -->
<g id="edge6" class="edge">
<title>Node3&#45;&gt;Node7</title>
<path fill="none" stroke="midnightblue" d="M422.91,-196.47C443.28,-191.27 466.27,-185.4 487.35,-180.02"/>
<polygon fill="midnightblue" stroke="midnightblue" points="488.38,-183.37 497.2,-177.51 486.65,-176.59 488.38,-183.37"/>
</g>
<!-- Node10 -->
<g id="node10" class="node">
<title>Node10</title>
<g id="a_node10"><a xlink:href="classopp_1_1_travelling_salesman_problem.html#ad05c81f501fe5f191e0de39d3f8ad332" target="_top" xlink:title="Generates a move from the neighbourhood of a solution.">
<polygon fill="white" stroke="black" points="284,-98.5 284,-128.5 442,-128.5 442,-98.5 284,-98.5"/>
<text text-anchor="start" x="292" y="-116.5" font-family="Helvetica,sans-Serif" font-size="10.00">opp::TravellingSalesmanProblem</text>
<text text-anchor="middle" x="363" y="-105.5" font-family="Helvetica,sans-Serif" font-size="10.00">::generateMove</text>
</a>
</g>
</g>
<!-- Node9&#45;&gt;Node10 -->
<g id="edge9" class="edge">
<title>Node9&#45;&gt;Node10</title>
<path fill="none" stroke="midnightblue" d="M248.44,-105.17C256.48,-105.76 264.99,-106.38 273.61,-107.01"/>
<polygon fill="midnightblue" stroke="midnightblue" points="273.52,-110.52 283.75,-107.76 274.03,-103.53 273.52,-110.52"/>
</g>
<!-- Node11 -->
<g id="node11" class="node">
<title>Node11</title>
<g id="a_node11"><a xlink:href="classopp_1_1_travelling_salesman_problem.html#aa42a141024661ed6c2947358a785e982" target="_top" xlink:title="Applies a move to a solution.">
<polygon fill="white" stroke="black" points="284,-49.5 284,-79.5 442,-79.5 442,-49.5 284,-49.5"/>
<text text-anchor="start" x="292" y="-67.5" font-family="Helvetica,sans-Serif" font-size="10.00">opp::TravellingSalesmanProblem</text>
<text text-anchor="middle" x="363" y="-56.5" font-family="Helvetica,sans-Serif" font-size="10.00">::neighbour</text>
</a>
</g>
</g>
<!-- Node9&#45;&gt;Node11 -->
<g id="edge10" class="edge">
<title>Node9&#45;&gt;Node11</title>
<path fill="none" stroke="midnightblue" d="M248.44,-90.2C260.15,-87.55 272.89,-84.67 285.47,-81.82"/>
<polygon fill="midnightblue" stroke="midnightblue" points="286.51,-85.17 295.49,-79.55 284.97,-78.34 286.51,-85.17"/>
</g>
<!-- Node13 -->
<g id="node13" class="node">
<title>Node13</title>
<g id="a_node13"><a xlink:href="classopp_1_1_travelling_salesman_problem.html#a56af096a854db5ae5118445013332be5" target="_top" xlink:title="Generates a random solution to the problem.">
<polygon fill="white" stroke="black" points="284,-0.5 284,-30.5 442,-30.5 442,-0.5 284,-0.5"/>
<text text-anchor="start" x="292" y="-18.5" font-family="Helvetica,sans-Serif" font-size="10.00">opp::TravellingSalesmanProblem</text>
<text text-anchor="middle" x="363" y="-7.5" font-family="Helvetica,sans-Serif" font-size="10.00">::randomSolution</text>
</a>
</g>
</g>
<!-- Node12&#45;&gt;Node13 -->
<g id="edge12" class="edge">
<title>Node12&#45;&gt;Node13</title>
<path fill="none" stroke="midnightblue" d="M248.44,-24.53C256.48,-23.89 264.99,-23.21 273.61,-22.53"/>
<polygon fill="midnightblue" stroke="midnightblue" points="274.06,-26 283.75,-21.72 273.5,-19.03 274.06,-26"/>
</g>
<!-- Node13&#45;&gt;Node6 -->
<g id="edge13" class="edge">
<title>Node13&#45;&gt;Node6</title>
<path fill="none" stroke="midnightblue" d="M422.91,-30.53C443.28,-35.73 466.27,-41.6 487.35,-46.98"/>
<polygon fill="midnightblue" stroke="midnightblue" points="486.65,-50.41 497.2,-49.49 488.38,-43.63 486.65,-50.41"/>
</g>
</g>
</svg>
