<?xml version="1.0" encoding="UTF-8" standalone="no"?>
<!DOCTYPE svg PUBLIC "-//W3C//DTD SVG 1.1//EN"
 "http://www.w3.org/Graphics/SVG/1.1/DTD/svg11.dtd">
<!-- Generated by graphviz version 2.50.0 (20211204.2007)
 -->
<!-- Title: gui::TravellingSalesmanProblemDisplay Pages: 1 -->
<svg width="286pt" height="744pt"
 viewBox="0.00 0.00 286.00 744.00" xmlns="http://www.w3.org/2000/svg" xmlns:xlink="http://www.w3.org/1999/xlink">
<g id="graph0" class="graph" transform="scale(1 1) rotate(0) translate(4 740)">
<title>gui::TravellingSalesmanProblemDisplay</title>
<polygon fill="white" stroke="transparent" points="-4,4 -4,-740 282,-740 282,4 -4,4"/>
<!-- Node1 -->
<g id="node1" class="node">
<title>Node1</title>
<g id="a_node1"><a xlink:title="Handles displaying of problem and interaction with the user.">
<polygon fill="#bfbfbf" stroke="black" points="18.5,-0.5 18.5,-189.5 173.5,-189.5 173.5,-0.5 18.5,-0.5"/>
<text text-anchor="start" x="26.5" y="-177.5" font-family="Helvetica,sans-Serif" font-size="10.00">gui::TravellingSalesmanProblem</text>
<text text-anchor="middle" x="96" y="-166.5" font-family="Helvetica,sans-Serif" font-size="10.00">Display</text>
<polyline fill="none" stroke="black" points="18.5,-159.5 173.5,-159.5 "/>
<text text-anchor="start" x="26.5" y="-147.5" font-family="Helvetica,sans-Serif" font-size="10.00">&#45; boundingBox</text>
<text text-anchor="start" x="26.5" y="-136.5" font-family="Helvetica,sans-Serif" font-size="10.00">&#45; cSz</text>
<polyline fill="none" stroke="black" points="18.5,-129.5 173.5,-129.5 "/>
<text text-anchor="start" x="26.5" y="-117.5" font-family="Helvetica,sans-Serif" font-size="10.00">+ TravellingSalesmanProblem</text>
<text text-anchor="start" x="26.5" y="-106.5" font-family="Helvetica,sans-Serif" font-size="10.00">Display()</text>
<text text-anchor="start" x="26.5" y="-95.5" font-family="Helvetica,sans-Serif" font-size="10.00">+ TravellingSalesmanProblem</text>
<text text-anchor="start" x="26.5" y="-84.5" font-family="Helvetica,sans-Serif" font-size="10.00">Display()</text>
<text text-anchor="start" x="26.5" y="-73.5" font-family="Helvetica,sans-Serif" font-size="10.00">+ operator=()</text>
<text text-anchor="start" x="26.5" y="-62.5" font-family="Helvetica,sans-Serif" font-size="10.00">+ isSelected()</text>
<text text-anchor="start" x="26.5" y="-51.5" font-family="Helvetica,sans-Serif" font-size="10.00">+ handleEvent()</text>
<text text-anchor="start" x="26.5" y="-40.5" font-family="Helvetica,sans-Serif" font-size="10.00">+ update()</text>
<text text-anchor="start" x="26.5" y="-29.5" font-family="Helvetica,sans-Serif" font-size="10.00">+ render()</text>
<text text-anchor="start" x="26.5" y="-18.5" font-family="Helvetica,sans-Serif" font-size="10.00">+ getTsp()</text>
<text text-anchor="start" x="26.5" y="-7.5" font-family="Helvetica,sans-Serif" font-size="10.00">+ newTsp()</text>
</a>
</g>
</g>
<!-- Node2 -->
<g id="node2" class="node">
<title>Node2</title>
<g id="a_node2"><a xlink:href="classgui_1_1_gui_component.html" target="_top" xlink:title="Represents a component of the GUI.">
<polygon fill="white" stroke="black" points="0,-303.5 0,-404.5 102,-404.5 102,-303.5 0,-303.5"/>
<text text-anchor="middle" x="51" y="-392.5" font-family="Helvetica,sans-Serif" font-size="10.00">gui::GuiComponent</text>
<polyline fill="none" stroke="black" points="0,-385.5 102,-385.5 "/>
<text text-anchor="middle" x="51" y="-373.5" font-family="Helvetica,sans-Serif" font-size="10.00"> </text>
<polyline fill="none" stroke="black" points="0,-366.5 102,-366.5 "/>
<text text-anchor="start" x="8" y="-354.5" font-family="Helvetica,sans-Serif" font-size="10.00">+ ~GuiComponent()</text>
<text text-anchor="start" x="8" y="-343.5" font-family="Helvetica,sans-Serif" font-size="10.00">+ isSelected()</text>
<text text-anchor="start" x="8" y="-332.5" font-family="Helvetica,sans-Serif" font-size="10.00">+ handleEvent()</text>
<text text-anchor="start" x="8" y="-321.5" font-family="Helvetica,sans-Serif" font-size="10.00">+ update()</text>
<text text-anchor="start" x="8" y="-310.5" font-family="Helvetica,sans-Serif" font-size="10.00">+ render()</text>
</a>
</g>
</g>
<!-- Node2&#45;&gt;Node1 -->
<g id="edge1" class="edge">
<title>Node2&#45;&gt;Node1</title>
<path fill="none" stroke="midnightblue" d="M61.45,-293.31C66.84,-262.51 73.55,-224.24 79.61,-189.62"/>
<polygon fill="none" stroke="midnightblue" points="57.95,-292.99 59.68,-303.45 64.85,-294.2 57.95,-292.99"/>
</g>
<!-- Node3 -->
<g id="node3" class="node">
<title>Node3</title>
<g id="a_node3"><a xlink:href="classopp_1_1_travelling_salesman_problem.html" target="_top" xlink:title="Representation of the Euclidean Travelling Salesman Problem.">
<polygon fill="white" stroke="black" points="120,-237.5 120,-470.5 278,-470.5 278,-237.5 120,-237.5"/>
<text text-anchor="middle" x="199" y="-458.5" font-family="Helvetica,sans-Serif" font-size="10.00">opp::TravellingSalesmanProblem</text>
<polyline fill="none" stroke="black" points="120,-451.5 278,-451.5 "/>
<text text-anchor="start" x="128" y="-439.5" font-family="Helvetica,sans-Serif" font-size="10.00">&#45; sz</text>
<text text-anchor="start" x="128" y="-428.5" font-family="Helvetica,sans-Serif" font-size="10.00">&#45; trmMax</text>
<text text-anchor="start" x="128" y="-417.5" font-family="Helvetica,sans-Serif" font-size="10.00">&#45; distanceMatrix</text>
<text text-anchor="start" x="128" y="-406.5" font-family="Helvetica,sans-Serif" font-size="10.00">&#45; boundingBox</text>
<text text-anchor="start" x="128" y="-395.5" font-family="Helvetica,sans-Serif" font-size="10.00">&#45; rd</text>
<text text-anchor="start" x="128" y="-384.5" font-family="Helvetica,sans-Serif" font-size="10.00">&#45; rng</text>
<polyline fill="none" stroke="black" points="120,-377.5 278,-377.5 "/>
<text text-anchor="start" x="128" y="-365.5" font-family="Helvetica,sans-Serif" font-size="10.00">+ TravellingSalesmanProblem()</text>
<text text-anchor="start" x="128" y="-354.5" font-family="Helvetica,sans-Serif" font-size="10.00">+ generateMove()</text>
<text text-anchor="start" x="128" y="-343.5" font-family="Helvetica,sans-Serif" font-size="10.00">+ neighbour()</text>
<text text-anchor="start" x="128" y="-332.5" font-family="Helvetica,sans-Serif" font-size="10.00">+ randomSolution()</text>
<text text-anchor="start" x="128" y="-321.5" font-family="Helvetica,sans-Serif" font-size="10.00">+ select()</text>
<text text-anchor="start" x="128" y="-310.5" font-family="Helvetica,sans-Serif" font-size="10.00">+ crossover()</text>
<text text-anchor="start" x="128" y="-299.5" font-family="Helvetica,sans-Serif" font-size="10.00">+ cost()</text>
<text text-anchor="start" x="128" y="-288.5" font-family="Helvetica,sans-Serif" font-size="10.00">+ getOptimal()</text>
<text text-anchor="start" x="128" y="-277.5" font-family="Helvetica,sans-Serif" font-size="10.00">+ setOptimal()</text>
<text text-anchor="start" x="128" y="-266.5" font-family="Helvetica,sans-Serif" font-size="10.00">&#45; copyPreserved()</text>
<text text-anchor="start" x="128" y="-255.5" font-family="Helvetica,sans-Serif" font-size="10.00">&#45; reorder()</text>
<text text-anchor="start" x="128" y="-244.5" font-family="Helvetica,sans-Serif" font-size="10.00">&#45; copyChanged()</text>
</a>
</g>
</g>
<!-- Node3&#45;&gt;Node1 -->
<g id="edge2" class="edge">
<title>Node3&#45;&gt;Node1</title>
<path fill="none" stroke="#404040" d="M152.62,-237.28C147.77,-225.17 142.85,-212.9 138.05,-200.91"/>
<polygon fill="none" stroke="#404040" points="137.95,-200.66 132,-196.58 133.48,-189.52 139.43,-193.6 137.95,-200.66"/>
<text text-anchor="middle" x="154" y="-211" font-family="Helvetica,sans-Serif" font-size="10.00"> &#45;tsp</text>
</g>
<!-- Node4 -->
<g id="node4" class="node">
<title>Node4</title>
<g id="a_node4"><a xlink:href="structopp_1_1_solution.html" target="_top" xlink:title="Represents a solution to the Travelling Salesman Problem.">
<polygon fill="white" stroke="black" points="162,-518.5 162,-597.5 236,-597.5 236,-518.5 162,-518.5"/>
<text text-anchor="middle" x="199" y="-585.5" font-family="Helvetica,sans-Serif" font-size="10.00">opp::Solution</text>
<polyline fill="none" stroke="black" points="162,-578.5 236,-578.5 "/>
<text text-anchor="start" x="170" y="-566.5" font-family="Helvetica,sans-Serif" font-size="10.00">+ order</text>
<text text-anchor="start" x="170" y="-555.5" font-family="Helvetica,sans-Serif" font-size="10.00">+ cost</text>
<polyline fill="none" stroke="black" points="162,-548.5 236,-548.5 "/>
<text text-anchor="start" x="170" y="-536.5" font-family="Helvetica,sans-Serif" font-size="10.00">+ Solution()</text>
<text text-anchor="start" x="170" y="-525.5" font-family="Helvetica,sans-Serif" font-size="10.00">+ Solution()</text>
</a>
</g>
</g>
<!-- Node4&#45;&gt;Node3 -->
<g id="edge3" class="edge">
<title>Node4&#45;&gt;Node3</title>
<path fill="none" stroke="#404040" d="M199,-518.05C199,-507.54 199,-495.56 199,-482.98"/>
<polygon fill="none" stroke="#404040" points="199,-482.77 195,-476.77 199,-470.77 203,-476.77 199,-482.77"/>
<text text-anchor="middle" x="218" y="-492" font-family="Helvetica,sans-Serif" font-size="10.00"> &#45;optimal</text>
</g>
<!-- Node5 -->
<g id="node5" class="node">
<title>Node5</title>
<g id="a_node5"><a xlink:href="structopp_1_1_move.html" target="_top" xlink:title="Represents a move, that is a transposition of two cities in a path.">
<polygon fill="white" stroke="black" points="159.5,-645.5 159.5,-735.5 238.5,-735.5 238.5,-645.5 159.5,-645.5"/>
<text text-anchor="middle" x="199" y="-723.5" font-family="Helvetica,sans-Serif" font-size="10.00">opp::Move</text>
<polyline fill="none" stroke="black" points="159.5,-716.5 238.5,-716.5 "/>
<text text-anchor="start" x="167.5" y="-704.5" font-family="Helvetica,sans-Serif" font-size="10.00">+ cityA</text>
<text text-anchor="start" x="167.5" y="-693.5" font-family="Helvetica,sans-Serif" font-size="10.00">+ indexA</text>
<text text-anchor="start" x="167.5" y="-682.5" font-family="Helvetica,sans-Serif" font-size="10.00">+ cityB</text>
<text text-anchor="start" x="167.5" y="-671.5" font-family="Helvetica,sans-Serif" font-size="10.00">+ indexB</text>
<polyline fill="none" stroke="black" points="159.5,-664.5 238.5,-664.5 "/>
<text text-anchor="start" x="167.5" y="-652.5" font-family="Helvetica,sans-Serif" font-size="10.00">+ operator==()</text>
</a>
</g>
</g>
<!-- Node5&#45;&gt;Node4 -->
<g id="edge4" class="edge">
<title>Node5&#45;&gt;Node4</title>
<path fill="none" stroke="#404040" d="M199,-645.32C199,-634.02 199,-621.79 199,-610.17"/>
<polygon fill="none" stroke="#404040" points="199,-609.89 195,-603.89 199,-597.89 203,-603.89 199,-609.89"/>
<text text-anchor="middle" x="227" y="-619" font-family="Helvetica,sans-Serif" font-size="10.00"> +moveMade</text>
</g>
</g>
</svg>
