<?xml version="1.0" encoding="UTF-8" standalone="no"?>
<!DOCTYPE svg PUBLIC "-//W3C//DTD SVG 1.1//EN"
 "http://www.w3.org/Graphics/SVG/1.1/DTD/svg11.dtd">
<!-- Generated by graphviz version 2.50.0 (20211204.2007)
 -->
<!-- Title: mh::GeneticAlgorithm Pages: 1 -->
<svg width="166pt" height="850pt"
 viewBox="0.00 0.00 166.00 850.00" xmlns="http://www.w3.org/2000/svg" xmlns:xlink="http://www.w3.org/1999/xlink">
<g id="graph0" class="graph" transform="scale(1 1) rotate(0) translate(4 846)">
<title>mh::GeneticAlgorithm</title>
<polygon fill="white" stroke="transparent" points="-4,4 -4,-846 162,-846 162,4 -4,4"/>
<!-- Node1 -->
<g id="node1" class="node">
<title>Node1</title>
<g id="a_node1"><a xlink:title="Represents the use of the Genetic Algorithm to solve a problem.">
<polygon fill="#bfbfbf" stroke="black" points="23.5,-0.5 23.5,-101.5 134.5,-101.5 134.5,-0.5 23.5,-0.5"/>
<text text-anchor="middle" x="79" y="-89.5" font-family="Helvetica,sans-Serif" font-size="10.00">mh::GeneticAlgorithm</text>
<polyline fill="none" stroke="black" points="23.5,-82.5 134.5,-82.5 "/>
<text text-anchor="start" x="31.5" y="-70.5" font-family="Helvetica,sans-Serif" font-size="10.00">&#45; genMax</text>
<text text-anchor="start" x="31.5" y="-59.5" font-family="Helvetica,sans-Serif" font-size="10.00">&#45; szp</text>
<polyline fill="none" stroke="black" points="23.5,-52.5 134.5,-52.5 "/>
<text text-anchor="start" x="31.5" y="-40.5" font-family="Helvetica,sans-Serif" font-size="10.00">+ GeneticAlgorithm()</text>
<text text-anchor="start" x="31.5" y="-29.5" font-family="Helvetica,sans-Serif" font-size="10.00">+ operator=()</text>
<text text-anchor="start" x="31.5" y="-18.5" font-family="Helvetica,sans-Serif" font-size="10.00">+ GeneticAlgorithm()</text>
<text text-anchor="start" x="31.5" y="-7.5" font-family="Helvetica,sans-Serif" font-size="10.00">+ findOptimal()</text>
</a>
</g>
</g>
<!-- Node2 -->
<g id="node2" class="node">
<title>Node2</title>
<g id="a_node2"><a xlink:href="classmh_1_1_metaheuristic.html" target="_top" xlink:title="Represents a metaheuristic used to solve a problem.">
<polygon fill="white" stroke="black" points="30,-139.5 30,-295.5 128,-295.5 128,-139.5 30,-139.5"/>
<text text-anchor="middle" x="79" y="-283.5" font-family="Helvetica,sans-Serif" font-size="10.00">mh::Metaheuristic</text>
<polyline fill="none" stroke="black" points="30,-276.5 128,-276.5 "/>
<text text-anchor="middle" x="79" y="-264.5" font-family="Helvetica,sans-Serif" font-size="10.00"> </text>
<polyline fill="none" stroke="black" points="30,-257.5 128,-257.5 "/>
<text text-anchor="start" x="38" y="-245.5" font-family="Helvetica,sans-Serif" font-size="10.00">+ Metaheuristic()</text>
<text text-anchor="start" x="38" y="-234.5" font-family="Helvetica,sans-Serif" font-size="10.00">+ operator=()</text>
<text text-anchor="start" x="38" y="-223.5" font-family="Helvetica,sans-Serif" font-size="10.00">+ ~Metaheuristic()</text>
<text text-anchor="start" x="38" y="-212.5" font-family="Helvetica,sans-Serif" font-size="10.00">+ findOptimal()</text>
<text text-anchor="start" x="38" y="-201.5" font-family="Helvetica,sans-Serif" font-size="10.00"># Metaheuristic()</text>
<text text-anchor="start" x="38" y="-190.5" font-family="Helvetica,sans-Serif" font-size="10.00"># generateMove()</text>
<text text-anchor="start" x="38" y="-179.5" font-family="Helvetica,sans-Serif" font-size="10.00"># neighbour()</text>
<text text-anchor="start" x="38" y="-168.5" font-family="Helvetica,sans-Serif" font-size="10.00"># neighbour()</text>
<text text-anchor="start" x="38" y="-157.5" font-family="Helvetica,sans-Serif" font-size="10.00"># randomSolution()</text>
<text text-anchor="start" x="38" y="-146.5" font-family="Helvetica,sans-Serif" font-size="10.00"># crossover()</text>
</a>
</g>
</g>
<!-- Node2&#45;&gt;Node1 -->
<g id="edge1" class="edge">
<title>Node2&#45;&gt;Node1</title>
<path fill="none" stroke="midnightblue" d="M79,-128.96C79,-119.66 79,-110.46 79,-101.82"/>
<polygon fill="none" stroke="midnightblue" points="75.5,-129.07 79,-139.07 82.5,-129.07 75.5,-129.07"/>
</g>
<!-- Node3 -->
<g id="node3" class="node">
<title>Node3</title>
<g id="a_node3"><a xlink:href="classopp_1_1_travelling_salesman_problem.html" target="_top" xlink:title="Representation of the Euclidean Travelling Salesman Problem.">
<polygon fill="white" stroke="black" points="0,-343.5 0,-576.5 158,-576.5 158,-343.5 0,-343.5"/>
<text text-anchor="middle" x="79" y="-564.5" font-family="Helvetica,sans-Serif" font-size="10.00">opp::TravellingSalesmanProblem</text>
<polyline fill="none" stroke="black" points="0,-557.5 158,-557.5 "/>
<text text-anchor="start" x="8" y="-545.5" font-family="Helvetica,sans-Serif" font-size="10.00">&#45; sz</text>
<text text-anchor="start" x="8" y="-534.5" font-family="Helvetica,sans-Serif" font-size="10.00">&#45; trmMax</text>
<text text-anchor="start" x="8" y="-523.5" font-family="Helvetica,sans-Serif" font-size="10.00">&#45; distanceMatrix</text>
<text text-anchor="start" x="8" y="-512.5" font-family="Helvetica,sans-Serif" font-size="10.00">&#45; boundingBox</text>
<text text-anchor="start" x="8" y="-501.5" font-family="Helvetica,sans-Serif" font-size="10.00">&#45; rd</text>
<text text-anchor="start" x="8" y="-490.5" font-family="Helvetica,sans-Serif" font-size="10.00">&#45; rng</text>
<polyline fill="none" stroke="black" points="0,-483.5 158,-483.5 "/>
<text text-anchor="start" x="8" y="-471.5" font-family="Helvetica,sans-Serif" font-size="10.00">+ TravellingSalesmanProblem()</text>
<text text-anchor="start" x="8" y="-460.5" font-family="Helvetica,sans-Serif" font-size="10.00">+ generateMove()</text>
<text text-anchor="start" x="8" y="-449.5" font-family="Helvetica,sans-Serif" font-size="10.00">+ neighbour()</text>
<text text-anchor="start" x="8" y="-438.5" font-family="Helvetica,sans-Serif" font-size="10.00">+ randomSolution()</text>
<text text-anchor="start" x="8" y="-427.5" font-family="Helvetica,sans-Serif" font-size="10.00">+ select()</text>
<text text-anchor="start" x="8" y="-416.5" font-family="Helvetica,sans-Serif" font-size="10.00">+ crossover()</text>
<text text-anchor="start" x="8" y="-405.5" font-family="Helvetica,sans-Serif" font-size="10.00">+ cost()</text>
<text text-anchor="start" x="8" y="-394.5" font-family="Helvetica,sans-Serif" font-size="10.00">+ getOptimal()</text>
<text text-anchor="start" x="8" y="-383.5" font-family="Helvetica,sans-Serif" font-size="10.00">+ setOptimal()</text>
<text text-anchor="start" x="8" y="-372.5" font-family="Helvetica,sans-Serif" font-size="10.00">&#45; copyPreserved()</text>
<text text-anchor="start" x="8" y="-361.5" font-family="Helvetica,sans-Serif" font-size="10.00">&#45; reorder()</text>
<text text-anchor="start" x="8" y="-350.5" font-family="Helvetica,sans-Serif" font-size="10.00">&#45; copyChanged()</text>
</a>
</g>
</g>
<!-- Node3&#45;&gt;Node2 -->
<g id="edge2" class="edge">
<title>Node3&#45;&gt;Node2</title>
<path fill="none" stroke="#404040" d="M79,-343.33C79,-331.49 79,-319.59 79,-308.09"/>
<polygon fill="none" stroke="#404040" points="79,-307.79 75,-301.79 79,-295.79 83,-301.79 79,-307.79"/>
<text text-anchor="middle" x="89" y="-317" font-family="Helvetica,sans-Serif" font-size="10.00"> &#45;tsp</text>
</g>
<!-- Node4 -->
<g id="node4" class="node">
<title>Node4</title>
<g id="a_node4"><a xlink:href="structopp_1_1_solution.html" target="_top" xlink:title="Represents a solution to the Travelling Salesman Problem.">
<polygon fill="white" stroke="black" points="42,-624.5 42,-703.5 116,-703.5 116,-624.5 42,-624.5"/>
<text text-anchor="middle" x="79" y="-691.5" font-family="Helvetica,sans-Serif" font-size="10.00">opp::Solution</text>
<polyline fill="none" stroke="black" points="42,-684.5 116,-684.5 "/>
<text text-anchor="start" x="50" y="-672.5" font-family="Helvetica,sans-Serif" font-size="10.00">+ order</text>
<text text-anchor="start" x="50" y="-661.5" font-family="Helvetica,sans-Serif" font-size="10.00">+ cost</text>
<polyline fill="none" stroke="black" points="42,-654.5 116,-654.5 "/>
<text text-anchor="start" x="50" y="-642.5" font-family="Helvetica,sans-Serif" font-size="10.00">+ Solution()</text>
<text text-anchor="start" x="50" y="-631.5" font-family="Helvetica,sans-Serif" font-size="10.00">+ Solution()</text>
</a>
</g>
</g>
<!-- Node4&#45;&gt;Node3 -->
<g id="edge3" class="edge">
<title>Node4&#45;&gt;Node3</title>
<path fill="none" stroke="#404040" d="M79,-624.05C79,-613.54 79,-601.56 79,-588.98"/>
<polygon fill="none" stroke="#404040" points="79,-588.77 75,-582.77 79,-576.77 83,-582.77 79,-588.77"/>
<text text-anchor="middle" x="98" y="-598" font-family="Helvetica,sans-Serif" font-size="10.00"> &#45;optimal</text>
</g>
<!-- Node5 -->
<g id="node5" class="node">
<title>Node5</title>
<g id="a_node5"><a xlink:href="structopp_1_1_move.html" target="_top" xlink:title="Represents a move, that is a transposition of two cities in a path.">
<polygon fill="white" stroke="black" points="39.5,-751.5 39.5,-841.5 118.5,-841.5 118.5,-751.5 39.5,-751.5"/>
<text text-anchor="middle" x="79" y="-829.5" font-family="Helvetica,sans-Serif" font-size="10.00">opp::Move</text>
<polyline fill="none" stroke="black" points="39.5,-822.5 118.5,-822.5 "/>
<text text-anchor="start" x="47.5" y="-810.5" font-family="Helvetica,sans-Serif" font-size="10.00">+ cityA</text>
<text text-anchor="start" x="47.5" y="-799.5" font-family="Helvetica,sans-Serif" font-size="10.00">+ indexA</text>
<text text-anchor="start" x="47.5" y="-788.5" font-family="Helvetica,sans-Serif" font-size="10.00">+ cityB</text>
<text text-anchor="start" x="47.5" y="-777.5" font-family="Helvetica,sans-Serif" font-size="10.00">+ indexB</text>
<polyline fill="none" stroke="black" points="39.5,-770.5 118.5,-770.5 "/>
<text text-anchor="start" x="47.5" y="-758.5" font-family="Helvetica,sans-Serif" font-size="10.00">+ operator==()</text>
</a>
</g>
</g>
<!-- Node5&#45;&gt;Node4 -->
<g id="edge4" class="edge">
<title>Node5&#45;&gt;Node4</title>
<path fill="none" stroke="#404040" d="M79,-751.32C79,-740.02 79,-727.79 79,-716.17"/>
<polygon fill="none" stroke="#404040" points="79,-715.89 75,-709.89 79,-703.89 83,-709.89 79,-715.89"/>
<text text-anchor="middle" x="107" y="-725" font-family="Helvetica,sans-Serif" font-size="10.00"> +moveMade</text>
</g>
</g>
</svg>
