<?xml version="1.0" encoding="UTF-8" standalone="no"?>
<!DOCTYPE svg PUBLIC "-//W3C//DTD SVG 1.1//EN"
 "http://www.w3.org/Graphics/SVG/1.1/DTD/svg11.dtd">
<!-- Generated by graphviz version 2.50.0 (20211204.2007)
 -->
<!-- Title: opp::TravellingSalesmanProblem::neighbour Pages: 1 -->
<!--zoomable 243 -->
<svg id="main" version="1.1" xmlns="http://www.w3.org/2000/svg" xmlns:xlink="http://www.w3.org/1999/xlink" xml:space="preserve" onload="init(evt)">
<style type="text/css"><![CDATA[
.edge:hover path { stroke: red; }
.edge:hover polygon { stroke: red; fill: red; }
]]></style>
<script type="text/javascript"><![CDATA[
var edges = document.getElementsByTagName('g');
if (edges && edges.length) {
  for (var i=0;i<edges.length;i++) {
    if (edges[i].id.substr(0,4)=='edge') {
      edges[i].setAttribute('class','edge');
    }
  }
}
]]></script>
        <defs>
                <circle id="rim" cx="0" cy="0" r="7"/>
                <circle id="rim2" cx="0" cy="0" r="3.5"/>
                <g id="zoomPlus">
                        <use xlink:href="#rim" fill="#404040">
                                <set attributeName="fill" to="#808080" begin="zoomplus.mouseover" end="zoomplus.mouseout"/>
                        </use>
                        <path d="M-4,0h8M0,-4v8" fill="none" stroke="white" stroke-width="1.5" pointer-events="none"/>
                </g>
                <g id="zoomMin">
                        <use xlink:href="#rim" fill="#404040">
                                <set attributeName="fill" to="#808080" begin="zoomminus.mouseover" end="zoomminus.mouseout"/>
                        </use>
                        <path d="M-4,0h8" fill="none" stroke="white" stroke-width="1.5" pointer-events="none"/>
                </g>
                <g id="dirArrow">
                        <path fill="none" stroke="white" stroke-width="1.5" d="M0,-3.0v7 M-2.5,-0.5L0,-3.0L2.5,-0.5"/>
                </g>
               <g id="resetDef">
                       <use xlink:href="#rim2" fill="#404040">
                               <set attributeName="fill" to="#808080" begin="reset.mouseover" end="reset.mouseout"/>
                       </use>
               </g>
        </defs>

<script type="text/javascript">
var viewWidth = 640;
var viewHeight = 243;
var sectionId = 'dynsection-7';
</script>
<script xlink:href="svgpan.js"/>
<svg id="graph" class="graph">
<g id="viewport">
<title>opp::TravellingSalesmanProblem::neighbour</title>
<polygon fill="white" stroke="transparent" points="-4,4 -4,-238.76 636,-238.76 636,4 -4,4"/>
<!-- Node1 -->
<g id="node1" class="node">
<title>Node1</title>
<g id="a_node1"><a xlink:title="Applies a move to a solution.">
<polygon fill="#bfbfbf" stroke="black" points="474,-94.26 474,-124.26 632,-124.26 632,-94.26 474,-94.26"/>
<text text-anchor="start" x="482" y="-112.26" font-family="Helvetica,sans-Serif" font-size="10.00">opp::TravellingSalesmanProblem</text>
<text text-anchor="middle" x="553" y="-101.26" font-family="Helvetica,sans-Serif" font-size="10.00">::neighbour</text>
</a>
</g>
</g>
<!-- Node2 -->
<g id="node2" class="node">
<title>Node2</title>
<g id="a_node2"><a xlink:href="classmh_1_1_metaheuristic.html#a17ee0cbdd097192f6a205c57133a5717" target="_top" xlink:title="Applies a move to a solution.">
<polygon fill="white" stroke="black" points="337,-94.26 337,-124.26 438,-124.26 438,-94.26 337,-94.26"/>
<text text-anchor="start" x="345" y="-112.26" font-family="Helvetica,sans-Serif" font-size="10.00">mh::Metaheuristic::</text>
<text text-anchor="middle" x="387.5" y="-101.26" font-family="Helvetica,sans-Serif" font-size="10.00">neighbour</text>
</a>
</g>
</g>
<!-- Node1&#45;&gt;Node2 -->
<g id="edge1" class="edge">
<title>Node1&#45;&gt;Node2</title>
<path fill="none" stroke="midnightblue" d="M463.51,-109.26C454.93,-109.26 446.45,-109.26 438.45,-109.26"/>
<polygon fill="midnightblue" stroke="midnightblue" points="463.6,-112.76 473.6,-109.26 463.6,-105.76 463.6,-112.76"/>
</g>
<!-- Node3 -->
<g id="node3" class="node">
<title>Node3</title>
<g id="a_node3"><a xlink:href="classmh_1_1_genetic_algorithm.html#afc5c822f97236d13700f372837f993e0" target="_top" xlink:title="Finds a near optimal solution to the problem using the Genetic Algorithm.">
<polygon fill="white" stroke="black" points="174,-204.26 174,-234.26 285,-234.26 285,-204.26 174,-204.26"/>
<text text-anchor="start" x="182" y="-222.26" font-family="Helvetica,sans-Serif" font-size="10.00">mh::GeneticAlgorithm</text>
<text text-anchor="middle" x="229.5" y="-211.26" font-family="Helvetica,sans-Serif" font-size="10.00">::findOptimal</text>
</a>
</g>
</g>
<!-- Node2&#45;&gt;Node3 -->
<g id="edge2" class="edge">
<title>Node2&#45;&gt;Node3</title>
<path fill="none" stroke="midnightblue" d="M366.38,-132.02C350.08,-149.42 325.82,-173.1 301,-189.26 292.31,-194.92 282.36,-199.92 272.74,-204.13"/>
<polygon fill="midnightblue" stroke="midnightblue" points="369.09,-134.24 373.28,-124.52 363.94,-129.51 369.09,-134.24"/>
</g>
<!-- Node4 -->
<g id="node4" class="node">
<title>Node4</title>
<g id="a_node4"><a xlink:href="classmh_1_1_memetic_algorithm.html#ab15cea2b9f7127cd01db9af011142687" target="_top" xlink:title="Finds a near optimal solution to the problem using the Memetic Algorithm.">
<polygon fill="white" stroke="black" points="3.5,-138.26 3.5,-168.26 118.5,-168.26 118.5,-138.26 3.5,-138.26"/>
<text text-anchor="start" x="11.5" y="-156.26" font-family="Helvetica,sans-Serif" font-size="10.00">mh::MemeticAlgorithm</text>
<text text-anchor="middle" x="61" y="-145.26" font-family="Helvetica,sans-Serif" font-size="10.00">::findOptimal</text>
</a>
</g>
</g>
<!-- Node2&#45;&gt;Node4 -->
<g id="edge3" class="edge">
<title>Node2&#45;&gt;Node4</title>
<path fill="none" stroke="midnightblue" d="M357.22,-130.18C341.39,-140.2 321.02,-151.12 301,-156.26 240.11,-171.89 167.58,-167.97 118.52,-162.17"/>
<polygon fill="midnightblue" stroke="midnightblue" points="359.53,-132.84 365.98,-124.43 355.69,-126.99 359.53,-132.84"/>
</g>
<!-- Node5 -->
<g id="node5" class="node">
<title>Node5</title>
<g id="a_node5"><a xlink:href="classmh_1_1_iterated_local_search.html#abe4fc7258b131bd9cc6ee2a46a853305" target="_top" xlink:title="Finds a near optimal solution to the problem using Iterated Local Search.">
<polygon fill="white" stroke="black" points="0,-6.26 0,-36.26 122,-36.26 122,-6.26 0,-6.26"/>
<text text-anchor="start" x="8" y="-24.26" font-family="Helvetica,sans-Serif" font-size="10.00">mh::IteratedLocalSearch</text>
<text text-anchor="middle" x="61" y="-13.26" font-family="Helvetica,sans-Serif" font-size="10.00">::findOptimal</text>
</a>
</g>
</g>
<!-- Node2&#45;&gt;Node5 -->
<g id="edge4" class="edge">
<title>Node2&#45;&gt;Node5</title>
<path fill="none" stroke="midnightblue" d="M372.38,-85.53C357.7,-63.42 332.48,-31.88 301,-18.26 244.06,6.37 172.12,1.21 122.11,-7.35"/>
<polygon fill="midnightblue" stroke="midnightblue" points="369.5,-87.52 377.84,-94.06 375.4,-83.75 369.5,-87.52"/>
</g>
<!-- Node6 -->
<g id="node6" class="node">
<title>Node6</title>
<g id="a_node6"><a xlink:href="classmh_1_1_tabu_search.html#a710549972412c1af94dccf32f51881b6" target="_top" xlink:title="Finds a near optimal solution to the problem using Tabu Search.">
<polygon fill="white" stroke="black" points="158,-77.76 158,-96.76 301,-96.76 301,-77.76 158,-77.76"/>
<text text-anchor="middle" x="229.5" y="-84.76" font-family="Helvetica,sans-Serif" font-size="10.00">mh::TabuSearch::findOptimal</text>
</a>
</g>
</g>
<!-- Node2&#45;&gt;Node6 -->
<g id="edge5" class="edge">
<title>Node2&#45;&gt;Node6</title>
<path fill="none" stroke="midnightblue" d="M326.7,-100.83C317.32,-99.51 307.57,-98.13 298.03,-96.78"/>
<polygon fill="midnightblue" stroke="midnightblue" points="326.32,-104.31 336.71,-102.24 327.3,-97.38 326.32,-104.31"/>
</g>
<!-- Node7 -->
<g id="node7" class="node">
<title>Node7</title>
<g id="a_node7"><a xlink:href="classmh_1_1_memetic_algorithm.html#af39272a928e81eed1e2b6a78c9c9a6ce" target="_top" xlink:title="Applies a local search to the solution.">
<polygon fill="white" stroke="black" points="172,-116.26 172,-146.26 287,-146.26 287,-116.26 172,-116.26"/>
<text text-anchor="start" x="180" y="-134.26" font-family="Helvetica,sans-Serif" font-size="10.00">mh::MemeticAlgorithm</text>
<text text-anchor="middle" x="229.5" y="-123.26" font-family="Helvetica,sans-Serif" font-size="10.00">::localSearch</text>
</a>
</g>
</g>
<!-- Node2&#45;&gt;Node7 -->
<g id="edge6" class="edge">
<title>Node2&#45;&gt;Node7</title>
<path fill="none" stroke="midnightblue" d="M326.52,-117.72C313.58,-119.55 299.94,-121.47 287.14,-123.27"/>
<polygon fill="midnightblue" stroke="midnightblue" points="327.3,-121.15 336.71,-116.28 326.32,-114.21 327.3,-121.15"/>
</g>
<!-- Node8 -->
<g id="node8" class="node">
<title>Node8</title>
<g id="a_node8"><a xlink:href="classmh_1_1_iterated_local_search.html#a9c23c535bce43d52a2ce39f2b64d360c" target="_top" xlink:title="Perturbs the solution to escape a local optima.">
<polygon fill="white" stroke="black" points="168.5,-28.26 168.5,-58.26 290.5,-58.26 290.5,-28.26 168.5,-28.26"/>
<text text-anchor="start" x="176.5" y="-46.26" font-family="Helvetica,sans-Serif" font-size="10.00">mh::IteratedLocalSearch</text>
<text text-anchor="middle" x="229.5" y="-35.26" font-family="Helvetica,sans-Serif" font-size="10.00">::perturb</text>
</a>
</g>
</g>
<!-- Node2&#45;&gt;Node8 -->
<g id="edge8" class="edge">
<title>Node2&#45;&gt;Node8</title>
<path fill="none" stroke="midnightblue" d="M347.97,-89.71C333.4,-82.61 316.59,-74.74 301,-68.26 292.73,-64.82 283.79,-61.42 275.15,-58.29"/>
<polygon fill="midnightblue" stroke="midnightblue" points="346.66,-92.97 357.17,-94.25 349.75,-86.69 346.66,-92.97"/>
</g>
<!-- Node7&#45;&gt;Node4 -->
<g id="edge7" class="edge">
<title>Node7&#45;&gt;Node4</title>
<path fill="none" stroke="midnightblue" d="M161.45,-140.12C147.24,-142 132.36,-143.96 118.58,-145.79"/>
<polygon fill="midnightblue" stroke="midnightblue" points="162.21,-143.55 171.67,-138.77 161.29,-136.61 162.21,-143.55"/>
</g>
<!-- Node8&#45;&gt;Node5 -->
<g id="edge9" class="edge">
<title>Node8&#45;&gt;Node5</title>
<path fill="none" stroke="midnightblue" d="M158.35,-33.99C146.27,-32.4 133.81,-30.75 122.02,-29.19"/>
<polygon fill="midnightblue" stroke="midnightblue" points="158.02,-37.48 168.39,-35.32 158.93,-30.54 158.02,-37.48"/>
</g>
</g>
</svg>
        <g id="navigator" transform="translate(0 0)" fill="#404254">
                <rect fill="#f2f5e9" fill-opacity="0.5" stroke="#606060" stroke-width=".5" x="0" y="0" width="60" height="60"/>
                <use id="zoomplus" xlink:href="#zoomPlus" x="17" y="9" onmousedown="handleZoom(evt,'in')"/>
                <use id="zoomminus" xlink:href="#zoomMin" x="42" y="9" onmousedown="handleZoom(evt,'out')"/>
                <use id="reset" xlink:href="#resetDef" x="30" y="36" onmousedown="handleReset()"/>
                <g id="arrowUp" xlink:href="#dirArrow" transform="translate(30 24)" onmousedown="handlePan(0,-1)">
                  <use xlink:href="#rim" fill="#404040">
                        <set attributeName="fill" to="#808080" begin="arrowUp.mouseover" end="arrowUp.mouseout"/>
                  </use>
                  <path fill="none" stroke="white" stroke-width="1.5" d="M0,-3.0v7 M-2.5,-0.5L0,-3.0L2.5,-0.5"/>
                </g>
                <g id="arrowRight" xlink:href="#dirArrow" transform="rotate(90) translate(36 -43)" onmousedown="handlePan(1,0)">
                  <use xlink:href="#rim" fill="#404040">
                        <set attributeName="fill" to="#808080" begin="arrowRight.mouseover" end="arrowRight.mouseout"/>
                  </use>
                  <path fill="none" stroke="white" stroke-width="1.5" d="M0,-3.0v7 M-2.5,-0.5L0,-3.0L2.5,-0.5"/>
                </g>
                <g id="arrowDown" xlink:href="#dirArrow" transform="rotate(180) translate(-30 -48)" onmousedown="handlePan(0,1)">
                  <use xlink:href="#rim" fill="#404040">
                        <set attributeName="fill" to="#808080" begin="arrowDown.mouseover" end="arrowDown.mouseout"/>
                  </use>
                  <path fill="none" stroke="white" stroke-width="1.5" d="M0,-3.0v7 M-2.5,-0.5L0,-3.0L2.5,-0.5"/>
                </g>
                <g id="arrowLeft" xlink:href="#dirArrow" transform="rotate(270) translate(-36 17)" onmousedown="handlePan(-1,0)">
                  <use xlink:href="#rim" fill="#404040">
                        <set attributeName="fill" to="#808080" begin="arrowLeft.mouseover" end="arrowLeft.mouseout"/>
                  </use>
                  <path fill="none" stroke="white" stroke-width="1.5" d="M0,-3.0v7 M-2.5,-0.5L0,-3.0L2.5,-0.5"/>
                </g>
        </g>
        <svg viewBox="0 0 15 15" width="100%" height="30px" preserveAspectRatio="xMaxYMin meet">
         <g id="arrow_out" transform="scale(0.3 0.3)">
          <a xlink:href="classopp_1_1_travelling_salesman_problem_aa42a141024661ed6c2947358a785e982_icgraph_org.svg" target="_base">
           <rect id="button" ry="5" rx="5" y="6" x="6" height="38" width="38"
                fill="#f2f5e9" fill-opacity="0.5" stroke="#606060" stroke-width="1.0"/>
           <path id="arrow"
             d="M 11.500037,31.436501 C 11.940474,20.09759 22.043105,11.32322 32.158766,21.979434 L 37.068811,17.246167 C 37.068811,17.246167 37.088388,32 37.088388,32 L 22.160133,31.978069 C 22.160133,31.978069 26.997745,27.140456 26.997745,27.140456 C 18.528582,18.264221 13.291696,25.230495 11.500037,31.436501 z"
             style="fill:#404040;"/>
          </a>
         </g>
        </svg>
</svg>
