<?xml version="1.0" encoding="UTF-8" standalone="no"?>
<!DOCTYPE svg PUBLIC "-//W3C//DTD SVG 1.1//EN"
 "http://www.w3.org/Graphics/SVG/1.1/DTD/svg11.dtd">
<!-- Generated by graphviz version 2.50.0 (20211204.2007)
 -->
<!-- Title: mh::Metaheuristic::findOptimal Pages: 1 -->
<svg width="392pt" height="39pt"
 viewBox="0.00 0.00 392.00 39.00" xmlns="http://www.w3.org/2000/svg" xmlns:xlink="http://www.w3.org/1999/xlink">
<g id="graph0" class="graph" transform="scale(1 1) rotate(0) translate(4 35)">
<title>mh::Metaheuristic::findOptimal</title>
<polygon fill="white" stroke="transparent" points="-4,4 -4,-35 388,-35 388,4 -4,4"/>
<!-- Node1 -->
<g id="node1" class="node">
<title>Node1</title>
<g id="a_node1"><a xlink:title="Finds a near optimal solution to the problem using a metaheuristic.">
<polygon fill="#bfbfbf" stroke="black" points="283,-0.5 283,-30.5 384,-30.5 384,-0.5 283,-0.5"/>
<text text-anchor="start" x="291" y="-18.5" font-family="Helvetica,sans-Serif" font-size="10.00">mh::Metaheuristic::</text>
<text text-anchor="middle" x="333.5" y="-7.5" font-family="Helvetica,sans-Serif" font-size="10.00">findOptimal</text>
</a>
</g>
</g>
<!-- Node2 -->
<g id="node2" class="node">
<title>Node2</title>
<g id="a_node2"><a xlink:href="class_logger.html#afbf502b77d78e046cf2b4772ee4cc947" target="_top" xlink:title="Benchmarks the metaheuristic and calculates benchmarking data.">
<polygon fill="white" stroke="black" points="147,-6 147,-25 247,-25 247,-6 147,-6"/>
<text text-anchor="middle" x="197" y="-13" font-family="Helvetica,sans-Serif" font-size="10.00">Logger::benchmark</text>
</a>
</g>
</g>
<!-- Node1&#45;&gt;Node2 -->
<g id="edge1" class="edge">
<title>Node1&#45;&gt;Node2</title>
<path fill="none" stroke="midnightblue" d="M272.52,-15.5C264,-15.5 255.33,-15.5 247.05,-15.5"/>
<polygon fill="midnightblue" stroke="midnightblue" points="272.8,-19 282.8,-15.5 272.8,-12 272.8,-19"/>
</g>
<!-- Node3 -->
<g id="node3" class="node">
<title>Node3</title>
<g id="a_node3"><a xlink:href="class_logger.html#a9e396b5f528e2fd328eda38ad9f6bd39" target="_top" xlink:title="Benchmarks all metaheuristics and logs the results.">
<polygon fill="white" stroke="black" points="0,-6 0,-25 111,-25 111,-6 0,-6"/>
<text text-anchor="middle" x="55.5" y="-13" font-family="Helvetica,sans-Serif" font-size="10.00">Logger::benchmarkAll</text>
</a>
</g>
</g>
<!-- Node2&#45;&gt;Node3 -->
<g id="edge2" class="edge">
<title>Node2&#45;&gt;Node3</title>
<path fill="none" stroke="midnightblue" d="M136.72,-15.5C128.32,-15.5 119.72,-15.5 111.42,-15.5"/>
<polygon fill="midnightblue" stroke="midnightblue" points="136.82,-19 146.82,-15.5 136.82,-12 136.82,-19"/>
</g>
</g>
</svg>
