<?xml version="1.0" encoding="UTF-8" standalone="no"?>
<!DOCTYPE svg PUBLIC "-//W3C//DTD SVG 1.1//EN"
 "http://www.w3.org/Graphics/SVG/1.1/DTD/svg11.dtd">
<!-- Generated by graphviz version 2.50.0 (20211204.2007)
 -->
<!-- Title: Graphical Class Hierarchy Pages: 1 -->
<svg width="261pt" height="142pt"
 viewBox="0.00 0.00 261.00 142.00" xmlns="http://www.w3.org/2000/svg" xmlns:xlink="http://www.w3.org/1999/xlink">
<g id="graph0" class="graph" transform="scale(1 1) rotate(0) translate(4 138)">
<title>Graphical Class Hierarchy</title>
<polygon fill="white" stroke="transparent" points="-4,4 -4,-138 257,-138 257,4 -4,4"/>
<!-- Node0 -->
<g id="node1" class="node">
<title>Node0</title>
<g id="a_node1"><a xlink:href="classmh_1_1_metaheuristic.html" target="_top" xlink:title="Represents a metaheuristic used to solve a problem.">
<polygon fill="white" stroke="black" points="0,-57.5 0,-76.5 95,-76.5 95,-57.5 0,-57.5"/>
<text text-anchor="middle" x="47.5" y="-64.5" font-family="Helvetica,sans-Serif" font-size="10.00">mh::Metaheuristic</text>
</a>
</g>
</g>
<!-- Node1 -->
<g id="node2" class="node">
<title>Node1</title>
<g id="a_node2"><a xlink:href="classmh_1_1_genetic_algorithm.html" target="_top" xlink:title="Represents the use of the Genetic Algorithm to solve a problem.">
<polygon fill="white" stroke="black" points="136.5,-114.5 136.5,-133.5 247.5,-133.5 247.5,-114.5 136.5,-114.5"/>
<text text-anchor="middle" x="192" y="-121.5" font-family="Helvetica,sans-Serif" font-size="10.00">mh::GeneticAlgorithm</text>
</a>
</g>
</g>
<!-- Node0&#45;&gt;Node1 -->
<g id="edge1" class="edge">
<title>Node0&#45;&gt;Node1</title>
<path fill="none" stroke="midnightblue" d="M76.74,-81.07C92.5,-88.65 112.61,-97.88 131,-105 139.76,-108.39 149.41,-111.65 158.36,-114.48"/>
<polygon fill="midnightblue" stroke="midnightblue" points="78.07,-77.83 67.54,-76.6 75,-84.12 78.07,-77.83"/>
</g>
<!-- Node2 -->
<g id="node3" class="node">
<title>Node2</title>
<g id="a_node3"><a xlink:href="classmh_1_1_iterated_local_search.html" target="_top" xlink:title="Represents the use of Iterated Local Search to solve a problem.">
<polygon fill="white" stroke="black" points="131,-76.5 131,-95.5 253,-95.5 253,-76.5 131,-76.5"/>
<text text-anchor="middle" x="192" y="-83.5" font-family="Helvetica,sans-Serif" font-size="10.00">mh::IteratedLocalSearch</text>
</a>
</g>
</g>
<!-- Node0&#45;&gt;Node2 -->
<g id="edge2" class="edge">
<title>Node0&#45;&gt;Node2</title>
<path fill="none" stroke="midnightblue" d="M105.29,-74.57C113.74,-75.7 122.48,-76.86 130.99,-78"/>
<polygon fill="midnightblue" stroke="midnightblue" points="105.53,-71.07 95.16,-73.22 104.61,-78.01 105.53,-71.07"/>
</g>
<!-- Node3 -->
<g id="node4" class="node">
<title>Node3</title>
<g id="a_node4"><a xlink:href="classmh_1_1_memetic_algorithm.html" target="_top" xlink:title="Represents the use of the Memetic Algorithm to solve a problem.">
<polygon fill="white" stroke="black" points="134.5,-38.5 134.5,-57.5 249.5,-57.5 249.5,-38.5 134.5,-38.5"/>
<text text-anchor="middle" x="192" y="-45.5" font-family="Helvetica,sans-Serif" font-size="10.00">mh::MemeticAlgorithm</text>
</a>
</g>
</g>
<!-- Node0&#45;&gt;Node3 -->
<g id="edge3" class="edge">
<title>Node0&#45;&gt;Node3</title>
<path fill="none" stroke="midnightblue" d="M105.33,-59.42C114.86,-58.15 124.76,-56.83 134.29,-55.56"/>
<polygon fill="midnightblue" stroke="midnightblue" points="104.61,-55.99 95.16,-60.78 105.53,-62.93 104.61,-55.99"/>
</g>
<!-- Node4 -->
<g id="node5" class="node">
<title>Node4</title>
<g id="a_node5"><a xlink:href="classmh_1_1_tabu_search.html" target="_top" xlink:title="Represents the use of Tabu Search to solve a problem.">
<polygon fill="white" stroke="black" points="148,-0.5 148,-19.5 236,-19.5 236,-0.5 148,-0.5"/>
<text text-anchor="middle" x="192" y="-7.5" font-family="Helvetica,sans-Serif" font-size="10.00">mh::TabuSearch</text>
</a>
</g>
</g>
<!-- Node0&#45;&gt;Node4 -->
<g id="edge4" class="edge">
<title>Node0&#45;&gt;Node4</title>
<path fill="none" stroke="midnightblue" d="M76.74,-52.93C92.5,-45.35 112.61,-36.12 131,-29 139.76,-25.61 149.41,-22.35 158.36,-19.52"/>
<polygon fill="midnightblue" stroke="midnightblue" points="75,-49.88 67.54,-57.4 78.07,-56.17 75,-49.88"/>
</g>
</g>
</svg>
