<?xml version="1.0" encoding="UTF-8" standalone="no"?>
<!DOCTYPE svg PUBLIC "-//W3C//DTD SVG 1.1//EN"
 "http://www.w3.org/Graphics/SVG/1.1/DTD/svg11.dtd">
<!-- Generated by graphviz version 2.50.0 (20211204.2007)
 -->
<!-- Title: Graphical Class Hierarchy Pages: 1 -->
<svg width="299pt" height="78pt"
 viewBox="0.00 0.00 299.00 77.50" xmlns="http://www.w3.org/2000/svg" xmlns:xlink="http://www.w3.org/1999/xlink">
<g id="graph0" class="graph" transform="scale(1 1) rotate(0) translate(4 73.5)">
<title>Graphical Class Hierarchy</title>
<polygon fill="white" stroke="transparent" points="-4,4 -4,-73.5 295,-73.5 295,4 -4,4"/>
<!-- Node0 -->
<g id="node1" class="node">
<title>Node0</title>
<g id="a_node1"><a xlink:href="classgui_1_1_gui_component.html" target="_top" xlink:title="Represents a component of the GUI.">
<polygon fill="white" stroke="black" points="0,-28 0,-47 100,-47 100,-28 0,-28"/>
<text text-anchor="middle" x="50" y="-35" font-family="Helvetica,sans-Serif" font-size="10.00">gui::GuiComponent</text>
</a>
</g>
</g>
<!-- Node1 -->
<g id="node2" class="node">
<title>Node1</title>
<g id="a_node2"><a xlink:href="classgui_1_1_button.html" target="_top" xlink:title="Represents part of the GUI that can be displayed and clicked on.">
<polygon fill="white" stroke="black" points="181.5,-50 181.5,-69 245.5,-69 245.5,-50 181.5,-50"/>
<text text-anchor="middle" x="213.5" y="-57" font-family="Helvetica,sans-Serif" font-size="10.00">gui::Button</text>
</a>
</g>
</g>
<!-- Node0&#45;&gt;Node1 -->
<g id="edge1" class="edge">
<title>Node0&#45;&gt;Node1</title>
<path fill="none" stroke="midnightblue" d="M110.43,-45.6C134.45,-48.87 161.18,-52.51 181.25,-55.24"/>
<polygon fill="midnightblue" stroke="midnightblue" points="110.71,-42.1 100.33,-44.22 109.77,-49.04 110.71,-42.1"/>
</g>
<!-- Node2 -->
<g id="node3" class="node">
<title>Node2</title>
<g id="a_node3"><a xlink:href="classgui_1_1_travelling_salesman_problem_display.html" target="_top" xlink:title="Handles displaying of problem and interaction with the user.">
<polygon fill="white" stroke="black" points="136,-0.5 136,-30.5 291,-30.5 291,-0.5 136,-0.5"/>
<text text-anchor="start" x="144" y="-18.5" font-family="Helvetica,sans-Serif" font-size="10.00">gui::TravellingSalesmanProblem</text>
<text text-anchor="middle" x="213.5" y="-7.5" font-family="Helvetica,sans-Serif" font-size="10.00">Display</text>
</a>
</g>
</g>
<!-- Node0&#45;&gt;Node2 -->
<g id="edge2" class="edge">
<title>Node0&#45;&gt;Node2</title>
<path fill="none" stroke="midnightblue" d="M110.28,-29.42C118.59,-28.29 127.23,-27.12 135.8,-25.95"/>
<polygon fill="midnightblue" stroke="midnightblue" points="109.77,-25.96 100.33,-30.78 110.71,-32.9 109.77,-25.96"/>
</g>
</g>
</svg>
