<?xml version="1.0" encoding="UTF-8" standalone="no"?>
<!DOCTYPE svg PUBLIC "-//W3C//DTD SVG 1.1//EN"
 "http://www.w3.org/Graphics/SVG/1.1/DTD/svg11.dtd">
<!-- Generated by graphviz version 2.50.0 (20211204.2007)
 -->
<!-- Title: opp::Solution Pages: 1 -->
<svg width="104pt" height="226pt"
 viewBox="0.00 0.00 103.50 226.00" xmlns="http://www.w3.org/2000/svg" xmlns:xlink="http://www.w3.org/1999/xlink">
<g id="graph0" class="graph" transform="scale(1 1) rotate(0) translate(4 222)">
<title>opp::Solution</title>
<polygon fill="white" stroke="transparent" points="-4,4 -4,-222 99.5,-222 99.5,4 -4,4"/>
<!-- Node1 -->
<g id="node1" class="node">
<title>Node1</title>
<g id="a_node1"><a xlink:title="Represents a solution to the Travelling Salesman Problem.">
<polygon fill="#bfbfbf" stroke="black" points="2.5,-0.5 2.5,-79.5 76.5,-79.5 76.5,-0.5 2.5,-0.5"/>
<text text-anchor="middle" x="39.5" y="-67.5" font-family="Helvetica,sans-Serif" font-size="10.00">opp::Solution</text>
<polyline fill="none" stroke="black" points="2.5,-60.5 76.5,-60.5 "/>
<text text-anchor="start" x="10.5" y="-48.5" font-family="Helvetica,sans-Serif" font-size="10.00">+ order</text>
<text text-anchor="start" x="10.5" y="-37.5" font-family="Helvetica,sans-Serif" font-size="10.00">+ cost</text>
<polyline fill="none" stroke="black" points="2.5,-30.5 76.5,-30.5 "/>
<text text-anchor="start" x="10.5" y="-18.5" font-family="Helvetica,sans-Serif" font-size="10.00">+ Solution()</text>
<text text-anchor="start" x="10.5" y="-7.5" font-family="Helvetica,sans-Serif" font-size="10.00">+ Solution()</text>
</a>
</g>
</g>
<!-- Node2 -->
<g id="node2" class="node">
<title>Node2</title>
<g id="a_node2"><a xlink:href="structopp_1_1_move.html" target="_top" xlink:title="Represents a move, that is a transposition of two cities in a path.">
<polygon fill="white" stroke="black" points="0,-127.5 0,-217.5 79,-217.5 79,-127.5 0,-127.5"/>
<text text-anchor="middle" x="39.5" y="-205.5" font-family="Helvetica,sans-Serif" font-size="10.00">opp::Move</text>
<polyline fill="none" stroke="black" points="0,-198.5 79,-198.5 "/>
<text text-anchor="start" x="8" y="-186.5" font-family="Helvetica,sans-Serif" font-size="10.00">+ cityA</text>
<text text-anchor="start" x="8" y="-175.5" font-family="Helvetica,sans-Serif" font-size="10.00">+ indexA</text>
<text text-anchor="start" x="8" y="-164.5" font-family="Helvetica,sans-Serif" font-size="10.00">+ cityB</text>
<text text-anchor="start" x="8" y="-153.5" font-family="Helvetica,sans-Serif" font-size="10.00">+ indexB</text>
<polyline fill="none" stroke="black" points="0,-146.5 79,-146.5 "/>
<text text-anchor="start" x="8" y="-134.5" font-family="Helvetica,sans-Serif" font-size="10.00">+ operator==()</text>
</a>
</g>
</g>
<!-- Node2&#45;&gt;Node1 -->
<g id="edge1" class="edge">
<title>Node2&#45;&gt;Node1</title>
<path fill="none" stroke="#404040" d="M39.5,-127.32C39.5,-116.02 39.5,-103.79 39.5,-92.17"/>
<polygon fill="none" stroke="#404040" points="39.5,-91.89 35.5,-85.89 39.5,-79.89 43.5,-85.89 39.5,-91.89"/>
<text text-anchor="middle" x="67.5" y="-101" font-family="Helvetica,sans-Serif" font-size="10.00"> +moveMade</text>
</g>
</g>
</svg>
